STARTFONT 2.1
COMMENT
COMMENT Converted from OpenType font "BeVietnam-Italic.ttf" by "otf2bdf 3.0".
COMMENT
FONT -FreeType-Be Vietnam-Medium-I-Normal--55-400-100-100-P-283-ISO10646-1
SIZE 40 100 100
FONTBOUNDINGBOX 80 75 -14 -14
STARTPROPERTIES 19
FOUNDRY "FreeType"
FAMILY_NAME "Be Vietnam"
WEIGHT_NAME "Medium"
SLANT "I"
SETWIDTH_NAME "Normal"
ADD_STYLE_NAME ""
PIXEL_SIZE 55
POINT_SIZE 400
RESOLUTION_X 100
RESOLUTION_Y 100
SPACING "P"
AVERAGE_WIDTH 283
CHARSET_REGISTRY "ISO10646"
CHARSET_ENCODING "1"
FONT_ASCENT 66
FONT_DESCENT 14
COPYRIGHT "Copyright 2019 The Bevietnam Project Authors (https://github.com/bettergui/beVietnam)"
_OTF_FONTFILE "BeVietnam-Italic.ttf"
_OTF_PSNAME "BeVietnam-Italic"
ENDPROPERTIES
CHARS 445
STARTCHAR 000D
ENCODING 13
SWIDTH 594 0
DWIDTH 33 0
BBX 0 0 0 0
BITMAP
ENDCHAR
STARTCHAR 0020
ENCODING 32
SWIDTH 216 0
DWIDTH 12 0
BBX 0 0 0 0
BITMAP
ENDCHAR
STARTCHAR 0021
ENCODING 33
SWIDTH 234 0
DWIDTH 13 0
BBX 12 43 4 -1
BITMAP
01F0
01F0
01F0
01F0
03F0
03E0
03E0
03E0
03E0
03E0
03C0
07C0
07C0
07C0
07C0
0780
0780
0780
0780
0F80
0F00
0F00
0F00
0F00
0F00
0E00
0E00
1E00
1E00
1E00
1C00
1C00
0000
0000
0000
0000
1800
7C00
FC00
FC00
FC00
7800
2000
ENDCHAR
STARTCHAR 0022
ENCODING 34
SWIDTH 558 0
DWIDTH 31 0
BBX 19 14 9 27
BITMAP
030060
0F00E0
1C0380
380300
300600
700E00
700E00
700E00
FE0FC0
FE0FE0
FE1FE0
FE1FC0
FE0FC0
380780
ENDCHAR
STARTCHAR 0023
ENCODING 35
SWIDTH 864 0
DWIDTH 48 0
BBX 43 39 6 0
BITMAP
00000F003E00
00000F003C00
00001E003C00
00001E007800
00003E007800
00003C00F800
00003C00F000
00007800F000
00007801E000
0000F801E000
0000F003E000
03FFFFFFFFE0
03FFFFFFFFC0
07FFFFFFFFC0
07FFFFFFFFC0
0003C0078000
0003C00F0000
0007C00F0000
0007801F0000
0007801E0000
000F001E0000
000F003C0000
001F003C0000
001E007C0000
001E00780000
7FFFFFFFFC00
7FFFFFFFFC00
7FFFFFFFF800
FFFFFFFFF800
007801E00000
00F801E00000
00F003E00000
00F003C00000
01E003C00000
01E007800000
03E007800000
03C00F800000
03C00F000000
07800F000000
ENDCHAR
STARTCHAR 0024
ENCODING 36
SWIDTH 558 0
DWIDTH 31 0
BBX 29 46 4 -4
BITMAP
00003000
00003000
00003000
00007800
000FFF00
003FFFC0
007FFFE0
00FF7FF0
01F863F0
03F0E1F8
07E0C0F8
07C0C0F8
0780C0F8
0F80C078
0F80C078
0F81C000
0F818000
0F818000
0FC18000
07F18000
07FF8000
03FFF800
00FFFE00
003FFF80
0003FFC0
00031FC0
000307E0
000703E0
000603E0
000601E0
F80601E0
F80601E0
7C0603E0
7C0E03E0
7C0C07C0
7E0C0FC0
3F0C1F80
3F8C7F00
1FFFFE00
0FFFFC00
07FFF000
01FFC000
00180000
00180000
00380000
00300000
ENDCHAR
STARTCHAR 0025
ENCODING 37
SWIDTH 810 0
DWIDTH 45 0
BBX 39 40 7 -1
BITMAP
07F80003C0
1FFC0003C0
3E3C000780
3C1E000F00
780E001F00
700E001E00
F00E003C00
F00E007C00
F01E007800
F01E00F000
F01C01F000
F03C01E000
78F803C000
7FF007C000
3FE0078000
02000F0000
00001F0000
00001E0000
00003C0000
0000780000
0000780000
0000F00000
0001E00000
0003E00080
0003C00FF0
0007801FF8
000F803E7C
000F00781C
001E00F01C
003E00F01E
003C00E01E
007801E01C
00F801E01C
00F001E03C
01E001E03C
03C000F078
03C000F9F0
0780007FE0
0F00003FC0
0000000400
ENDCHAR
STARTCHAR 0026
ENCODING 38
SWIDTH 630 0
DWIDTH 35 0
BBX 31 40 5 0
BITMAP
00000C00
0001FFC0
0007FFE0
000FFFF0
001FFFF8
003F01F8
003E00FC
007C007C
007C007C
0078007C
00F8007C
00F8007C
00F80000
00780000
007C0000
007C0000
003E0000
003F0000
001F0000
001F8000
00FFC03E
03FFE07C
07F3E07C
1F83F0F8
3F01F9F0
3E00FBE0
7C007FC0
78007FC0
F8003F80
F0001F00
F0001F80
F0003FC0
F0007FC0
F800FBE0
FC01F3F0
FE07E1F0
7FFFC0F8
7FFF80FC
3FFE007E
0FF8003E
ENDCHAR
STARTCHAR 0027
ENCODING 39
SWIDTH 288 0
DWIDTH 16 0
BBX 8 14 8 27
BITMAP
3E
7E
FF
FF
7E
3E
0E
0E
0C
1C
38
70
E0
80
ENDCHAR
STARTCHAR 0028
ENCODING 40
SWIDTH 450 0
DWIDTH 25 0
BBX 21 56 8 -12
BITMAP
000010
000078
0000E0
0001C0
0003C0
000780
000F00
001E00
003C00
007C00
00F800
00F000
01F000
03E000
03E000
07C000
07C000
0F8000
0F8000
1F0000
1F0000
3F0000
3E0000
3E0000
3E0000
7C0000
7C0000
7C0000
7C0000
7C0000
780000
F80000
F80000
F80000
F80000
F80000
F80000
F80000
780000
780000
780000
7C0000
7C0000
7C0000
3C0000
3C0000
1E0000
1E0000
1F0000
0F0000
078000
078000
03C000
01E000
00E000
004000
ENDCHAR
STARTCHAR 0029
ENCODING 41
SWIDTH 468 0
DWIDTH 26 0
BBX 20 56 3 -12
BITMAP
002000
00F000
007800
003C00
001E00
001E00
000F00
000F80
000780
000780
0003C0
0003C0
0003E0
0003E0
0001E0
0001E0
0001F0
0001F0
0001F0
0001F0
0001F0
0001F0
0001F0
0001F0
0001F0
0001F0
0001F0
0001F0
0003E0
0003E0
0003E0
0003E0
0003E0
0007C0
0007C0
0007C0
000F80
000F80
001F00
001F00
003E00
003E00
007C00
007C00
00F800
00F000
01F000
03E000
03C000
078000
0F0000
1E0000
3C0000
780000
F00000
400000
ENDCHAR
STARTCHAR 002A
ENCODING 42
SWIDTH 468 0
DWIDTH 26 0
BBX 20 20 10 23
BITMAP
003C00
003C00
003800
003800
183820
3C30F0
7E71F0
3F77E0
0FFF80
03FC00
01F000
07FC00
3FDF00
FCCFC0
F9C7C0
E1C380
81C000
01C000
03C000
038000
ENDCHAR
STARTCHAR 002B
ENCODING 43
SWIDTH 576 0
DWIDTH 32 0
BBX 22 22 8 6
BITMAP
001E00
003E00
003C00
003C00
003C00
003C00
003C00
007C00
FFFFFC
FFFFFC
FFFFFC
FFFFFC
FFFFFC
00F800
00F000
00F000
00F000
00F000
00F000
01F000
01E000
01E000
ENDCHAR
STARTCHAR 002C
ENCODING 44
SWIDTH 270 0
DWIDTH 15 0
BBX 8 15 4 -9
BITMAP
0C
3E
7F
7F
7F
7F
0F
0E
0E
0E
0C
18
70
E0
80
ENDCHAR
STARTCHAR 002D
ENCODING 45
SWIDTH 594 0
DWIDTH 33 0
BBX 21 4 12 15
BITMAP
7FFFF8
FFFFF8
FFFFF0
FFFFF0
ENDCHAR
STARTCHAR 002E
ENCODING 46
SWIDTH 270 0
DWIDTH 15 0
BBX 6 6 5 0
BITMAP
38
7C
FC
FC
FC
F8
ENDCHAR
STARTCHAR 002F
ENCODING 47
SWIDTH 504 0
DWIDTH 28 0
BBX 36 54 1 -9
BITMAP
00000001F0
00000001E0
00000003E0
00000007C0
00000007C0
0000000F80
0000000F00
0000001F00
0000001E00
0000003E00
0000007C00
0000007800
000000F800
000000F000
000001F000
000003E000
000003C000
000007C000
0000078000
00000F8000
00001F0000
00001F0000
00003E0000
00003C0000
00007C0000
0000F80000
0000F80000
0001F00000
0001E00000
0003E00000
0007C00000
0007C00000
000F800000
000F000000
001F000000
001E000000
003E000000
007C000000
0078000000
00F8000000
00F0000000
01F0000000
03E0000000
03C0000000
07C0000000
0780000000
0F80000000
1F00000000
1F00000000
3E00000000
3C00000000
7C00000000
F800000000
F800000000
ENDCHAR
STARTCHAR 0030
ENCODING 48
SWIDTH 594 0
DWIDTH 33 0
BBX 30 41 5 -1
BITMAP
00007800
000FFF00
003FFFC0
007FFFE0
00FFFFF0
01FC03F0
03F001F8
07E000F8
07C000F8
0FC000FC
0F80007C
1F80007C
1F00007C
1F00007C
3F00007C
3E00007C
3E0000FC
3E0000FC
7E0000F8
7E0000F8
7C0000F8
7C0000F8
7C0001F8
7C0001F0
FC0001F0
FC0001F0
FC0001F0
F80003E0
F80003E0
FC0003E0
FC0007C0
FC000FC0
7C000F80
7E001F80
7E003F00
3F80FE00
3FFFFC00
1FFFF800
0FFFF000
03FFC000
00100000
ENDCHAR
STARTCHAR 0031
ENCODING 49
SWIDTH 486 0
DWIDTH 27 0
BBX 21 39 5 0
BITMAP
0003E0
0007E0
000FE0
003FE0
007FE0
00FFC0
01FBC0
03F3C0
07C7C0
0787C0
0707C0
060780
080780
000780
000F80
000F80
000F80
000F00
000F00
000F00
001F00
001F00
001F00
001E00
001E00
001E00
003E00
003E00
003E00
003C00
003C00
007C00
007C00
007C00
007C00
7FFFF8
7FFFF0
7FFFF0
FFFFF0
ENDCHAR
STARTCHAR 0032
ENCODING 50
SWIDTH 576 0
DWIDTH 32 0
BBX 30 40 4 0
BITMAP
00003E00
0007FFC0
000FFFE0
003FFFF0
007FFFF8
00FC01F8
01F800FC
01F0007C
03E0007C
03E0007C
07C0003C
07C0007C
07C0007C
0000007C
00000078
000000F8
000000F0
000001F0
000003E0
000007C0
00000FC0
00001F80
00003F00
00007E00
0001F800
0003F000
0007E000
001FC000
003F0000
007E0000
01FC0000
03F00000
07E00000
0FC00000
3F800000
7E000000
FFFFFFC0
FFFFFFC0
FFFFFFC0
FFFFFFC0
ENDCHAR
STARTCHAR 0033
ENCODING 51
SWIDTH 576 0
DWIDTH 32 0
BBX 29 40 5 0
BITMAP
0001FC00
000FFF80
003FFFC0
007FFFE0
00FF1FF0
01F803F8
03E001F8
07C000F8
07C000F8
07800078
00000078
000000F8
000000F8
000000F8
000001F0
000003E0
000007E0
00001FC0
000FFF00
000FFC00
001FFC00
001FFF00
00001F80
00000FC0
000007C0
000003E0
000003E0
000003E0
000003E0
000003C0
F80003C0
F80007C0
F8000FC0
FC000F80
7E003F00
7F80FF00
3FFFFE00
1FFFF800
0FFFF000
03FFC000
ENDCHAR
STARTCHAR 0034
ENCODING 52
SWIDTH 594 0
DWIDTH 33 0
BBX 29 39 4 0
BITMAP
000007F0
000007F0
00000FE0
00001FE0
00003FE0
00007FE0
0000FFE0
0000FBE0
0001F3C0
0003E3C0
0007C7C0
000F87C0
001F07C0
001F07C0
003E0780
007C0F80
00F80F80
01F00F80
03E00F80
07E00F00
07C00F00
0F801F00
1F001F00
3E001F00
7C001F00
7FFFFFF8
7FFFFFF8
FFFFFFF8
FFFFFFF8
00003E00
00003E00
00003C00
00003C00
00007C00
00007C00
00007C00
00007C00
00007800
00007800
ENDCHAR
STARTCHAR 0035
ENCODING 53
SWIDTH 594 0
DWIDTH 33 0
BBX 29 39 6 0
BITMAP
03FFFFF8
03FFFFF0
03FFFFF0
03FFFFF0
07FFFFF0
07C00000
07800000
07800000
07800000
0F800000
0F000000
0F000000
0F000000
1F0FF800
1E3FFE00
1E7FFF00
1EFEFF80
1FC01FC0
3F8007C0
3F0007E0
3E0003E0
000003E0
000003E0
000003E0
000003E0
000003E0
000003E0
000003C0
000007C0
F80007C0
F8000F80
F8001F80
FC003F00
7E007E00
7F81FE00
3FFFF800
1FFFF000
0FFFE000
01FF0000
ENDCHAR
STARTCHAR 0036
ENCODING 54
SWIDTH 576 0
DWIDTH 32 0
BBX 27 39 5 0
BITMAP
00007C00
0000F800
0001F000
0001E000
0003E000
0007C000
000F8000
001F0000
003E0000
003C0000
007C0000
00F80000
01F00000
03E00000
03C7F000
079FFC00
0FFFFF00
0FFFFF80
1FE03FC0
1F800FC0
3F0007C0
3E0007E0
7C0003E0
7C0003E0
780003E0
F80003E0
F80003E0
F80003E0
F80003C0
F80007C0
F80007C0
F8000F80
7C001F00
7E003F00
7F00FE00
3FFFFC00
1FFFF800
0FFFE000
03FF8000
ENDCHAR
STARTCHAR 0037
ENCODING 55
SWIDTH 504 0
DWIDTH 28 0
BBX 26 39 7 0
BITMAP
7FFFFFC0
7FFFFFC0
7FFFFF80
7FFFFF80
FFFFFF80
00000F80
00001F00
00001E00
00003E00
00007C00
00007C00
0000F800
0000F000
0001F000
0003E000
0003E000
0007C000
000F8000
000F8000
001F0000
001F0000
003E0000
007C0000
007C0000
00F80000
00F80000
01F00000
03E00000
03E00000
07C00000
0FC00000
0F800000
1F000000
1F000000
3E000000
7E000000
7C000000
F8000000
F8000000
ENDCHAR
STARTCHAR 0038
ENCODING 56
SWIDTH 594 0
DWIDTH 33 0
BBX 30 41 5 -1
BITMAP
0000F800
0007FF80
001FFFC0
007FFFE0
00FF9FF0
01F801F8
03F000F8
03E000F8
07C0007C
07C0007C
0780007C
07800078
0F800078
078000F8
078000F0
07C001F0
07E007E0
03F00FC0
01FFFF80
00FFFE00
01FFFF00
07F03F80
0FC007C0
1F0003E0
3E0003E0
7C0001F0
7C0001F0
F80001F0
F80001F0
F80001F0
F80001F0
F80003E0
F80003E0
FC0007C0
FC001FC0
7F003F80
7FFFFF00
3FFFFE00
0FFFF800
03FFE000
00580000
ENDCHAR
STARTCHAR 0039
ENCODING 57
SWIDTH 576 0
DWIDTH 32 0
BBX 27 40 7 0
BITMAP
0003C000
003FFC00
00FFFE00
03FFFF80
07FC7F80
0FE00FC0
0F8007E0
1F0003E0
3E0003E0
3E0003E0
7C0001E0
7C0001E0
780001E0
780003E0
780003E0
F80003E0
F80007E0
7C0007C0
7C000FC0
7E001F80
7F003F80
3F80FF00
1FFFEF00
0FFFDE00
07FF3E00
00FC7C00
0000F800
0001F000
0001F000
0003E000
0007C000
000F8000
001F0000
003E0000
007E0000
007C0000
00F80000
01F00000
03E00000
07C00000
ENDCHAR
STARTCHAR 003A
ENCODING 58
SWIDTH 288 0
DWIDTH 16 0
BBX 7 29 4 0
BITMAP
3C
7E
7E
FE
7C
7C
00
00
00
00
00
00
00
00
00
00
00
00
00
00
00
00
00
3C
7E
7E
FE
7C
78
ENDCHAR
STARTCHAR 003B
ENCODING 59
SWIDTH 306 0
DWIDTH 17 0
BBX 11 38 5 -9
BITMAP
03C0
07C0
0FE0
0FE0
0FC0
0780
0000
0000
0000
0000
0000
0000
0000
0000
0000
0000
0000
0000
0000
0000
0000
0000
0000
1C00
7E00
7F00
FF00
FF00
7E00
0E00
0E00
0E00
0C00
1C00
3800
7000
E000
8000
ENDCHAR
STARTCHAR 003C
ENCODING 60
SWIDTH 558 0
DWIDTH 31 0
BBX 22 24 9 6
BITMAP
00001C
00007C
0001FC
0007F8
001FF0
007FC0
01FF00
07FC00
1FE000
7F8000
FE0000
F80000
FC0000
FE0000
7F8000
1FE000
07F800
03FE00
00FF00
003FC0
001FE0
0007C0
0001C0
0000C0
ENDCHAR
STARTCHAR 003D
ENCODING 61
SWIDTH 702 0
DWIDTH 39 0
BBX 29 17 8 9
BITMAP
1FFFFFF8
1FFFFFF8
1FFFFFF8
3FFFFFF8
3FFFFFF0
00000000
00000000
00000000
00000000
00000000
00000000
00000000
00000000
7FFFFFE0
7FFFFFE0
FFFFFFE0
FFFFFFC0
ENDCHAR
STARTCHAR 003E
ENCODING 62
SWIDTH 558 0
DWIDTH 31 0
BBX 22 24 7 6
BITMAP
0C0000
1F0000
1F8000
1FE000
0FF800
03FC00
00FF00
003FC0
001FE0
0007F8
0001FC
00007C
0000FC
0003FC
000FF0
007FC0
01FF00
07FC00
1FF000
7FC000
FF0000
FC0000
E00000
800000
ENDCHAR
STARTCHAR 003F
ENCODING 63
SWIDTH 576 0
DWIDTH 32 0
BBX 26 41 8 -1
BITMAP
000FC000
00FFF800
03FFFE00
07FFFF00
0FFFFF00
1FC03F80
3F001F80
3E000FC0
7C0007C0
7C0007C0
780007C0
F80007C0
F8000780
00000F80
00000F80
00001F00
00003F00
00007E00
0000FC00
0001F800
0003F000
0007C000
001F8000
003F0000
007E0000
007C0000
00F80000
00F80000
00F00000
00F00000
00000000
00000000
00000000
00000000
00C00000
03E00000
07E00000
07E00000
07E00000
03C00000
01000000
ENDCHAR
STARTCHAR 0040
ENCODING 64
SWIDTH 1008 0
DWIDTH 56 0
BBX 50 48 6 -8
BITMAP
000007FFF00000
00003FFFFE0000
0000FFFFFF8000
0003FF01FFE000
0007F0000FF000
001FC00003F800
003F000000FC00
007C0000007C00
00F80000003E00
01F00000001F00
03E00000000F00
07C00000000F00
078003E0000780
0F001FF1E00780
0F003FF9E00780
1E007FFFC00780
1E00F80FC003C0
3C01F00FC003C0
3C03E007C003C0
7803C007C003C0
7803C007C00380
78078007800380
78078007800780
F0078007800780
F0078007800780
F0078007800700
F00F800F800F00
F007800F800E00
F007801F801E00
F007801F803C00
F007C077C07800
F003F0F3C0F000
F003FFE3FFE000
F801FFC1FFC000
7800FF007F0000
78000000000000
7C000000000000
3E000000000000
3E000000000000
1F000000000000
1F800000000000
0FE00000000000
07F00000000000
03FE0000000000
00FFFFFFF80000
007FFFFFF80000
001FFFFFF80000
0003FFFFF00000
ENDCHAR
STARTCHAR 0041
ENCODING 65
SWIDTH 666 0
DWIDTH 37 0
BBX 34 39 2 0
BITMAP
000007C000
00000FC000
00000FC000
00001FC000
00001FE000
00003FE000
00003DE000
00007DE000
000079F000
0000F9F000
0000F1F000
0001F0F000
0003E0F000
0003E0F800
0007C0F800
000780F800
000F807800
000F007800
001F007C00
001E007C00
003E007C00
003C003C00
007C003C00
00F8003E00
00FFFFFE00
01FFFFFE00
01FFFFFE00
03FFFFFE00
03E0001F00
07C0001F00
0780001F00
0F80000F00
0F00000F80
1F00000F80
3E00000F80
3E00000F80
7C00000780
7C000007C0
F8000007C0
ENDCHAR
STARTCHAR 0042
ENCODING 66
SWIDTH 612 0
DWIDTH 34 0
BBX 32 39 4 0
BITMAP
01FFFFC0
01FFFFF0
03FFFFFC
03FFFFFC
03E001FE
03E0007E
03C0003F
03C0001F
07C0001F
07C0001F
07C0001F
07C0001E
0780003E
0F80003C
0F80007C
0F8000F8
0F8003F0
0FFFFFC0
0FFFFF00
1FFFFFC0
1FFFFFF0
1F0003F8
1F0000FC
1E00007C
1E00003C
3E00003C
3E00003E
3E00003C
3E00003C
3C00007C
3C00007C
7C0000F8
7C0001F8
7C0003F0
7C001FE0
7FFFFFC0
7FFFFF80
FFFFFE00
FFFFF800
ENDCHAR
STARTCHAR 0043
ENCODING 67
SWIDTH 702 0
DWIDTH 39 0
BBX 36 40 6 0
BITMAP
00003F0000
0003FFF000
000FFFFC00
001FFFFE00
007FFFFF00
00FF007F80
01FC001FC0
03F0000FC0
07E00007C0
07C00003E0
0F800003E0
1F800003E0
1F000001E0
3E000001F0
3E00000000
7E00000000
7C00000000
7C00000000
7C00000000
F800000000
F800000000
F800000000
F800000000
F800000000
F800000000
F800000000
F800000000
F800000000
F800000F80
FC00001F00
7C00003E00
7E00007E00
7E0000FC00
3F0001F800
3F8007F000
1FF01FE000
0FFFFFC000
07FFFF8000
03FFFE0000
007FF00000
ENDCHAR
STARTCHAR 0044
ENCODING 68
SWIDTH 684 0
DWIDTH 38 0
BBX 35 39 4 0
BITMAP
01FFFF8000
01FFFFF000
03FFFFFC00
03FFFFFE00
03E00FFF00
03E0007F80
03C0001FC0
03C0000FC0
07C00007C0
07C00007E0
07C00003E0
07C00003E0
07800003E0
0F800003E0
0F800003E0
0F800003E0
0F800003E0
0F000003E0
0F000003E0
1F000003E0
1F000003E0
1F000003E0
1F000007C0
1E000007C0
1E000007C0
3E00000F80
3E00000F80
3E00001F80
3E00003F00
3C00003E00
3C00007E00
7C0001FC00
7C0003F800
7C000FF000
7C01FFE000
7FFFFFC000
7FFFFF0000
FFFFFC0000
FFFFE00000
ENDCHAR
STARTCHAR 0045
ENCODING 69
SWIDTH 558 0
DWIDTH 31 0
BBX 31 39 4 0
BITMAP
01FFFFFE
01FFFFFE
03FFFFFC
03FFFFFC
03E00000
03E00000
03E00000
03C00000
07C00000
07C00000
07C00000
07C00000
07C00000
0F800000
0F800000
0F800000
0F800000
0FFFFF80
0FFFFF80
1FFFFF80
1FFFFF80
1F000000
1F000000
1F000000
1E000000
3E000000
3E000000
3E000000
3E000000
3E000000
3C000000
7C000000
7C000000
7C000000
7C000000
7FFFFF80
7FFFFF80
FFFFFF00
FFFFFF00
ENDCHAR
STARTCHAR 0046
ENCODING 70
SWIDTH 504 0
DWIDTH 28 0
BBX 30 39 4 0
BITMAP
01FFFFFC
01FFFFFC
03FFFFFC
03FFFFF8
03E00000
03E00000
03E00000
03C00000
07C00000
07C00000
07C00000
07C00000
07C00000
0F800000
0F800000
0F800000
0F800000
0FFFFF80
0FFFFF80
1FFFFF80
1FFFFF00
1F000000
1F000000
1F000000
1F000000
3E000000
3E000000
3E000000
3E000000
3E000000
3C000000
7C000000
7C000000
7C000000
7C000000
7C000000
78000000
F8000000
F8000000
ENDCHAR
STARTCHAR 0047
ENCODING 71
SWIDTH 702 0
DWIDTH 39 0
BBX 35 40 6 0
BITMAP
00003F0000
0003FFF000
000FFFF800
003FFFFE00
007FFFFF00
00FF007F00
01FC001F80
03F0000FC0
07E0000FC0
0FC00007C0
0F800007E0
1F800003E0
1F000003E0
3E00000000
3E00000000
7C00000000
7C00000000
7C00000000
7C00000000
F800000000
F8003FFFC0
F8003FFF80
F8003FFF80
F8003FFF80
F800000F80
F800000F80
F800000F80
F800000F00
F800001F00
F800001F00
7C00003F00
7C00007F00
7E00007F00
3F0001FE00
3F8003FE00
1FC00FDE00
0FFFFF9E00
07FFFE1E00
03FFFC1E00
00FFF01C00
ENDCHAR
STARTCHAR 0048
ENCODING 72
SWIDTH 666 0
DWIDTH 37 0
BBX 36 39 4 0
BITMAP
01F00001F0
01E00001F0
03E00001F0
03E00001F0
03E00001E0
03E00003E0
03C00003E0
03C00003E0
07C00003E0
07C00003E0
07C00003C0
07C00007C0
07800007C0
0F800007C0
0F800007C0
0F800007C0
0F80000780
0FFFFFFF80
0FFFFFFF80
1FFFFFFF80
1FFFFFFF80
1F00000F80
1F00000F00
1F00001F00
1E00001F00
3E00001F00
3E00001F00
3E00001F00
3E00003E00
3E00003E00
3C00003E00
7C00003E00
7C00003E00
7C00003E00
7C00007C00
7C00007C00
7800007C00
F800007C00
F800007C00
ENDCHAR
STARTCHAR 0049
ENCODING 73
SWIDTH 234 0
DWIDTH 13 0
BBX 12 39 4 0
BITMAP
01F0
01F0
01E0
03E0
03E0
03E0
03E0
03E0
03C0
07C0
07C0
07C0
07C0
07C0
0F80
0F80
0F80
0F80
0F80
0F80
1F00
1F00
1F00
1F00
1F00
1E00
3E00
3E00
3E00
3E00
3E00
3C00
7C00
7C00
7C00
7C00
7C00
7800
F800
ENDCHAR
STARTCHAR 004A
ENCODING 74
SWIDTH 342 0
DWIDTH 19 0
BBX 18 39 3 0
BITMAP
0007C0
0007C0
0007C0
0007C0
000780
000F80
000F80
000F80
000F80
000F80
000F00
001F00
001F00
001F00
001F00
001F00
001E00
003E00
003E00
003E00
003E00
003C00
003C00
007C00
007C00
007C00
007C00
007800
007800
00F800
00F800
00F800
00F800
01F000
03F000
FFE000
FFE000
FFC000
FF0000
ENDCHAR
STARTCHAR 004B
ENCODING 75
SWIDTH 612 0
DWIDTH 34 0
BBX 33 39 4 0
BITMAP
01E0001F80
03E0003F00
03E0007C00
03E000F800
03E003F000
03E007E000
03C00FC000
07C01F8000
07C03F0000
07C07E0000
07C0FC0000
07C1F80000
0783F00000
0F87C00000
0F8F800000
0F9F000000
0FBE000000
0FFE000000
0FFF000000
1FFF000000
1FFF800000
1FCFC00000
1F87C00000
1F07E00000
1E03E00000
3E03F00000
3E01F00000
3E01F80000
3E00FC0000
3C007C0000
7C007E0000
7C003E0000
7C003F0000
7C001F0000
7C001F8000
78000FC000
F80007C000
F80007E000
F80003E000
ENDCHAR
STARTCHAR 004C
ENCODING 76
SWIDTH 522 0
DWIDTH 29 0
BBX 24 39 4 0
BITMAP
01F000
01E000
03E000
03E000
03E000
03E000
03E000
03C000
07C000
07C000
07C000
07C000
07C000
0F8000
0F8000
0F8000
0F8000
0F8000
0F0000
1F0000
1F0000
1F0000
1F0000
1F0000
1E0000
3E0000
3E0000
3E0000
3E0000
3E0000
3C0000
7C0000
7C0000
7C0000
7C0000
7FFFFF
7FFFFF
FFFFFE
FFFFFE
ENDCHAR
STARTCHAR 004D
ENCODING 77
SWIDTH 810 0
DWIDTH 45 0
BBX 44 39 4 0
BITMAP
01FC000007F0
01FC00000FF0
03FC00000FF0
03FE00001FF0
03FE00001FE0
03FE00003FE0
03FE00003FE0
03FE00007FE0
07DF0000FBE0
07DF0000FBE0
07DF0001F3C0
07DF0001F3C0
078F8003E7C0
0F8F8003E7C0
0F8F8007C7C0
0F8F800FC7C0
0F8F800F8780
0F87C01F0780
0F07C01F0F80
1F07C03E0F80
1F07C03E0F80
1F07C07C0F80
1F03E07C0F00
1F03E0F81F00
1E03E1F81F00
3E03E1F01F00
3E03F3E01F00
3E01F3E01F00
3E01F7C01E00
3E01F7C03E00
3C01FF803E00
7C00FF803E00
7C00FF003E00
7C00FF003E00
7C00FE003C00
7C00FE007C00
78007C007C00
F80078007C00
F80078007C00
ENDCHAR
STARTCHAR 004E
ENCODING 78
SWIDTH 702 0
DWIDTH 39 0
BBX 38 39 4 0
BITMAP
01F000007C
01F800007C
03F800007C
03FC000078
03FC0000F8
03FE0000F8
03FE0000F8
03FF0000F8
07DF0000F8
07DF8000F0
07CF8001F0
07CFC001F0
0787C001F0
0F87E001F0
0F83E001F0
0F83F001E0
0F81F003E0
0F81F803E0
0F00F803E0
1F00FC03E0
1F007C03E0
1F007E03C0
1F003E07C0
1F003F07C0
1E001F07C0
3E001F87C0
3E000F8780
3E000FCF80
3E0007CF80
3E0007EF80
3C0003EF80
7C0003FF80
7C0001FF00
7C0001FF00
7C0000FF00
7C0000FF00
7800007F00
F800007F00
F800003E00
ENDCHAR
STARTCHAR 004F
ENCODING 79
SWIDTH 720 0
DWIDTH 40 0
BBX 36 40 6 0
BITMAP
00003F0000
0003FFF000
000FFFFC00
003FFFFE00
007FFFFF00
00FF007F80
01FC001F80
03F0000FC0
07E0000FC0
0FC00007E0
0F800003E0
1F800003E0
1F000003E0
3E000003F0
3E000003F0
7E000001F0
7C000001F0
7C000001F0
FC000003F0
F8000003E0
F8000003E0
F8000003E0
F8000003E0
F8000007E0
F8000007C0
F8000007C0
F800000FC0
F800000F80
F800001F80
FC00001F00
FC00003F00
7E00007E00
7E0000FC00
3F0001F800
3F8007F000
1FF03FE000
0FFFFFC000
07FFFF8000
03FFFE0000
00FFF00000
ENDCHAR
STARTCHAR 0050
ENCODING 80
SWIDTH 576 0
DWIDTH 32 0
BBX 32 39 4 0
BITMAP
01FFFF00
01FFFFE0
03FFFFF0
03FFFFF8
03E01FFC
03E000FC
03C0007E
03C0003E
07C0003E
07C0001E
07C0001F
07C0001E
0780001E
0F80001E
0F80003E
0F80003E
0F80007C
0F80007C
0F0000F8
1F0001F8
1F0007F0
1FFFFFE0
1FFFFFC0
1FFFFF00
1FFFFC00
3FFF0000
3E000000
3E000000
3E000000
3C000000
3C000000
7C000000
7C000000
7C000000
7C000000
78000000
78000000
F8000000
F8000000
ENDCHAR
STARTCHAR 0051
ENCODING 81
SWIDTH 720 0
DWIDTH 40 0
BBX 36 43 6 -3
BITMAP
00003F0000
0003FFF000
000FFFFC00
003FFFFE00
007FFFFF00
00FF007F80
01FC001F80
03F0000FC0
07E0000FC0
0FC00007E0
0F800003E0
1F800003E0
1F000003E0
3E000003F0
3E000003F0
7E000001F0
7C000001F0
7C000001F0
FC000003F0
F8000003E0
F8000003E0
F8000003E0
F8000003E0
F8000007E0
F8000007C0
F801E007C0
F801F00FC0
F800F80F80
F800781F80
FC007C1F00
FC003E3F00
7E001E7E00
7E001FFC00
3F000FF800
3F800FF000
1FF03FE000
0FFFFFC000
07FFFFE000
03FFFFE000
00FFF1F000
000000F800
0000007800
0000007C00
ENDCHAR
STARTCHAR 0052
ENCODING 82
SWIDTH 594 0
DWIDTH 33 0
BBX 32 39 4 0
BITMAP
01FFFF00
01FFFFE0
03FFFFF0
03FFFFF8
03E01FFC
03E000FE
03C0003E
03C0003E
07C0001F
07C0001F
07C0001F
07C0001F
0780001E
0F80003E
0F80003E
0F80007C
0F8000FC
0F8001F8
0F0007F0
1FFFFFE0
1FFFFFC0
1FFFFF80
1FFFFC00
1FFFF000
1E01F000
3E00F800
3E00F800
3E00FC00
3E007C00
3E007E00
3C003E00
7C003F00
7C001F00
7C001F80
7C000F80
7C000FC0
780007C0
F80007C0
F80003E0
ENDCHAR
STARTCHAR 0053
ENCODING 83
SWIDTH 594 0
DWIDTH 33 0
BBX 30 40 5 0
BITMAP
0001F800
000FFF00
003FFFC0
00FFFFE0
01FFFFF0
03F803F8
03F001F8
07C000FC
07C000FC
0F8000FC
0F80007C
0F80007C
0F800000
0F800000
0F800000
0FC00000
0FE00000
07FC0000
03FFE000
01FFFC00
00FFFF00
001FFF80
0000FFC0
00000FE0
000007E0
000003E0
000003F0
F80003F0
F80003F0
F80003E0
F80003E0
FC0003E0
FC0007C0
FE000FC0
7E001F80
7F80FF00
3FFFFE00
1FFFFC00
0FFFF000
03FFC000
ENDCHAR
STARTCHAR 0054
ENCODING 84
SWIDTH 576 0
DWIDTH 32 0
BBX 28 39 9 0
BITMAP
FFFFFFF0
FFFFFFF0
FFFFFFE0
FFFFFFE0
001F0000
001E0000
003E0000
003E0000
003E0000
003E0000
003E0000
003C0000
007C0000
007C0000
007C0000
007C0000
007C0000
00780000
00F80000
00F80000
00F80000
00F80000
00F80000
00F00000
01F00000
01F00000
01F00000
01F00000
01F00000
01E00000
03E00000
03E00000
03E00000
03E00000
03C00000
03C00000
07C00000
07C00000
07C00000
ENDCHAR
STARTCHAR 0055
ENCODING 85
SWIDTH 684 0
DWIDTH 38 0
BBX 35 40 6 -1
BITMAP
0F800003E0
0F800003E0
0F800003E0
0F000003C0
0F000003C0
1F000007C0
1F000007C0
1F000007C0
1F000007C0
1E00000780
3E00000F80
3E00000F80
3E00000F80
3E00000F80
3E00000F80
3C00000F00
7C00001F00
7C00001F00
7C00001F00
7C00001F00
7C00001F00
7800001E00
F800003E00
F800003E00
F800003E00
F800003C00
F800007C00
F800007C00
F80000F800
F80000F800
FC0001F000
7C0003F000
7E0007E000
7F000FC000
3FC07FC000
1FFFFF0000
0FFFFE0000
07FFFC0000
01FFE00000
0008000000
ENDCHAR
STARTCHAR 0056
ENCODING 86
SWIDTH 630 0
DWIDTH 35 0
BBX 34 39 7 0
BITMAP
F8000007C0
7C00000F80
7C00000F80
7C00001F00
7C00001F00
7C00003E00
3C00003E00
3E00007C00
3E00007C00
3E0000F800
3E0000F800
3E0001F000
1E0001F000
1F0003E000
1F0003E000
1F0007C000
1F0007C000
1F000F8000
0F000F8000
0F801F0000
0F801F0000
0F803E0000
0F803C0000
07807C0000
07C0780000
07C0F80000
07C0F00000
07C1F00000
07C3E00000
03C3E00000
03E7C00000
03E7C00000
03EF800000
03EF800000
03FF000000
01FF000000
01FE000000
01FE000000
01FC000000
ENDCHAR
STARTCHAR 0057
ENCODING 87
SWIDTH 990 0
DWIDTH 55 0
BBX 54 39 7 0
BITMAP
F800007800007C
780000FC000078
780000FC0000F8
7C0001FC0000F0
7C0001FC0001F0
7C0003FC0001F0
7C0003FC0003E0
7C0007FE0003E0
7C0007FE0003C0
7C000FBE0007C0
7C000FBE000780
3C001F3E000F80
3C001F1E000F80
3C003E1E001F00
3C003E1F001F00
3E007C1F003E00
3E007C1F003E00
3E00F81F003C00
3E00F81F007C00
3E01F00F007800
3E01F00F80F800
1E03E00F80F800
1E03E00F81F000
1E07C00F81F000
1E07C00F81E000
1E0F800783E000
1F0F800783C000
1F1F0007C7C000
1F1F0007C7C000
1F3E0007CF8000
1F3E0007CF8000
1F7C0007CF0000
0F7C0003DF0000
0FF80003FE0000
0FF80003FE0000
0FF00003FC0000
0FF00003FC0000
0FE00003FC0000
0FE00003F80000
ENDCHAR
STARTCHAR 0058
ENCODING 88
SWIDTH 648 0
DWIDTH 36 0
BBX 38 39 3 0
BITMAP
03E00000FC
01F00000F8
01F00001F0
00F80003E0
00F80007C0
007C000FC0
007C001F80
003E001F00
003E003E00
001F007C00
001F00F800
000F81F800
000F83F000
0007C3E000
0007C7C000
0003EF8000
0003FF0000
0003FF0000
0001FE0000
0001FC0000
0001FC0000
0003FE0000
0007FE0000
000F9F0000
001F9F0000
001F0F8000
003E0F8000
007C0FC000
00F807C000
01F807E000
03F003E000
07E003F000
07C001F000
0F8001F800
1F0000F800
3F0000FC00
7E00007C00
FC00007E00
F800003E00
ENDCHAR
STARTCHAR 0059
ENCODING 89
SWIDTH 612 0
DWIDTH 34 0
BBX 29 39 9 0
BITMAP
F80000F8
F80001F8
FC0001F0
7C0003E0
7C0007E0
7C0007C0
3E000F80
3E001F80
3E001F00
1F003E00
1F007E00
1F007C00
0F80F800
0F81F800
0F81F000
07C3E000
07C7E000
07C7C000
03EF8000
03FF0000
03FF0000
01FE0000
01FC0000
01FC0000
00F80000
00F80000
00F80000
00F00000
01F00000
01F00000
01F00000
01F00000
01F00000
03E00000
03E00000
03E00000
03E00000
03E00000
03C00000
ENDCHAR
STARTCHAR 005A
ENCODING 90
SWIDTH 612 0
DWIDTH 34 0
BBX 34 39 3 0
BITMAP
03FFFFFFC0
03FFFFFFC0
03FFFFFFC0
03FFFFFF80
03FFFFFF80
0000001F00
0000003F00
0000007E00
000000FC00
000001F800
000003F000
000007E000
00000FC000
00000F8000
00001F0000
00003E0000
00007E0000
0000FC0000
0001F80000
0003F00000
0007E00000
000FC00000
001F800000
001F000000
003E000000
007C000000
00FC000000
01F8000000
03F0000000
07E0000000
0FC0000000
1F80000000
3F00000000
3E00000000
7C00000000
FFFFFFF000
FFFFFFF000
FFFFFFF000
FFFFFFE000
ENDCHAR
STARTCHAR 005B
ENCODING 91
SWIDTH 432 0
DWIDTH 24 0
BBX 25 55 3 -10
BITMAP
007FFF80
007FFF80
007FFF80
00780000
00780000
00F00000
00F00000
00F00000
00F00000
00F00000
00E00000
01E00000
01E00000
01E00000
01E00000
01E00000
01C00000
03C00000
03C00000
03C00000
03C00000
03C00000
07800000
07800000
07800000
07800000
07800000
07800000
0F000000
0F000000
0F000000
0F000000
0F000000
0E000000
1E000000
1E000000
1E000000
1E000000
1E000000
3C000000
3C000000
3C000000
3C000000
3C000000
3C000000
78000000
78000000
78000000
78000000
78000000
70000000
FFFF0000
FFFF0000
FFFF0000
FFFF0000
ENDCHAR
STARTCHAR 005C
ENCODING 92
SWIDTH 504 0
DWIDTH 28 0
BBX 19 54 6 -9
BITMAP
F80000
F80000
780000
780000
7C0000
7C0000
3C0000
3C0000
3E0000
3E0000
1E0000
1F0000
1F0000
1F0000
0F0000
0F8000
0F8000
078000
078000
07C000
07C000
03C000
03C000
03E000
03E000
01E000
01F000
01F000
01F000
00F000
00F800
00F800
00F800
007800
007C00
007C00
003C00
003C00
003E00
003E00
001E00
001E00
001F00
001F00
000F00
000F80
000F80
000F80
000780
0007C0
0007C0
0007C0
0003C0
0003E0
ENDCHAR
STARTCHAR 005D
ENCODING 93
SWIDTH 432 0
DWIDTH 24 0
BBX 26 55 2 -10
BITMAP
003FFFC0
003FFF80
003FFF80
00000780
00000780
00000780
00000780
00000F00
00000F00
00000F00
00000F00
00000F00
00000F00
00001E00
00001E00
00001E00
00001E00
00001E00
00001C00
00003C00
00003C00
00003C00
00003C00
00003C00
00007800
00007800
00007800
00007800
00007800
00007800
0000F000
0000F000
0000F000
0000F000
0000F000
0000E000
0001E000
0001E000
0001E000
0001E000
0001E000
0003C000
0003C000
0003C000
0003C000
0003C000
0003C000
00078000
00078000
00078000
00078000
7FFF8000
7FFF0000
7FFF0000
FFFF0000
ENDCHAR
STARTCHAR 005E
ENCODING 94
SWIDTH 414 0
DWIDTH 23 0
BBX 20 10 7 32
BITMAP
007E00
00FE00
01FF00
03CF00
07CF80
0F8780
1F07C0
3E03E0
7C03E0
F801F0
ENDCHAR
STARTCHAR 005F
ENCODING 95
SWIDTH 702 0
DWIDTH 39 0
BBX 28 4 6 0
BITMAP
7FFFFFF0
7FFFFFE0
FFFFFFE0
FFFFFFE0
ENDCHAR
STARTCHAR 0060
ENCODING 96
SWIDTH 234 0
DWIDTH 13 0
BBX 9 10 9 35
BITMAP
F800
7C00
7C00
3C00
3E00
1E00
1F00
0F00
0F00
0780
ENDCHAR
STARTCHAR 0061
ENCODING 97
SWIDTH 594 0
DWIDTH 33 0
BBX 31 30 4 0
BITMAP
000FE000
003FF83E
00FFFC3C
01FFFE7C
03FC1F7C
07E0077C
0FC003FC
1F8001FC
1F0001F8
3F0001F8
3E0001F8
3E0000F8
7C0000F8
7C0001F8
7C0001F0
7C0001F0
F80001F0
F80001F0
F80003F0
F80003F0
FC0007E0
FC0007E0
7C000FE0
7E001FE0
7F003BE0
3F80F3E0
3FFFE3C0
1FFFC7C0
0FFF87C0
03FE07C0
ENDCHAR
STARTCHAR 0062
ENCODING 98
SWIDTH 612 0
DWIDTH 34 0
BBX 31 42 4 0
BITMAP
01F00000
01F00000
01F00000
01E00000
03E00000
03E00000
03E00000
03E00000
03E00000
03C00000
07C00000
07C00000
07C0FF00
07C3FFC0
07C7FFE0
078FFFF0
0F9F07F8
0FB801F8
0FF000FC
0FE0007C
0FC0007C
0FC0007C
1F80007C
1F80003E
1F00003C
1F00007C
1F00007C
1F00007C
3E00007C
3E00007C
3E0000F8
3E0000F8
3F0001F8
3F0001F0
7F0003F0
7F8007E0
7DC00FC0
7DE03FC0
7CFFFF80
78FFFE00
F87FFC00
F81FF000
ENDCHAR
STARTCHAR 0063
ENCODING 99
SWIDTH 558 0
DWIDTH 31 0
BBX 28 30 4 0
BITMAP
0007F800
003FFE00
00FFFF80
01FFFFC0
03F81FC0
07E007E0
0FC003E0
0F8001F0
1F0001F0
3F0001F0
3E0001F0
3E000000
7C000000
7C000000
7C000000
78000000
F8000000
F8000000
F8000000
F80003E0
780007C0
7C0007C0
7C000F80
7E001F80
3E003F00
3F807E00
1FFFFC00
0FFFF800
07FFE000
01FF8000
ENDCHAR
STARTCHAR 0064
ENCODING 100
SWIDTH 594 0
DWIDTH 33 0
BBX 33 42 4 0
BITMAP
0000000F80
0000000F80
0000000F00
0000001F00
0000001F00
0000001F00
0000001F00
0000001F00
0000001E00
0000003E00
0000003E00
0000003E00
000FE03E00
003FF83E00
00FFFC3C00
01FFFE7C00
03FC1F7C00
07E0077C00
0FC003FC00
1F8003FC00
1F0001F800
3F0001F800
3E0001F800
3E0000F800
7C0000F800
7C0001F800
7C0001F000
7C0001F000
FC0001F000
F80001F000
F80003F000
F80003F000
FC0007E000
7C0007E000
7C000FE000
7E001FE000
7F003BE000
3F80F3E000
3FFFF3C000
1FFFC7C000
0FFF87C000
03FE07C000
ENDCHAR
STARTCHAR 0065
ENCODING 101
SWIDTH 558 0
DWIDTH 31 0
BBX 28 30 4 0
BITMAP
000FFE00
003FFF80
00FFFFC0
01FFFFE0
03F007E0
07C003E0
0F8001F0
1F0001F0
1F0001F0
3E0001F0
3E0003E0
7C0003E0
7C000FC0
7FFFFF80
7FFFFF00
7FFFFC00
78000000
F8000000
F8000000
78000000
78000000
7C0007C0
7C000F80
3E001F80
3F003F00
1F80FE00
1FFFFC00
0FFFF800
03FFE000
00FF8000
ENDCHAR
STARTCHAR 0066
ENCODING 102
SWIDTH 360 0
DWIDTH 20 0
BBX 27 55 -2 -14
BITMAP
00000FE0
00003FE0
00007FE0
0000FFE0
0001F800
0001F000
0001E000
0003E000
0003E000
0003E000
0003E000
0003E000
007FFF80
007FFF80
007FFF80
007FFF80
0007C000
00078000
000F8000
000F8000
000F8000
000F8000
000F8000
000F0000
001F0000
001F0000
001F0000
001F0000
001F0000
001E0000
003E0000
003E0000
003E0000
003E0000
003E0000
003C0000
007C0000
007C0000
007C0000
007C0000
007C0000
00F80000
00F80000
00F80000
00F80000
00F80000
00F00000
01F00000
01F00000
03F00000
07E00000
FFE00000
FFC00000
FF000000
38000000
ENDCHAR
STARTCHAR 0067
ENCODING 103
SWIDTH 594 0
DWIDTH 33 0
BBX 31 42 4 -12
BITMAP
001FE000
007FF83E
00FFFC3C
03FFFE7C
07F81F7C
07E0077C
0FC003FC
1F8001FC
1F0001F8
3F0001F8
3E0000F8
7E0000F8
7C0000F8
7C0000F8
7C0001F0
7C0001F0
FC0001F0
FC0001F0
FC0003F0
FC0003F0
7C0007E0
7C000FE0
7E001FE0
7F003BE0
3F807BE0
3FFFF3C0
1FFFE7C0
0FFF87C0
03FF07C0
002007C0
00000780
00000F80
00000F80
00001F00
00003F00
00007E00
0000FC00
03FFF800
03FFF000
03FFE000
03FF8000
00F80000
ENDCHAR
STARTCHAR 0068
ENCODING 104
SWIDTH 612 0
DWIDTH 34 0
BBX 29 42 4 0
BITMAP
01F00000
01F00000
01F00000
01F00000
01E00000
03E00000
03E00000
03E00000
03E00000
03E00000
07C00000
07C00000
07C0FF00
07C3FFC0
07C7FFE0
079FFFF0
0F9E1FF0
0FB803F8
0FE001F8
0FC000F8
0FC000F8
0F8000F8
1F8000F8
1F000078
1F0000F8
1F0000F8
1F0000F8
1E0000F8
3E0000F8
3E0000F0
3E0001F0
3E0001F0
3E0001F0
3C0001F0
7C0001E0
7C0001E0
7C0003E0
7C0003E0
7C0003E0
780003E0
F80003C0
F80003C0
ENDCHAR
STARTCHAR 0069
ENCODING 105
SWIDTH 234 0
DWIDTH 13 0
BBX 12 41 5 0
BITMAP
01C0
03E0
07F0
07E0
07E0
03C0
0000
0000
0000
0000
0000
0000
0F80
0F80
0F80
0F80
0F80
0F00
1F00
1F00
1F00
1F00
1E00
1E00
3E00
3E00
3E00
3E00
3C00
3C00
7C00
7C00
7C00
7C00
7800
F800
F800
F800
F800
F800
F000
ENDCHAR
STARTCHAR 006A
ENCODING 106
SWIDTH 252 0
DWIDTH 14 0
BBX 21 53 -4 -12
BITMAP
000070
0001F8
0001F8
0001F8
0001F0
0001E0
000000
000000
000000
000000
000000
0003E0
0003C0
0007C0
0007C0
0007C0
0007C0
0007C0
000780
000F80
000F80
000F80
000F80
000F80
000F00
001F00
001F00
001F00
001F00
001F00
001E00
003E00
003E00
003E00
003E00
003E00
003C00
007C00
007C00
007C00
007C00
007C00
007800
00F800
00F800
00F800
00F800
01F000
03F000
FFE000
FFE000
FFC000
FF0000
ENDCHAR
STARTCHAR 006B
ENCODING 107
SWIDTH 504 0
DWIDTH 28 0
BBX 26 42 4 0
BITMAP
01F00000
01F00000
01F00000
01F00000
01F00000
01E00000
03E00000
03E00000
03E00000
03E00000
03E00000
07C00000
07C00000
07C00FC0
07C01F80
07C03F00
07C07E00
0F80F800
0F81F000
0F87E000
0F8FC000
0F9F8000
0FBF0000
1F7E0000
1FF80000
1FF00000
1FF00000
1FF80000
1EFC0000
3E7C0000
3E3E0000
3E3F0000
3E1F0000
3E0F8000
3C0FC000
7C07C000
7C07E000
7C03F000
7C01F000
7C01F800
7800FC00
F8007C00
ENDCHAR
STARTCHAR 006C
ENCODING 108
SWIDTH 306 0
DWIDTH 17 0
BBX 11 42 5 0
BITMAP
03E0
03E0
03E0
03E0
03E0
03C0
07C0
07C0
07C0
07C0
07C0
0780
0F80
0F80
0F80
0F80
0F00
1F00
1F00
1F00
1F00
1F00
1E00
3E00
3E00
3E00
3E00
3E00
3C00
7C00
7C00
7C00
7C00
7C00
7800
F800
F800
FC00
FE00
7FE0
7FC0
3FC0
ENDCHAR
STARTCHAR 006D
ENCODING 109
SWIDTH 954 0
DWIDTH 53 0
BBX 49 30 4 0
BITMAP
0000FE000FF000
07C3FF803FF800
07C7FFC0FFFC00
079FFFE1FFFE00
079F3FE3F1FF00
0FB807F7807F00
0FE003F7001F00
0FC001FE001F80
0FC001FC000F80
0F8001F8000F80
1F0000F8000F80
1F0001F0000F80
1F0001F0000F00
1F0001F0001F00
1F0001F0001F00
1E0001F0001F00
3E0001F0001F00
3E0001E0001F00
3E0003E0001E00
3E0003E0003E00
3E0003E0003E00
3C0003E0003E00
7C0003C0003E00
7C0003C0003E00
7C0007C0003C00
7C0007C0007C00
7C0007C0007C00
780007C0007C00
F8000780007C00
F8000780007C00
ENDCHAR
STARTCHAR 006E
ENCODING 110
SWIDTH 612 0
DWIDTH 34 0
BBX 29 30 4 0
BITMAP
0000FF00
07C3FFC0
07C7FFE0
07DFFFF0
079E0FF0
0FB803F8
0FE001F8
0FC000F8
0FC000F8
0F8000F8
1F800078
1F000078
1F0000F8
1F0000F8
1F0000F8
1E0000F8
3E0000F8
3E0000F0
3E0001F0
3E0001F0
3E0001F0
3C0001F0
7C0001E0
7C0001E0
7C0003E0
7C0003E0
7C0003E0
780003E0
F80003C0
F80003C0
ENDCHAR
STARTCHAR 006F
ENCODING 111
SWIDTH 576 0
DWIDTH 32 0
BBX 28 30 4 0
BITMAP
0007F800
003FFE00
007FFF80
01FFFFC0
03F81FC0
07E007E0
0FC003E0
0F8003F0
1F0001F0
3E0001F0
3E0001F0
3C0000F0
7C0000F0
7C0001F0
7C0001F0
780001F0
F80001F0
F80001F0
F80003E0
F80003E0
F80007C0
7C0007C0
7C000F80
7E001F80
3F003F00
3F80FE00
1FFFFC00
0FFFF800
07FFE000
01FF8000
ENDCHAR
STARTCHAR 0070
ENCODING 112
SWIDTH 612 0
DWIDTH 34 0
BBX 33 41 2 -11
BITMAP
00003FC000
01F0FFF000
01F1FFF800
01E3FFFC00
03E7C1FE00
03EE007E00
03FC003F00
03F8001F00
03F0001F00
03F0001F00
07E0001F00
07E0000F80
07C0000F00
07C0001F00
07C0001F00
0780001F00
0F80001F00
0F80001F00
0F80003E00
0F80003E00
0F80007E00
0FC0007C00
1FC000FC00
1FE001F800
1FF003F000
1F780FF000
1F3FFFE000
1E3FFF8000
3E1FFF0000
3E07FC0000
3E00000000
3E00000000
3E00000000
7C00000000
7C00000000
7C00000000
7C00000000
7C00000000
7800000000
F800000000
F800000000
ENDCHAR
STARTCHAR 0071
ENCODING 113
SWIDTH 594 0
DWIDTH 33 0
BBX 31 41 4 -11
BITMAP
000FE000
003FF83E
00FFFC3C
01FFFE7C
03FC1F7C
07E0077C
0FC003FC
1F8003FC
1F0001F8
3F0001F8
3E0001F8
3E0000F8
7C0000F8
7C0001F8
7C0001F0
7C0001F0
FC0001F0
F80001F0
F80003F0
F80003F0
FC0007E0
7C0007E0
7C000FE0
7E001FE0
7F003BE0
3F80F3C0
3FFFF3C0
1FFFC7C0
0FFF87C0
03FE07C0
000007C0
00000780
00000F80
00000F80
00000F80
00000F80
00000F80
00000F00
00001F00
00001F00
00001F00
ENDCHAR
STARTCHAR 0072
ENCODING 114
SWIDTH 342 0
DWIDTH 19 0
BBX 20 29 4 0
BITMAP
07C7F0
078FF0
0F9FE0
0FBFE0
0FFC20
0FE000
0FC000
0F8000
1F8000
1F0000
1F0000
1F0000
1F0000
1E0000
3E0000
3E0000
3E0000
3E0000
3E0000
3C0000
7C0000
7C0000
7C0000
7C0000
7C0000
780000
F80000
F80000
F80000
ENDCHAR
STARTCHAR 0073
ENCODING 115
SWIDTH 486 0
DWIDTH 27 0
BBX 24 30 4 0
BITMAP
001FE0
00FFF8
01FFFC
03FFFE
07C03F
0F801F
0F001F
1F001F
1E001F
1E0000
1F0000
1F0000
1FE000
0FFF00
07FFE0
01FFF8
003FFC
0001FC
00007E
00003E
F8003E
F8003E
F8003C
F8007C
FC00FC
7E01F8
7FFFF0
3FFFE0
1FFF80
07FE00
ENDCHAR
STARTCHAR 0074
ENCODING 116
SWIDTH 396 0
DWIDTH 22 0
BBX 18 39 6 0
BITMAP
00F800
00F000
01F000
01F000
01F000
01F000
01F000
01E000
03E000
03E000
7FFFC0
FFFFC0
FFFFC0
FFFF80
07C000
07C000
07C000
07C000
07C000
078000
0F8000
0F8000
0F8000
0F8000
0F0000
1F0000
1F0000
1F0000
1F0000
1F0000
1E0000
3E0000
3E0000
3E0000
3E0000
3F8C00
3FF800
1FF800
0FF800
ENDCHAR
STARTCHAR 0075
ENCODING 117
SWIDTH 594 0
DWIDTH 33 0
BBX 28 30 6 -1
BITMAP
1F0000F0
1E0001F0
1E0001F0
3E0001F0
3E0001F0
3E0001F0
3E0001E0
3C0003E0
7C0003E0
7C0003E0
7C0003E0
7C0003C0
7C0007C0
780007C0
F80007C0
F80007C0
F80007C0
F8000780
F8000F80
F8000F80
F8001F80
F8001F80
FC003F80
FC006F00
7F01FF00
7FFFDF00
3FFF9F00
1FFE1F00
0FFC1F00
00800000
ENDCHAR
STARTCHAR 0076
ENCODING 118
SWIDTH 540 0
DWIDTH 30 0
BBX 27 29 7 0
BITMAP
F80003E0
F80007C0
F8000780
78000F80
78000F00
7C001F00
7C001E00
7C003E00
7C003C00
3C007C00
3E00F800
3E00F800
3E01F000
3E01F000
1E03E000
1E03E000
1F07C000
1F078000
1F0F8000
0F0F0000
0F1F0000
0F9E0000
0FBE0000
0FBC0000
07FC0000
07F80000
07F80000
07F00000
07F00000
ENDCHAR
STARTCHAR 0077
ENCODING 119
SWIDTH 810 0
DWIDTH 45 0
BBX 41 29 7 0
BITMAP
F0003E000780
F8003E000F80
F8007E000F00
F8007E001F00
F800FF001E00
F800FF001E00
7801FF003E00
7801FF003C00
7803EF007C00
7803CF007800
7807CF00F800
7C078F80F000
7C0F8F81F000
7C0F0F81E000
7C1F0781E000
3C1F0783E000
3C3E0783C000
3C3E0787C000
3C3C07C78000
3C7C07CF8000
3C7807CF0000
3EF807DF0000
3EF003DE0000
3FF003DE0000
3FE003FE0000
1FE003FC0000
1FC003FC0000
1FC003F80000
1F8003F80000
ENDCHAR
STARTCHAR 0078
ENCODING 120
SWIDTH 540 0
DWIDTH 30 0
BBX 30 29 2 0
BITMAP
07E0007C
03E000F8
03F001F0
01F003F0
01F003E0
00F807C0
00F80F80
007C1F00
007C3F00
003E3E00
003E7C00
001FF800
001FF000
000FE000
000FE000
001FE000
003FF000
007FF000
007CF800
00F8F800
01F0FC00
03E07C00
07E07E00
0FC03E00
0F803F00
1F001F00
3E001F80
7E000F80
FC000F80
ENDCHAR
STARTCHAR 0079
ENCODING 121
SWIDTH 486 0
DWIDTH 27 0
BBX 32 40 0 -11
BITMAP
03E0001F
03E0003E
03E0003E
03E0007C
03E0007C
01E000F8
01F000F8
01F001F0
01F001E0
00F003E0
00F007C0
00F807C0
00F80F80
00F80F00
00781F00
00781E00
007C3E00
007C3C00
003C7C00
003C7800
003CF000
003FF000
003FE000
001FE000
001FC000
001F8000
001F8000
001F0000
001F0000
003E0000
003E0000
007C0000
00780000
00F80000
01F00000
03F00000
DFE00000
FFC00000
FF800000
FE000000
ENDCHAR
STARTCHAR 007A
ENCODING 122
SWIDTH 486 0
DWIDTH 27 0
BBX 27 29 3 0
BITMAP
03FFFFE0
03FFFFE0
07FFFFE0
07FFFFE0
000007C0
00000F80
00001F00
00003E00
00007C00
0000F800
0001F000
0003E000
0007C000
000F8000
001F0000
003E0000
007C0000
00F80000
01F00000
03E00000
07C00000
0F800000
1F000000
3E000000
7C000000
FFFFFE00
FFFFFE00
FFFFFE00
FFFFFC00
ENDCHAR
STARTCHAR 007B
ENCODING 123
SWIDTH 450 0
DWIDTH 25 0
BBX 22 58 8 -12
BITMAP
0007FC
000FFC
001FFC
003E00
007C00
007800
007800
00F800
00F800
00F000
00F000
00F000
00F000
01F000
01F000
01E000
01E000
01E000
01E000
03E000
03E000
03C000
03C000
03C000
03C000
078000
078000
3F0000
FE0000
FE0000
0F0000
0F0000
0F0000
0F0000
0F0000
0F0000
0F0000
0F0000
1F0000
1E0000
1E0000
1E0000
1E0000
1E0000
3E0000
3C0000
3C0000
3C0000
3C0000
3C0000
7C0000
7C0000
7C0000
7C0000
3F0000
3FF800
1FF800
07F800
ENDCHAR
STARTCHAR 007C
ENCODING 124
SWIDTH 288 0
DWIDTH 16 0
BBX 15 66 4 -13
BITMAP
001E
001E
001E
003E
003C
003C
003C
003C
003C
0078
0078
0078
0078
0078
0078
00F0
00F0
00F0
00F0
00F0
00F0
01E0
01E0
01E0
01E0
01E0
01E0
03C0
03C0
03C0
03C0
03C0
03C0
0780
0780
0780
0780
0780
0F80
0F00
0F00
0F00
0F00
0F00
1F00
1E00
1E00
1E00
1E00
1E00
3E00
3C00
3C00
3C00
3C00
3C00
7800
7800
7800
7800
7800
7800
F000
F000
F000
F000
ENDCHAR
STARTCHAR 007D
ENCODING 125
SWIDTH 468 0
DWIDTH 26 0
BBX 22 58 5 -12
BITMAP
003FC0
007FF0
007FF0
0001F8
0000F8
000078
000078
0000F8
0000F0
0000F0
0000F0
0000F0
0000F0
0001F0
0001E0
0001E0
0001E0
0001E0
0003E0
0003C0
0003C0
0003C0
0003C0
0003C0
0003C0
0007C0
0003C0
0003F0
0001FC
0003F8
0007C0
000780
000F00
000F00
000F00
001F00
001F00
001E00
001E00
001E00
001E00
003E00
003C00
003C00
003C00
003C00
003C00
007C00
007800
007800
007800
007800
00F000
00F000
07E000
FFE000
FFC000
FF0000
ENDCHAR
STARTCHAR 007E
ENCODING 126
SWIDTH 558 0
DWIDTH 31 0
BBX 22 6 8 18
BITMAP
0FE01C
1FF838
3FFFF8
787FF0
701FE0
F00780
ENDCHAR
STARTCHAR 00A0
ENCODING 160
SWIDTH 216 0
DWIDTH 12 0
BBX 0 0 0 0
BITMAP
ENDCHAR
STARTCHAR 00A1
ENCODING 161
SWIDTH 252 0
DWIDTH 14 0
BBX 13 42 4 -14
BITMAP
00F0
01F8
01F8
01F8
01F0
00E0
0000
0000
0000
0000
03C0
03C0
0380
0380
0380
0780
0780
0780
0780
0F80
0F00
0F00
0F00
0F00
1F00
1F00
1F00
1E00
1E00
3E00
3E00
3E00
3E00
3E00
7E00
7C00
7C00
7C00
7C00
7C00
FC00
FC00
ENDCHAR
STARTCHAR 00A2
ENCODING 162
SWIDTH 594 0
DWIDTH 33 0
BBX 28 38 5 -4
BITMAP
0000C000
0000C000
0001C000
00018000
0007F800
003FFE00
00FFFF00
01FFFF80
03FB9FC0
07E307E0
0FC303E0
1F8303E0
1F0301F0
3E0301F0
3E0701F0
7C060000
7C060000
7C060000
78060000
F8060000
F80E0000
F80C0000
F80C0000
F80C03C0
F80C07C0
F80C0780
7C1C0F80
7C181F00
7E183F00
3F98FE00
1FFFFC00
1FFFF800
07FFE000
03FF8000
00300000
00300000
00300000
00300000
ENDCHAR
STARTCHAR 00A3
ENCODING 163
SWIDTH 594 0
DWIDTH 33 0
BBX 32 40 2 0
BITMAP
00001F00
0001FFF0
0007FFF8
001FFFFC
003FF7FE
007F007E
007E003F
00FC003F
00F8001F
01F8001F
01F0001F
01F0001F
01F0001F
01F00000
01F80000
01F80000
01F80000
00FC0000
00FC0000
007E0000
007E0000
003F0000
0FFFFF00
0FFFFF00
0FFFFF00
001F0000
001F0000
001F0000
001E0000
003E0000
003C0000
007C0000
00780000
00F00000
03E00000
0F800000
7FFFFFF8
7FFFFFF8
7FFFFFF8
FFFFFFF0
ENDCHAR
STARTCHAR 00A4
ENCODING 164
SWIDTH 576 0
DWIDTH 32 0
BBX 28 27 6 6
BITMAP
06000040
0E07C0E0
1F3FF9F0
0FFFFFE0
07FFFF80
03F07F00
07C01F80
0F800F80
1F000780
1E0003C0
3C0003C0
3C0003C0
3C0003C0
380003C0
38000780
78000780
3C000780
3C000F00
3C001E00
3E003E00
1F80FC00
3FFFFE00
7FFFFE00
FBFFDF00
E0FF0F00
C0000600
00000400
ENDCHAR
STARTCHAR 00A5
ENCODING 165
SWIDTH 612 0
DWIDTH 34 0
BBX 30 39 8 0
BITMAP
7C00007C
7C0000FC
7E0000F8
3E0001F0
3E0003F0
3E0003E0
1F0007C0
1F000FC0
1F000F80
0F801F00
0F803F00
0F803E00
07C07C00
07C0FC00
07C0F800
03E1F000
03E1F000
03E3E000
01F7C000
01F78000
01FF8000
00FF0000
00FE0000
7FFFFC00
7FFFFC00
7FFFFC00
007C0000
00780000
00F80000
FFFFF800
FFFFF800
FFFFF800
00F00000
00F00000
01F00000
01F00000
01F00000
01F00000
01E00000
ENDCHAR
STARTCHAR 00A6
ENCODING 166
SWIDTH 288 0
DWIDTH 16 0
BBX 15 66 4 -13
BITMAP
001E
001E
001E
003E
003C
003C
003C
003C
003C
0078
0078
0078
0078
0078
0078
00F0
00F0
00F0
00F0
00F0
00F0
01E0
01E0
01E0
01E0
01E0
01E0
03C0
03C0
03C0
0000
0000
0000
0000
0000
0000
0000
0000
0000
0F00
0F00
0F00
0F00
0F00
1F00
1E00
1E00
1E00
1E00
1E00
3E00
3C00
3C00
3C00
3C00
3C00
7800
7800
7800
7800
7800
7800
F000
F000
F000
F000
ENDCHAR
STARTCHAR 00A7
ENCODING 167
SWIDTH 540 0
DWIDTH 30 0
BBX 27 40 5 0
BITMAP
0003E000
001FFE00
007FFF00
00FFFF80
01F81FC0
03E00FC0
07C007C0
07C007E0
078003E0
07C00000
07C00000
07F00000
03FF8000
01FFF800
07FFFE00
0FFFFF00
1F007F80
3E001FC0
3C0007C0
7C0007C0
7C0007C0
7C0007C0
3E0007C0
3FC00F80
1FFE1F80
0FFFFE00
03FFFC00
007FF800
0001FC00
00007E00
00003E00
F8003E00
F8003E00
F8007C00
FC007C00
7E01F800
7FFFF800
3FFFF000
1FFFC000
07FF0000
ENDCHAR
STARTCHAR 00A8
ENCODING 168
SWIDTH 360 0
DWIDTH 20 0
BBX 17 6 8 35
BITMAP
380700
7C0F80
FE1F80
FC1F80
FC1F80
780F00
ENDCHAR
STARTCHAR 00A9
ENCODING 169
SWIDTH 810 0
DWIDTH 45 0
BBX 41 41 5 -1
BITMAP
000001E00000
00007FFF0000
0003FFFFC000
000FFFFFE000
001FC003F800
003E0000FC00
00FC00007C00
01F000003E00
03E000001E00
03C01FF00F00
0780FFF80F00
0F01FFFC0780
0E03E03E0780
1E07800F0780
1C0F000F0380
3C1E00070380
381C00078380
783C00000380
703800000380
703800000380
703800000380
703800000780
F07800000700
F03800080700
F038000E0F00
F038001E0E00
703C003C0E00
701E00781E00
781F01F03C00
780FFFE03800
3807FFC07800
3C01FF00F000
3E000001E000
1F000003C000
0F80000F8000
07C0003F0000
07F800FE0000
01FFFFF80000
00FFFFE00000
001FFF800000
0000F0000000
ENDCHAR
STARTCHAR 00AA
ENCODING 170
SWIDTH 144 0
DWIDTH 8 0
BBX 9 7 4 22
BITMAP
3F80
7780
6300
6300
E300
6700
7F00
ENDCHAR
STARTCHAR 00AB
ENCODING 171
SWIDTH 630 0
DWIDTH 35 0
BBX 33 23 5 6
BITMAP
000FC01F80
001F003E00
003E007C00
007C00F800
00F801F000
01F003E000
03E007C000
07C00F8000
1F803F0000
3E007C0000
7C00F80000
F801F00000
7C00F80000
3E007C0000
1F003E0000
1F003E0000
0F801F0000
07C00F8000
03E007C000
03F007C000
01F003E000
00F801F000
007C00F800
ENDCHAR
STARTCHAR 00AC
ENCODING 172
SWIDTH 648 0
DWIDTH 36 0
BBX 28 14 9 15
BITMAP
FFFFFFF0
FFFFFFF0
FFFFFFE0
FFFFFFE0
000001E0
000001E0
000001E0
000001E0
000001C0
000003C0
000003C0
000003C0
000003C0
000003C0
ENDCHAR
STARTCHAR 00AD
ENCODING 173
SWIDTH 594 0
DWIDTH 33 0
BBX 21 4 12 15
BITMAP
7FFFF8
FFFFF8
FFFFF0
FFFFF0
ENDCHAR
STARTCHAR 00AE
ENCODING 174
SWIDTH 324 0
DWIDTH 18 0
BBX 14 14 8 25
BITMAP
03E0
1FF0
3818
6008
67CC
C4CC
C4CC
CF8C
CD88
CD98
C8B0
6070
7FC0
1F80
ENDCHAR
STARTCHAR 00AF
ENCODING 175
SWIDTH 360 0
DWIDTH 20 0
BBX 17 2 8 36
BITMAP
FFFF80
FFFF80
ENDCHAR
STARTCHAR 00B0
ENCODING 176
SWIDTH 288 0
DWIDTH 16 0
BBX 11 11 10 37
BITMAP
0F80
3FC0
3DE0
70E0
E060
E0E0
E0E0
F1C0
7F80
3F00
0C00
ENDCHAR
STARTCHAR 00B1
ENCODING 177
SWIDTH 594 0
DWIDTH 33 0
BBX 26 30 6 0
BITMAP
0003C000
0003C000
0003C000
0007C000
00078000
00078000
00078000
00078000
0FFFFFC0
1FFFFF80
1FFFFF80
1FFFFF80
1FFFFF80
000F0000
001F0000
001F0000
001E0000
001E0000
001E0000
001E0000
003E0000
003E0000
00000000
00000000
00000000
00000000
00000000
FFFFFC00
FFFFFC00
FFFFFC00
ENDCHAR
STARTCHAR 00B2
ENCODING 178
SWIDTH 288 0
DWIDTH 16 0
BBX 16 21 5 21
BITMAP
01FC
03FE
07DF
0E07
1E07
1C07
1C07
0007
000E
001E
003C
0078
00F0
03C0
0780
0F00
3E00
7800
FFFC
FFFC
FFFC
ENDCHAR
STARTCHAR 00B3
ENCODING 179
SWIDTH 306 0
DWIDTH 17 0
BBX 16 21 6 21
BITMAP
03FC
07FE
0F1F
1C0F
3C07
0007
0007
000E
003C
03F8
03F0
007C
001C
001E
000E
E01E
E01C
F03C
7FF8
7FF0
1FC0
ENDCHAR
STARTCHAR 00B4
ENCODING 180
SWIDTH 234 0
DWIDTH 13 0
BBX 12 10 8 35
BITMAP
01F0
03E0
07C0
0780
0F00
1F00
3E00
3C00
7800
F000
ENDCHAR
STARTCHAR 00B5
ENCODING 181
SWIDTH 630 0
DWIDTH 35 0
BBX 32 41 2 -12
BITMAP
01E0003C
03E0007C
03E0007C
03E0007C
03E0007C
03E0007C
03C00078
07C000F8
07C000F8
07C000F8
07C000F8
07C000F8
078000F0
0F8001F0
0F8001F0
0F8001F0
0F8001F0
0F8001F0
0F0003E0
1F0003E0
1F0007E0
1F0007E0
1F800FE0
1F801FE0
1FC07BE0
3FFFF3F8
3FFFE3FF
3DFFC1FF
3CFF00FF
3C000000
7C000000
7C000000
7C000000
7C000000
7C000000
78000000
F8000000
F8000000
F8000000
F8000000
F8000000
ENDCHAR
STARTCHAR 00B6
ENCODING 182
SWIDTH 522 0
DWIDTH 29 0
BBX 26 39 6 0
BITMAP
007FFFC0
01FFFFC0
07FFFFC0
0FFFFFC0
1FFFC3C0
3FFFC380
7FFFC380
7FFFC380
7FFFC380
FFFFC380
FFFF8780
FFFF8700
FFFF8700
FFFF8700
FFFF8700
7FFF8700
7FFF0F00
3FFF0E00
1FFF0E00
07FF0E00
00070E00
000F0E00
000E1E00
000E1C00
000E1C00
000E1C00
001E1C00
001E1C00
001C3C00
001C3800
001C3800
001C3800
003C3800
003C3800
00387800
00387000
00387000
00387000
00787000
ENDCHAR
STARTCHAR 00B7
ENCODING 183
SWIDTH 270 0
DWIDTH 15 0
BBX 6 7 9 17
BITMAP
10
7C
FC
FC
FC
FC
70
ENDCHAR
STARTCHAR 00B8
ENCODING 184
SWIDTH 234 0
DWIDTH 13 0
BBX 11 14 0 -14
BITMAP
1C00
1C00
3800
3F00
7FC0
7FC0
00E0
00E0
00E0
01C0
03C0
FF80
FF00
7C00
ENDCHAR
STARTCHAR 00B9
ENCODING 185
SWIDTH 252 0
DWIDTH 14 0
BBX 12 21 5 21
BITMAP
01E0
03E0
07E0
1FC0
1DC0
19C0
11C0
01C0
01C0
0380
0380
0380
0380
0380
0380
0700
0700
0700
7FF0
FFF0
FFF0
ENDCHAR
STARTCHAR 00BA
ENCODING 186
SWIDTH 144 0
DWIDTH 8 0
BBX 8 8 5 21
BITMAP
08
3E
67
C3
C3
C6
EE
7C
ENDCHAR
STARTCHAR 00BB
ENCODING 187
SWIDTH 630 0
DWIDTH 35 0
BBX 32 23 4 6
BITMAP
0F801F00
0FC01F00
07C00F80
03E007C0
01F003E0
00F801F0
00F801F0
007C00F8
003E007C
001F003E
001F803F
000F801F
001F003E
003E007C
007C00F8
00F801F0
03F007E0
07C00F80
0F801F00
1F003E00
3E007C00
7C00F800
F801F000
ENDCHAR
STARTCHAR 00BC
ENCODING 188
SWIDTH 810 0
DWIDTH 45 0
BBX 38 39 6 0
BITMAP
03C0000078
07C00000F8
0FC00001F0
1FC00003E0
3FC00003C0
3B80000780
2380000F80
4380001F00
0380001E00
0780003C00
0780007C00
070000F800
070000F000
070001E000
070003E000
0F0007C000
FFE00F8000
FFE00F0000
FFE01E0000
FFE03E0000
00007C00FC
00007800F8
0000F001F8
0001F003B8
0003E00778
0003C00E78
0007800E78
000F001C70
001F003870
003E007070
003C00E0F0
007800C0F0
00F801FFFC
01F001FFFC
01E00000E0
03C00000E0
07C00001E0
0F800001E0
0F000001C0
ENDCHAR
STARTCHAR 00BD
ENCODING 189
SWIDTH 828 0
DWIDTH 46 0
BBX 41 39 6 0
BITMAP
03C000003C00
07C000007C00
0FC00000F800
1FC00000F000
3FC00001E000
3B800003E000
23800007C000
4380000F8000
0380000F0000
0780001E0000
0780003E0000
0700007C0000
070000780000
070000F00000
070001F00000
0F0003E00000
FFE003C00000
FFE007800000
FFE00F800000
FFE01F007C00
00003E01FE00
00003C03FF00
000078078F80
0000F80F0780
0001F00E0780
0001E00E0780
0003C0000700
0007C0000F00
000F80001E00
000F00003C00
001E00007800
003E0000F000
007C0003E000
00F800078000
00F0000F0000
01E0003E0000
03E0003FFE00
07C0003FFE00
0780007FFE00
ENDCHAR
STARTCHAR 00BE
ENCODING 190
SWIDTH 828 0
DWIDTH 46 0
BBX 40 39 6 0
BITMAP
01F800003E
07FE00003C
0FFE000078
1E0F0000F8
1C0F0001F0
000F0001E0
000E0003C0
001E0007C0
01FC000F80
01F8001F00
03F8001E00
003C003C00
001C007C00
001C00F800
001C00F000
F03C01E000
787C03E000
7FF807C000
3FF0078000
1FC00F0000
00001F003E
00003E003E
00007C007E
00007800FE
0000F001DE
0001F0039E
0003E0031C
0003C0071C
0007800E1C
000F801C3C
001F00383C
001E00303C
003C007FFF
007C007FFF
00F8000038
01F0000078
01E0000078
03C0000078
07C0000070
ENDCHAR
STARTCHAR 00BF
ENCODING 191
SWIDTH 522 0
DWIDTH 29 0
BBX 25 40 5 -13
BITMAP
0001F000
0001F000
0003F000
0003F000
0003E000
0000C000
00000000
00000000
00000000
00000000
0003C000
0007C000
0007C000
000F8000
000F8000
001F0000
007E0000
00FC0000
01F80000
03F00000
07C00000
1F800000
1F000000
3E000000
7C000000
7C000000
F8000000
F8000F80
F8000F80
F0000F80
F0000F00
F8001F00
F8003E00
FC007E00
FE01FC00
7FFFF800
3FFFF000
1FFFE000
0FFF8000
00F80000
ENDCHAR
STARTCHAR 00C0
ENCODING 192
SWIDTH 666 0
DWIDTH 37 0
BBX 34 53 2 0
BITMAP
00007C0000
00003E0000
00003E0000
00001E0000
00001F0000
00000F0000
00000F8000
0000078000
0000078000
000003C000
0000000000
0000000000
0000000000
0000000000
000007C000
00000FC000
00000FC000
00001FC000
00001FE000
00003FE000
00003DE000
00007DE000
000079F000
0000F9F000
0000F1F000
0001F0F000
0003E0F000
0003E0F800
0007C0F800
000780F800
000F807800
000F007800
001F007C00
001E007C00
003E007C00
003C003C00
007C003C00
00F8003E00
00FFFFFE00
01FFFFFE00
01FFFFFE00
03FFFFFE00
03E0001F00
07C0001F00
0780001F00
0F80000F00
0F00000F80
1F00000F80
3E00000F80
3E00000F80
7C00000780
7C000007C0
F8000007C0
ENDCHAR
STARTCHAR 00C1
ENCODING 193
SWIDTH 666 0
DWIDTH 37 0
BBX 34 53 2 0
BITMAP
00000007C0
00000007C0
0000000F80
0000001F00
0000003E00
0000003C00
0000007800
000000F000
000000F000
000001E000
0000000000
0000000000
0000000000
0000000000
000007C000
00000FC000
00000FC000
00001FC000
00001FE000
00003FE000
00003DE000
00007DE000
000079F000
0000F9F000
0000F1F000
0001F0F000
0003E0F000
0003E0F800
0007C0F800
000780F800
000F807800
000F007800
001F007C00
001E007C00
003E007C00
003C003C00
007C003C00
00F8003E00
00FFFFFE00
01FFFFFE00
01FFFFFE00
03FFFFFE00
03E0001F00
07C0001F00
0780001F00
0F80000F00
0F00000F80
1F00000F80
3E00000F80
3E00000F80
7C00000780
7C000007C0
F8000007C0
ENDCHAR
STARTCHAR 00C2
ENCODING 194
SWIDTH 666 0
DWIDTH 37 0
BBX 34 51 2 0
BITMAP
000001F000
000003F000
000007F800
00000FFC00
00001F3E00
00003E1E00
00007C1F00
0000F80F80
0001000000
0000000000
0000000000
0000000000
000007C000
00000FC000
00000FC000
00001FC000
00001FE000
00003FE000
00003DE000
00007DE000
000079F000
0000F9F000
0000F1F000
0001F0F000
0003E0F000
0003E0F800
0007C0F800
000780F800
000F807800
000F007800
001F007C00
001E007C00
003E007C00
003C003C00
007C003C00
00F8003E00
00FFFFFE00
01FFFFFE00
01FFFFFE00
03FFFFFE00
03E0001F00
07C0001F00
0780001F00
0F80000F00
0F00000F80
1F00000F80
3E00000F80
3E00000F80
7C00000780
7C000007C0
F8000007C0
ENDCHAR
STARTCHAR 00C3
ENCODING 195
SWIDTH 666 0
DWIDTH 37 0
BBX 34 50 2 0
BITMAP
00001F81C0
00003FE3C0
00007FFF80
0000F1FF00
0000E07E00
0000000000
0000000000
0000000000
0000000000
0000000000
0000000000
000007C000
00000FC000
00000FC000
00001FC000
00001FE000
00003FE000
00003DE000
00007DE000
000079F000
0000F9F000
0000F1F000
0001F0F000
0003E0F000
0003E0F800
0007C0F800
000780F800
000F807800
000F007800
001F007C00
001E007C00
003E007C00
003C003C00
007C003C00
00F8003E00
00FFFFFE00
01FFFFFE00
01FFFFFE00
03FFFFFE00
03E0001F00
07C0001F00
0780001F00
0F80000F00
0F00000F80
1F00000F80
3E00000F80
3E00000F80
7C00000780
7C000007C0
F8000007C0
ENDCHAR
STARTCHAR 00C4
ENCODING 196
SWIDTH 666 0
DWIDTH 37 0
BBX 34 51 2 0
BITMAP
0000000200
00003C0F80
00007E0FC0
0000FE1FC0
0000FC1F80
00007C0F80
0000300600
0000000000
0000000000
0000000000
0000000000
0000000000
000007C000
00000FC000
00000FC000
00001FC000
00001FE000
00003FE000
00003DE000
00007DE000
000079F000
0000F9F000
0000F1F000
0001F0F000
0003E0F000
0003E0F800
0007C0F800
000780F800
000F807800
000F007800
001F007C00
001E007C00
003E007C00
003C003C00
007C003C00
00F8003E00
00FFFFFE00
01FFFFFE00
01FFFFFE00
03FFFFFE00
03E0001F00
07C0001F00
0780001F00
0F80000F00
0F00000F80
1F00000F80
3E00000F80
3E00000F80
7C00000780
7C000007C0
F8000007C0
ENDCHAR
STARTCHAR 00C5
ENCODING 197
SWIDTH 666 0
DWIDTH 37 0
BBX 34 53 2 0
BITMAP
000001F800
000003F800
0000071C00
0000060C00
00000C0C00
00000E1C00
00000E3800
000007F000
000003E000
0000000000
0000000000
0000000000
0000000000
0000000000
000007C000
00000FC000
00000FC000
00001FC000
00001FE000
00003FE000
00003DE000
00007DE000
000079F000
0000F9F000
0000F1F000
0001F0F000
0003E0F000
0003E0F800
0007C0F800
000780F800
000F807800
000F007800
001F007C00
001E007C00
003E007C00
003C003C00
007C003C00
00F8003E00
00FFFFFE00
01FFFFFE00
01FFFFFE00
03FFFFFE00
03E0001F00
07C0001F00
0780001F00
0F80000F00
0F00000F80
1F00000F80
3E00000F80
3E00000F80
7C00000780
7C000007C0
F8000007C0
ENDCHAR
STARTCHAR 00C6
ENCODING 198
SWIDTH 954 0
DWIDTH 53 0
BBX 55 39 1 0
BITMAP
0000001FFFFFFE
0000001FFFFFFE
0000003FFFFFFE
0000007FFFFFFE
000000FDE00000
000000FBE00000
000001FBE00000
000003F3E00000
000003E3E00000
000007C3E00000
00000FC3C00000
00000F87C00000
00001F07C00000
00003F07C00000
00007E07C00000
00007C07C00000
0000F80F800000
0001F80FFFFFC0
0001F00FFFFFC0
0003E00FFFFFC0
0007E00FFFFF80
000FC00F800000
000F801F000000
001F001F000000
003FFFFF000000
003FFFFF000000
007FFFFF000000
00FFFFFE000000
00F8003E000000
01F0003E000000
03E0003E000000
07E0003E000000
07C0003E000000
0F80003C000000
1F80007C000000
1F00007FFFFF80
3E00007FFFFF80
7E00007FFFFF80
FC00007FFFFF80
ENDCHAR
STARTCHAR 00C7
ENCODING 199
SWIDTH 702 0
DWIDTH 39 0
BBX 36 54 6 -14
BITMAP
00003F0000
0003FFF000
000FFFFC00
001FFFFE00
007FFFFF00
00FF007F80
01FC001FC0
03F0000FC0
07E00007C0
07C00003E0
0F800003E0
1F800003E0
1F000001E0
3E000001F0
3E00000000
7E00000000
7C00000000
7C00000000
7C00000000
F800000000
F800000000
F800000000
F800000000
F800000000
F800000000
F800000000
F800000000
F800000000
F800000F80
FC00001F00
7C00003E00
7E00007E00
7E0000FC00
3F0001F800
3F8007F000
1FF01FE000
0FFFFFC000
07FFFF8000
01FFFE0000
007FF00000
0007000000
0007000000
000E000000
000FE00000
001FF00000
001FF80000
0000380000
0000380000
0000380000
0000700000
0000F00000
003FE00000
003FC00000
001E000000
ENDCHAR
STARTCHAR 00C8
ENCODING 200
SWIDTH 558 0
DWIDTH 31 0
BBX 31 53 4 0
BITMAP
000FC000
0007C000
0007C000
0003E000
0003E000
0001E000
0001F000
0000F000
0000F800
00007800
00000000
00000000
00000000
00000000
01FFFFFE
01FFFFFE
03FFFFFC
03FFFFFC
03E00000
03E00000
03E00000
03C00000
07C00000
07C00000
07C00000
07C00000
07C00000
0F800000
0F800000
0F800000
0F800000
0FFFFF80
0FFFFF80
1FFFFF80
1FFFFF80
1F000000
1F000000
1F000000
1E000000
3E000000
3E000000
3E000000
3E000000
3E000000
3C000000
7C000000
7C000000
7C000000
7C000000
7FFFFF80
7FFFFF80
FFFFFF00
FFFFFF00
ENDCHAR
STARTCHAR 00C9
ENCODING 201
SWIDTH 558 0
DWIDTH 31 0
BBX 31 53 4 0
BITMAP
0000007C
000000F8
000001F0
000003E0
000003C0
00000780
00000F80
00000F00
00001E00
00003C00
00000000
00000000
00000000
00000000
01FFFFFE
01FFFFFE
03FFFFFC
03FFFFFC
03E00000
03E00000
03E00000
03C00000
07C00000
07C00000
07C00000
07C00000
07C00000
0F800000
0F800000
0F800000
0F800000
0FFFFF80
0FFFFF80
1FFFFF80
1FFFFF80
1F000000
1F000000
1F000000
1E000000
3E000000
3E000000
3E000000
3E000000
3E000000
3C000000
7C000000
7C000000
7C000000
7C000000
7FFFFF80
7FFFFF80
FFFFFF00
FFFFFF00
ENDCHAR
STARTCHAR 00CA
ENCODING 202
SWIDTH 558 0
DWIDTH 31 0
BBX 31 51 4 0
BITMAP
00003E00
00007F00
0000FF00
0001FF80
0003E7C0
0007C3E0
000F81E0
001F01F0
00000000
00000000
00000000
00000000
01FFFFFE
01FFFFFE
03FFFFFC
03FFFFFC
03E00000
03E00000
03E00000
03C00000
07C00000
07C00000
07C00000
07C00000
07C00000
0F800000
0F800000
0F800000
0F800000
0FFFFF80
0FFFFF80
1FFFFF80
1FFFFF80
1F000000
1F000000
1F000000
1E000000
3E000000
3E000000
3E000000
3E000000
3E000000
3C000000
7C000000
7C000000
7C000000
7C000000
7FFFFF80
7FFFFF80
FFFFFF00
FFFFFF00
ENDCHAR
STARTCHAR 00CB
ENCODING 203
SWIDTH 558 0
DWIDTH 31 0
BBX 31 51 4 0
BITMAP
00010020
0007C0F0
000FC1F8
000FC1F8
000FC1F8
000F81F0
000600C0
00000000
00000000
00000000
00000000
00000000
01FFFFFE
01FFFFFE
03FFFFFC
03FFFFFC
03E00000
03E00000
03E00000
03C00000
07C00000
07C00000
07C00000
07C00000
07C00000
0F800000
0F800000
0F800000
0F800000
0FFFFF80
0FFFFF80
1FFFFF80
1FFFFF80
1F000000
1F000000
1F000000
1E000000
3E000000
3E000000
3E000000
3E000000
3E000000
3C000000
7C000000
7C000000
7C000000
7C000000
7FFFFF80
7FFFFF80
FFFFFF00
FFFFFF00
ENDCHAR
STARTCHAR 00CC
ENCODING 204
SWIDTH 234 0
DWIDTH 13 0
BBX 12 53 4 0
BITMAP
1F00
0F80
0F80
0780
07C0
03C0
03C0
01E0
01E0
00F0
0000
0000
0000
0000
01F0
01F0
01E0
03E0
03E0
03E0
03E0
03E0
03C0
07C0
07C0
07C0
07C0
07C0
0F80
0F80
0F80
0F80
0F80
0F80
1F00
1F00
1F00
1F00
1F00
1E00
3E00
3E00
3E00
3E00
3E00
3C00
7C00
7C00
7C00
7C00
7C00
7800
F800
ENDCHAR
STARTCHAR 00CD
ENCODING 205
SWIDTH 234 0
DWIDTH 13 0
BBX 20 53 4 0
BITMAP
0001F0
0001E0
0003E0
0007C0
000F80
000F00
001E00
003C00
007C00
007800
000000
000000
000000
000000
01F000
01F000
01E000
03E000
03E000
03E000
03E000
03E000
03C000
07C000
07C000
07C000
07C000
07C000
0F8000
0F8000
0F8000
0F8000
0F8000
0F8000
1F0000
1F0000
1F0000
1F0000
1F0000
1E0000
3E0000
3E0000
3E0000
3E0000
3E0000
3C0000
7C0000
7C0000
7C0000
7C0000
7C0000
780000
F80000
ENDCHAR
STARTCHAR 00CE
ENCODING 206
SWIDTH 234 0
DWIDTH 13 0
BBX 19 51 4 0
BITMAP
007C00
00FC00
01FE00
03FF00
07CF80
0F8F80
1E07C0
3C03E0
400000
000000
000000
000000
01F000
01F000
01E000
03E000
03E000
03E000
03E000
03E000
03C000
07C000
07C000
07C000
07C000
07C000
0F8000
0F8000
0F8000
0F8000
0F8000
0F8000
1F0000
1F0000
1F0000
1F0000
1F0000
1E0000
3E0000
3E0000
3E0000
3E0000
3E0000
3C0000
7C0000
7C0000
7C0000
7C0000
7C0000
780000
F80000
ENDCHAR
STARTCHAR 00CF
ENCODING 207
SWIDTH 234 0
DWIDTH 13 0
BBX 20 51 4 0
BITMAP
040040
1F03E0
1F83F0
3F87F0
3F07E0
1F03C0
0C0180
000000
000000
000000
000000
000000
01F000
01F000
01E000
03E000
03E000
03E000
03E000
03E000
03C000
07C000
07C000
07C000
07C000
07C000
0F8000
0F8000
0F8000
0F8000
0F8000
0F8000
1F0000
1F0000
1F0000
1F0000
1F0000
1E0000
3E0000
3E0000
3E0000
3E0000
3E0000
3C0000
7C0000
7C0000
7C0000
7C0000
7C0000
780000
F80000
ENDCHAR
STARTCHAR 00D0
ENCODING 208
SWIDTH 702 0
DWIDTH 39 0
BBX 35 39 6 0
BITMAP
03FFFE0000
03FFFFE000
03FFFFF800
03FFFFFC00
03C03FFE00
07C000FF00
07C0003F80
07C0001F80
07C0000FC0
07800007C0
07800007E0
0F800003E0
0F800003E0
0F800003E0
0F800003E0
0F000003E0
1F000003E0
FFFF0003E0
FFFE0003E0
FFFE0003E0
FFFE0003C0
1E000007C0
3E000007C0
3E000007C0
3E00000F80
3E00000F80
3C00001F80
3C00001F00
7C00003E00
7C00007E00
7C0000FC00
7C0001F800
780007F000
78001FE000
F803FFC000
FFFFFF8000
FFFFFE0000
FFFFF80000
FFFFC00000
ENDCHAR
STARTCHAR 00D1
ENCODING 209
SWIDTH 702 0
DWIDTH 39 0
BBX 38 50 4 0
BITMAP
00003F0380
00007FC780
0000FFFF00
0001E3FE00
0001C0FC00
0000000000
0000000000
0000000000
0000000000
0000000000
0000000000
01F000007C
01F800007C
03F800007C
03FC000078
03FC0000F8
03FE0000F8
03FE0000F8
03FF0000F8
07DF0000F8
07DF8000F0
07CF8001F0
07CFC001F0
0787C001F0
0F87E001F0
0F83E001F0
0F83F001E0
0F81F003E0
0F81F803E0
0F00F803E0
1F00FC03E0
1F007C03E0
1F007E03C0
1F003E07C0
1F003F07C0
1E001F07C0
3E001F87C0
3E000F8780
3E000FCF80
3E0007CF80
3E0007EF80
3C0003EF80
7C0003FF80
7C0001FF00
7C0001FF00
7C0000FF00
7C0000FF00
7800007F00
F800007F00
F800003E00
ENDCHAR
STARTCHAR 00D2
ENCODING 210
SWIDTH 720 0
DWIDTH 40 0
BBX 36 53 6 0
BITMAP
0001F00000
0001F00000
0000F80000
0000F80000
0000780000
00007C0000
00003C0000
00003E0000
00001E0000
00001E0000
0000000000
0000000000
0000000000
00003F0000
0003FFF000
000FFFFC00
003FFFFE00
007FFFFF00
00FF007F80
01FC001F80
03F0000FC0
07E0000FC0
0FC00007E0
0F800003E0
1F800003E0
1F000003E0
3E000003F0
3E000003F0
7E000001F0
7C000001F0
7C000001F0
FC000003F0
F8000003E0
F8000003E0
F8000003E0
F8000003E0
F8000007E0
F8000007C0
F8000007C0
F800000FC0
F800000F80
F800001F80
FC00001F00
FC00003F00
7E00007E00
7E0000FC00
3F0001F800
3F8007F000
1FF03FE000
0FFFFFC000
07FFFF8000
03FFFE0000
00FFF00000
ENDCHAR
STARTCHAR 00D3
ENCODING 211
SWIDTH 720 0
DWIDTH 40 0
BBX 36 53 6 0
BITMAP
0000001F00
0000003E00
0000007C00
0000007800
000000F800
000001F000
000001E000
000003C000
0000078000
00000F0000
0000000000
0000000000
0000000000
00003F0000
0003FFF000
000FFFFC00
003FFFFE00
007FFFFF00
00FF007F80
01FC001F80
03F0000FC0
07E0000FC0
0FC00007E0
0F800003E0
1F800003E0
1F000003E0
3E000003F0
3E000003F0
7E000001F0
7C000001F0
7C000001F0
FC000003F0
F8000003E0
F8000003E0
F8000003E0
F8000003E0
F8000007E0
F8000007C0
F8000007C0
F800000FC0
F800000F80
F800001F80
FC00001F00
FC00003F00
7E00007E00
7E0000FC00
3F0001F800
3F8007F000
1FF03FE000
0FFFFFC000
07FFFF8000
03FFFE0000
00FFF00000
ENDCHAR
STARTCHAR 00D4
ENCODING 212
SWIDTH 720 0
DWIDTH 40 0
BBX 36 51 6 0
BITMAP
0000078000
00000FC000
00001FE000
00003DE000
000079F000
0001F0F800
0003E07C00
0007C03C00
0000000200
0000000000
0000000000
00003F0000
0003FFF000
000FFFFC00
003FFFFE00
007FFFFF00
00FF007F80
01FC001F80
03F0000FC0
07E0000FC0
0FC00007E0
0F800003E0
1F800003E0
1F000003E0
3E000003F0
3E000003F0
7E000001F0
7C000001F0
7C000001F0
FC000003F0
F8000003E0
F8000003E0
F8000003E0
F8000003E0
F8000007E0
F8000007C0
F8000007C0
F800000FC0
F800000F80
F800001F80
FC00001F00
FC00003F00
7E00007E00
7E0000FC00
3F0001F800
3F8007F000
1FF03FE000
0FFFFFC000
07FFFF8000
03FFFE0000
00FFF00000
ENDCHAR
STARTCHAR 00D5
ENCODING 213
SWIDTH 720 0
DWIDTH 40 0
BBX 36 50 6 0
BITMAP
0000FC0F00
0001FF1E00
0003FFFE00
0003C7FC00
000781F800
0000000000
0000000000
0000000000
0000000000
0000000000
00003F0000
0003FFF000
000FFFFC00
003FFFFE00
007FFFFF00
00FF007F80
01FC001F80
03F0000FC0
07E0000FC0
0FC00007E0
0F800003E0
1F800003E0
1F000003E0
3E000003F0
3E000003F0
7E000001F0
7C000001F0
7C000001F0
FC000003F0
F8000003E0
F8000003E0
F8000003E0
F8000003E0
F8000007E0
F8000007C0
F8000007C0
F800000FC0
F800000F80
F800001F80
FC00001F00
FC00003F00
7E00007E00
7E0000FC00
3F0001F800
3F8007F000
1FF03FE000
0FFFFFC000
07FFFF8000
03FFFE0000
00FFF00000
ENDCHAR
STARTCHAR 00D6
ENCODING 214
SWIDTH 720 0
DWIDTH 40 0
BBX 36 51 6 0
BITMAP
0000400800
0001F03E00
0003F07E00
0003F07E00
0003F07E00
0003E07C00
0001803000
0000000000
0000000000
0000000000
0000000000
00003F0000
0003FFF000
000FFFFC00
003FFFFE00
007FFFFF00
00FF007F80
01FC001F80
03F0000FC0
07E0000FC0
0FC00007E0
0F800003E0
1F800003E0
1F000003E0
3E000003F0
3E000003F0
7E000001F0
7C000001F0
7C000001F0
FC000003F0
F8000003E0
F8000003E0
F8000003E0
F8000003E0
F8000007E0
F8000007C0
F8000007C0
F800000FC0
F800000F80
F800001F80
FC00001F00
FC00003F00
7E00007E00
7E0000FC00
3F0001F800
3F8007F000
1FF03FE000
0FFFFFC000
07FFFF8000
03FFFE0000
00FFF00000
ENDCHAR
STARTCHAR 00D7
ENCODING 215
SWIDTH 540 0
DWIDTH 30 0
BBX 20 18 8 9
BITMAP
0E0060
1E00F0
3F01F0
1F87E0
0FCFC0
07FF80
03FF00
03FE00
01F800
03FC00
07FE00
0FFF00
1F9F80
3F1F80
7C0FC0
F807C0
700380
200100
ENDCHAR
STARTCHAR 00D8
ENCODING 216
SWIDTH 738 0
DWIDTH 41 0
BBX 39 43 4 -2
BITMAP
000000001E
00000FC03C
00007FFC7C
0003FFFFF8
0007FFFFF0
001FFFFFE0
003FC01FE0
007F0007F0
00FE000FF0
01F8001FF8
01F0001FF8
03F0003CF8
07E0007CFC
07C000F8FC
0FC001F07C
0F8001E07C
0F8003C07C
1F0007807C
1F000F807C
1F001F007C
3F001E007C
3E003C00FC
3E007800F8
3E00F800F8
3E01F000F8
3E03E001F8
3E03C001F0
3E078001F0
3E0F8003E0
3F1F0007E0
3F3E0007C0
1F3C000FC0
1FF8001F80
1FF0003F00
0FF0007F00
0FF001FE00
07FC07F800
07FFFFF000
0FFFFFE000
1F7FFF8000
3E1FFE0000
7C00000000
F800000000
ENDCHAR
STARTCHAR 00D9
ENCODING 217
SWIDTH 684 0
DWIDTH 38 0
BBX 35 54 6 -1
BITMAP
0007E00000
0003E00000
0003E00000
0001F00000
0001F00000
0000F00000
0000F80000
0000780000
00007C0000
00003C0000
0000000000
0000000000
0000000000
0000000000
0F800003E0
0F800003E0
0F800003E0
0F000003C0
0F000003C0
1F000007C0
1F000007C0
1F000007C0
1F000007C0
1E00000780
3E00000F80
3E00000F80
3E00000F80
3E00000F80
3E00000F80
3C00000F00
7C00001F00
7C00001F00
7C00001F00
7C00001F00
7C00001F00
7800001E00
F800003E00
F800003E00
F800003E00
F800003C00
F800007C00
F800007C00
F80000F800
F80000F800
FC0001F000
7C0003F000
7E0007E000
7F000FC000
3FC07FC000
1FFFFF0000
0FFFFE0000
07FFFC0000
01FFE00000
0008000000
ENDCHAR
STARTCHAR 00DA
ENCODING 218
SWIDTH 684 0
DWIDTH 38 0
BBX 35 54 6 -1
BITMAP
0000003E00
0000007C00
000000F800
000001F000
000001E000
000003C000
000007C000
0000078000
00000F0000
00001E0000
0000000000
0000000000
0000000000
0000000000
0F800003E0
0F800003E0
0F800003E0
0F000003C0
0F000003C0
1F000007C0
1F000007C0
1F000007C0
1F000007C0
1E00000780
3E00000F80
3E00000F80
3E00000F80
3E00000F80
3E00000F80
3C00000F00
7C00001F00
7C00001F00
7C00001F00
7C00001F00
7C00001F00
7800001E00
F800003E00
F800003E00
F800003E00
F800003C00
F800007C00
F800007C00
F80000F800
F80000F800
FC0001F000
7C0003F000
7E0007E000
7F000FC000
3FC07FC000
1FFFFF0000
0FFFFE0000
07FFFC0000
01FFE00000
0008000000
ENDCHAR
STARTCHAR 00DB
ENCODING 219
SWIDTH 684 0
DWIDTH 38 0
BBX 35 52 6 -1
BITMAP
00001F0000
00003F8000
00007F8000
0000FFC000
0001F3E000
0003E1F000
0007C0F000
000F80F800
0000000000
0000000000
0000000000
0000000000
0F800003E0
0F800003E0
0F800003E0
0F000003C0
0F000003C0
1F000007C0
1F000007C0
1F000007C0
1F000007C0
1E00000780
3E00000F80
3E00000F80
3E00000F80
3E00000F80
3E00000F80
3C00000F00
7C00001F00
7C00001F00
7C00001F00
7C00001F00
7C00001F00
7800001E00
F800003E00
F800003E00
F800003E00
F800003C00
F800007C00
F800007C00
F80000F800
F80000F800
FC0001F000
7C0003F000
7E0007E000
7F000FC000
3FC07FC000
1FFFFF0000
0FFFFE0000
07FFFC0000
01FFE00000
0008000000
ENDCHAR
STARTCHAR 00DC
ENCODING 220
SWIDTH 684 0
DWIDTH 38 0
BBX 35 52 6 -1
BITMAP
0000801000
0003E07800
0007E0FC00
0007E0FC00
0007E0FC00
0007C0F800
0003006000
0000000000
0000000000
0000000000
0000000000
0000000000
0F800003E0
0F800003E0
0F800003E0
0F000003C0
0F000003C0
1F000007C0
1F000007C0
1F000007C0
1F000007C0
1E00000780
3E00000F80
3E00000F80
3E00000F80
3E00000F80
3E00000F80
3C00000F00
7C00001F00
7C00001F00
7C00001F00
7C00001F00
7C00001F00
7800001E00
F800003E00
F800003E00
F800003E00
F800003C00
F800007C00
F800007C00
F80000F800
F80000F800
FC0001F000
7C0003F000
7E0007E000
7F000FC000
3FC07FC000
1FFFFF0000
0FFFFE0000
07FFFC0000
01FFE00000
0008000000
ENDCHAR
STARTCHAR 00DD
ENCODING 221
SWIDTH 612 0
DWIDTH 34 0
BBX 29 53 9 0
BITMAP
00000F80
00000F80
00001F00
00003E00
00003C00
00007800
0000F000
0001F000
0001E000
0003C000
00000000
00000000
00000000
00000000
F80000F8
F80001F8
FC0001F0
7C0003E0
7C0007E0
7C0007C0
3E000F80
3E001F80
3E001F00
1F003E00
1F007E00
1F007C00
0F80F800
0F81F800
0F81F000
07C3E000
07C7E000
07C7C000
03EF8000
03FF0000
03FF0000
01FE0000
01FC0000
01FC0000
00F80000
00F80000
00F80000
00F00000
01F00000
01F00000
01F00000
01F00000
01F00000
03E00000
03E00000
03E00000
03E00000
03E00000
03C00000
ENDCHAR
STARTCHAR 00DE
ENCODING 222
SWIDTH 576 0
DWIDTH 32 0
BBX 30 39 4 0
BITMAP
01E00000
01E00000
03E00000
03E00000
03E00000
03E00000
03C00000
03FFFF00
07FFFFC0
07FFFFE0
07FFFFF0
07C00FF8
078001F8
0F8000FC
0F80007C
0F80007C
0F80003C
0F00003C
0F00003C
1F00003C
1F00007C
1F00007C
1F000078
1E0000F8
1E0001F8
3E0003F0
3E0007E0
3E001FC0
3FFFFF80
3FFFFF00
3FFFFC00
7FFFF000
7C000000
7C000000
7C000000
78000000
78000000
F8000000
F8000000
ENDCHAR
STARTCHAR 00DF
ENCODING 223
SWIDTH 558 0
DWIDTH 31 0
BBX 29 40 4 0
BITMAP
0001FC00
000FFF80
003FFFC0
007FFFE0
00FF0FF0
00F801F0
01F001F8
03E000F8
03E000F8
03C000F8
07C000F8
07C000F8
07C000F0
078001F0
0F8001E0
0F8003C0
0F800FC0
0F8FFF00
0F8FFE00
0F0FF800
1F1FFE00
1F007F00
1F000F80
1F0007C0
1F0003C0
1E0003C0
3E0003E0
3E0003E0
3E0003E0
3E0003C0
3E0003C0
3C0007C0
7C000780
7C000F80
7C003F00
7C007E00
7C7FFE00
787FF800
F87FF000
F87FC000
ENDCHAR
STARTCHAR 00E0
ENCODING 224
SWIDTH 594 0
DWIDTH 33 0
BBX 31 43 4 0
BITMAP
001F0000
000F8000
000F8000
0007C000
0007C000
0003C000
0003E000
0001E000
0000F000
0000F000
00000000
00000000
00000000
000FE000
003FF83E
00FFFC3C
01FFFE7C
03FC1F7C
07E0077C
0FC003FC
1F8001FC
1F0001F8
3F0001F8
3E0001F8
3E0000F8
7C0000F8
7C0001F8
7C0001F0
7C0001F0
F80001F0
F80001F0
F80003F0
F80003F0
FC0007E0
FC0007E0
7C000FE0
7E001FE0
7F003BE0
3F80F3E0
3FFFE3C0
1FFFC7C0
0FFF87C0
03FE07C0
ENDCHAR
STARTCHAR 00E1
ENCODING 225
SWIDTH 594 0
DWIDTH 33 0
BBX 31 43 4 0
BITMAP
000001F0
000003E0
000003C0
000007C0
00000F80
00000F00
00001E00
00003C00
00007800
00007800
00000000
00000000
00000000
000FE000
003FF83E
00FFFC3C
01FFFE7C
03FC1F7C
07E0077C
0FC003FC
1F8001FC
1F0001F8
3F0001F8
3E0001F8
3E0000F8
7C0000F8
7C0001F8
7C0001F0
7C0001F0
F80001F0
F80001F0
F80003F0
F80003F0
FC0007E0
FC0007E0
7C000FE0
7E001FE0
7F003BE0
3F80F3E0
3FFFE3C0
1FFFC7C0
0FFF87C0
03FE07C0
ENDCHAR
STARTCHAR 00E2
ENCODING 226
SWIDTH 594 0
DWIDTH 33 0
BBX 31 41 4 0
BITMAP
00007C00
0000FE00
0001FE00
0003CF00
00078F80
000F07C0
003E03C0
007C03E0
00000000
00000000
00000000
000FE000
003FF83E
00FFFC3C
01FFFE7C
03FC1F7C
07E0077C
0FC003FC
1F8001FC
1F0001F8
3F0001F8
3E0001F8
3E0000F8
7C0000F8
7C0001F8
7C0001F0
7C0001F0
F80001F0
F80001F0
F80003F0
F80003F0
FC0007E0
FC0007E0
7C000FE0
7E001FE0
7F003BE0
3F80F3E0
3FFFE3C0
1FFFC7C0
0FFF87C0
03FE07C0
ENDCHAR
STARTCHAR 00E3
ENCODING 227
SWIDTH 594 0
DWIDTH 33 0
BBX 31 41 4 0
BITMAP
00018070
000FF070
001FFDF0
001FFFE0
003C3FC0
00380F00
00000000
00000000
00000000
00000000
00000000
000FE000
003FF83E
00FFFC3C
01FFFE7C
03FC1F7C
07E0077C
0FC003FC
1F8001FC
1F0001F8
3F0001F8
3E0001F8
3E0000F8
7C0000F8
7C0001F8
7C0001F0
7C0001F0
F80001F0
F80001F0
F80003F0
F80003F0
FC0007E0
FC0007E0
7C000FE0
7E001FE0
7F003BE0
3F80F3E0
3FFFE3C0
1FFFC7C0
0FFF87C0
03FE07C0
ENDCHAR
STARTCHAR 00E4
ENCODING 228
SWIDTH 594 0
DWIDTH 33 0
BBX 31 41 4 0
BITMAP
000F01E0
001F83E0
001F83F0
003F87F0
001F07E0
001E03C0
00000000
00000000
00000000
00000000
00000000
000FE000
003FF83E
00FFFC3C
01FFFE7C
03FC1F7C
07E0077C
0FC003FC
1F8001FC
1F0001F8
3F0001F8
3E0001F8
3E0000F8
7C0000F8
7C0001F8
7C0001F0
7C0001F0
F80001F0
F80001F0
F80003F0
F80003F0
FC0007E0
FC0007E0
7C000FE0
7E001FE0
7F003BE0
3F80F3E0
3FFFE3C0
1FFFC7C0
0FFF87C0
03FE07C0
ENDCHAR
STARTCHAR 00E5
ENCODING 229
SWIDTH 594 0
DWIDTH 33 0
BBX 31 44 4 0
BITMAP
00003800
00007E00
0000FF00
00018700
00038300
00038300
00038700
0001CE00
0001FC00
0000F800
00000000
00000000
00000000
00000000
000FE000
003FF83E
00FFFC3C
01FFFE7C
03FC1F7C
07E0077C
0FC003FC
1F8001FC
1F0001F8
3F0001F8
3E0001F8
3E0000F8
7C0000F8
7C0001F8
7C0001F0
7C0001F0
F80001F0
F80001F0
F80003F0
F80003F0
FC0007E0
FC0007E0
7C000FE0
7E001FE0
7F003BE0
3F80F3E0
3FFFE3C0
1FFFC7C0
0FFF87C0
03FE07C0
ENDCHAR
STARTCHAR 00E6
ENCODING 230
SWIDTH 936 0
DWIDTH 52 0
BBX 48 30 4 0
BITMAP
0007E0003FC0
003FFC01FFF0
00FFFE03FFF8
01FFFF0FFFFC
03F81F9F80FC
07E00FBE003E
0F8007BC001E
0F0003F8001F
1F0003F0001F
000003F0000F
000003E0000F
000003E0000F
000003E0000F
000FFFFFFFFF
01FFFFFFFFFF
07FFFFFFFFFF
1FFFFFFFFFFF
3F0007C00000
7C0007C00000
7C000FC00000
F8000FC00000
F8000FC0003C
F8001FC0007C
F8003FE000F8
F8007BF001F0
FC01F1F807F0
7FDFE0FFFFE0
7FFFC07FFF80
3FFF003FFF00
0FFC001FFC00
ENDCHAR
STARTCHAR 00E7
ENCODING 231
SWIDTH 558 0
DWIDTH 31 0
BBX 28 44 4 -14
BITMAP
0007F800
003FFE00
00FFFF80
01FFFFC0
03F81FC0
07E007E0
0FC003E0
0F8001F0
1F0001F0
3F0001F0
3E0001F0
3E000000
7C000000
7C000000
7C000000
78000000
F8000000
F8000000
F8000000
F80003E0
780007C0
7C0007C0
7C000F80
7E001F80
3E003F00
3F807E00
1FFFFC00
0FFFF800
07FFE000
01FF8000
00380000
00380000
00700000
007F0000
007F8000
00FFC000
0001C000
0001C000
0001C000
0001C000
00078000
00FF0000
01FE0000
00F00000
ENDCHAR
STARTCHAR 00E8
ENCODING 232
SWIDTH 558 0
DWIDTH 31 0
BBX 28 43 4 0
BITMAP
000F8000
000F8000
00078000
0007C000
0003C000
0003C000
0001E000
0001E000
0000F000
0000F000
00000000
00000000
00000000
000FFE00
003FFF80
00FFFFC0
01FFFFE0
03F007E0
07C003E0
0F8001F0
1F0001F0
1F0001F0
3E0001F0
3E0003E0
7C0003E0
7C000FC0
7FFFFF80
7FFFFF00
7FFFFC00
78000000
F8000000
F8000000
78000000
78000000
7C0007C0
7C000F80
3E001F80
3F003F00
1F80FE00
1FFFFC00
0FFFF800
03FFE000
00FF8000
ENDCHAR
STARTCHAR 00E9
ENCODING 233
SWIDTH 558 0
DWIDTH 31 0
BBX 28 43 4 0
BITMAP
000001F0
000003E0
000003C0
000007C0
00000F80
00000F00
00001E00
00003C00
00007800
00007800
00000000
00000000
00000000
000FFE00
003FFF80
00FFFFC0
01FFFFE0
03F007E0
07C003E0
0F8001F0
1F0001F0
1F0001F0
3E0001F0
3E0003E0
7C0003E0
7C000FC0
7FFFFF80
7FFFFF00
7FFFFC00
78000000
F8000000
F8000000
78000000
78000000
7C0007C0
7C000F80
3E001F80
3F003F00
1F80FE00
1FFFFC00
0FFFF800
03FFE000
00FF8000
ENDCHAR
STARTCHAR 00EA
ENCODING 234
SWIDTH 558 0
DWIDTH 31 0
BBX 28 41 4 0
BITMAP
00007C00
0000FE00
0001FF00
0003EF00
00078F80
000F07C0
001E03C0
007C03E0
00000000
00000000
00000000
000FFE00
003FFF80
00FFFFC0
01FFFFE0
03F007E0
07C003E0
0F8001F0
1F0001F0
1F0001F0
3E0001F0
3E0003E0
7C0003E0
7C000FC0
7FFFFF80
7FFFFF00
7FFFFC00
78000000
F8000000
F8000000
78000000
78000000
7C0007C0
7C000F80
3E001F80
3F003F00
1F80FE00
1FFFFC00
0FFFF800
03FFE000
00FF8000
ENDCHAR
STARTCHAR 00EB
ENCODING 235
SWIDTH 558 0
DWIDTH 31 0
BBX 28 41 4 0
BITMAP
000701E0
001F83F0
001F83F0
001F87F0
001F03E0
001E03C0
00000000
00000000
00000000
00000000
00000000
000FFE00
003FFF80
00FFFFC0
01FFFFE0
03F007E0
07C003E0
0F8001F0
1F0001F0
1F0001F0
3E0001F0
3E0003E0
7C0003E0
7C000FC0
7FFFFF80
7FFFFF00
7FFFFC00
78000000
F8000000
F8000000
78000000
78000000
7C0007C0
7C000F80
3E001F80
3F003F00
1F80FE00
1FFFFC00
0FFFF800
03FFE000
00FF8000
ENDCHAR
STARTCHAR 00EC
ENCODING 236
SWIDTH 234 0
DWIDTH 13 0
BBX 9 43 5 0
BITMAP
7C00
7C00
3E00
3E00
1E00
1F00
0F00
0F80
0780
0780
0000
0000
0000
0000
0F80
0F80
0F80
0F80
0F80
0F00
1F00
1F00
1F00
1F00
1E00
1E00
3E00
3E00
3E00
3E00
3C00
3C00
7C00
7C00
7C00
7C00
7800
F800
F800
F800
F800
F800
F000
ENDCHAR
STARTCHAR 00ED
ENCODING 237
SWIDTH 234 0
DWIDTH 13 0
BBX 18 43 5 0
BITMAP
000FC0
000F80
001F00
003E00
003C00
007800
00F000
01F000
01E000
03C000
000000
000000
000000
000000
0F8000
0F8000
0F8000
0F8000
0F8000
0F0000
1F0000
1F0000
1F0000
1F0000
1E0000
1E0000
3E0000
3E0000
3E0000
3E0000
3C0000
3C0000
7C0000
7C0000
7C0000
7C0000
780000
F80000
F80000
F80000
F80000
F80000
F00000
ENDCHAR
STARTCHAR 00EE
ENCODING 238
SWIDTH 234 0
DWIDTH 13 0
BBX 18 41 4 0
BITMAP
01F000
03F800
07FC00
0FBE00
1F1E00
3E1F00
7C0F80
F807C0
000000
000000
000000
000000
07C000
07C000
07C000
07C000
07C000
078000
0F8000
0F8000
0F8000
0F8000
0F0000
0F0000
1F0000
1F0000
1F0000
1F0000
1E0000
1E0000
3E0000
3E0000
3E0000
3E0000
3C0000
7C0000
7C0000
7C0000
7C0000
7C0000
780000
ENDCHAR
STARTCHAR 00EF
ENCODING 239
SWIDTH 234 0
DWIDTH 13 0
BBX 17 41 5 0
BITMAP
380700
7C0F80
FC1F80
FC1F80
FC1F80
781F00
000000
000000
000000
000000
000000
000000
0F8000
0F8000
0F8000
0F8000
0F8000
0F0000
1F0000
1F0000
1F0000
1F0000
1E0000
1E0000
3E0000
3E0000
3E0000
3E0000
3C0000
3C0000
7C0000
7C0000
7C0000
7C0000
780000
F80000
F80000
F80000
F80000
F80000
F00000
ENDCHAR
STARTCHAR 00F0
ENCODING 240
SWIDTH 612 0
DWIDTH 34 0
BBX 31 44 5 0
BITMAP
0003C000
0003F80E
0003FE3E
0003FFFC
00003FF0
00000FE0
00001FE0
00007FF0
0000F9F0
0000E1F8
000080F8
000000F8
000000F8
00000078
001FE078
007FF078
01FFFC78
03FFFC78
07F03E78
0FC00E78
1F8007F8
3F0003F8
3E0003F0
7E0003F0
7C0001F0
7C0001F0
F80001F0
F80001F0
F80001E0
F80003E0
F80003E0
F00003E0
F00007C0
F80007C0
F80007C0
F8000F80
F8001F00
FC003F00
7E007E00
7F01FC00
3FFFF800
1FFFF000
0FFFC000
03FF0000
ENDCHAR
STARTCHAR 00F1
ENCODING 241
SWIDTH 612 0
DWIDTH 34 0
BBX 29 41 4 0
BITMAP
00008038
0007F078
000FFFF0
001FFFE0
001C3FC0
00380700
00000000
00000000
00000000
00000000
00000000
0000FF00
07C3FFC0
07C7FFE0
07DFFFF0
079E0FF0
0FB803F8
0FE001F8
0FC000F8
0FC000F8
0F8000F8
1F800078
1F000078
1F0000F8
1F0000F8
1F0000F8
1E0000F8
3E0000F8
3E0000F0
3E0001F0
3E0001F0
3E0001F0
3C0001F0
7C0001E0
7C0001E0
7C0003E0
7C0003E0
7C0003E0
780003E0
F80003C0
F80003C0
ENDCHAR
STARTCHAR 00F2
ENCODING 242
SWIDTH 576 0
DWIDTH 32 0
BBX 28 43 4 0
BITMAP
001F0000
001F0000
000F8000
000F8000
00078000
0007C000
0003C000
0003C000
0001E000
0001E000
00000000
00000000
00000000
0007F800
003FFE00
007FFF80
01FFFFC0
03F81FC0
07E007E0
0FC003E0
0F8003F0
1F0001F0
3E0001F0
3E0001F0
3C0000F0
7C0000F0
7C0001F0
7C0001F0
780001F0
F80001F0
F80001F0
F80003E0
F80003E0
F80007C0
7C0007C0
7C000F80
7E001F80
3F003F00
3F80FE00
1FFFFC00
0FFFF800
07FFE000
01FF8000
ENDCHAR
STARTCHAR 00F3
ENCODING 243
SWIDTH 576 0
DWIDTH 32 0
BBX 28 43 4 0
BITMAP
000003E0
000003E0
000007C0
00000F80
00001F00
00001E00
00003C00
00007800
00007800
0000F000
00000000
00000000
00000000
0007F800
003FFE00
007FFF80
01FFFFC0
03F81FC0
07E007E0
0FC003E0
0F8003F0
1F0001F0
3E0001F0
3E0001F0
3C0000F0
7C0000F0
7C0001F0
7C0001F0
780001F0
F80001F0
F80001F0
F80003E0
F80003E0
F80007C0
7C0007C0
7C000F80
7E001F80
3F003F00
3F80FE00
1FFFFC00
0FFFF800
07FFE000
01FF8000
ENDCHAR
STARTCHAR 00F4
ENCODING 244
SWIDTH 576 0
DWIDTH 32 0
BBX 28 41 4 0
BITMAP
0000F800
0001FC00
0003FE00
0007DE00
000F9F00
001F0F80
003E07C0
007803C0
00000000
00000000
00000000
0007F800
003FFE00
007FFF80
01FFFFC0
03F81FC0
07E007E0
0FC003E0
0F8003F0
1F0001F0
3E0001F0
3E0001F0
3C0000F0
7C0000F0
7C0001F0
7C0001F0
780001F0
F80001F0
F80001F0
F80003E0
F80003E0
F80007C0
7C0007C0
7C000F80
7E001F80
3F003F00
3F80FE00
1FFFFC00
0FFFF800
07FFE000
01FF8000
ENDCHAR
STARTCHAR 00F5
ENCODING 245
SWIDTH 576 0
DWIDTH 32 0
BBX 28 41 4 0
BITMAP
00018070
000FE0E0
001FFFE0
003FFFC0
00787F80
00701E00
00000000
00000000
00000000
00000000
00000000
0007F800
003FFE00
007FFF80
01FFFFC0
03F81FC0
07E007E0
0FC003E0
0F8003F0
1F0001F0
3E0001F0
3E0001F0
3C0000F0
7C0000F0
7C0001F0
7C0001F0
780001F0
F80001F0
F80001F0
F80003E0
F80003E0
F80007C0
7C0007C0
7C000F80
7E001F80
3F003F00
3F80FE00
1FFFFC00
0FFFF800
07FFE000
01FF8000
ENDCHAR
STARTCHAR 00F6
ENCODING 246
SWIDTH 576 0
DWIDTH 32 0
BBX 28 41 4 0
BITMAP
000E01C0
001F07E0
003F07E0
003F07E0
003F07C0
003E0780
00000000
00000000
00000000
00000000
00000000
0007F800
003FFE00
007FFF80
01FFFFC0
03F81FC0
07E007E0
0FC003E0
0F8003F0
1F0001F0
3E0001F0
3E0001F0
3C0000F0
7C0000F0
7C0001F0
7C0001F0
780001F0
F80001F0
F80001F0
F80003E0
F80003E0
F80007C0
7C0007C0
7C000F80
7E001F80
3F003F00
3F80FE00
1FFFFC00
0FFFF800
07FFE000
01FF8000
ENDCHAR
STARTCHAR 00F7
ENCODING 247
SWIDTH 594 0
DWIDTH 33 0
BBX 22 27 7 4
BITMAP
00C000
01F000
03F000
07F000
07F000
03E000
01C000
000000
000000
000000
000000
000000
FFFFFC
FFFFFC
FFFFFC
FFFFFC
000000
000000
000000
000000
006000
01F000
01F800
03F800
03F000
01F000
008000
ENDCHAR
STARTCHAR 00F8
ENCODING 248
SWIDTH 594 0
DWIDTH 33 0
BBX 29 34 4 -2
BITMAP
00000078
000000F0
0007F8E0
003FFFE0
007FFFC0
01FFFFC0
03F81FC0
07E00FE0
0FC01FE0
0F801DF0
1F003DF0
3E0079F0
3E00F1F0
3C00E0F0
7C01E0F0
7C03C1F0
7C0381F0
780781F0
F80F01F0
F81E01F0
F81C03E0
F83C03E0
787807C0
7CF007C0
7CE00F80
7FE01F80
3FC03F00
3F80FE00
1FFFFC00
0FFFF800
1FFFE000
1DFF8000
3C000000
78000000
ENDCHAR
STARTCHAR 00F9
ENCODING 249
SWIDTH 594 0
DWIDTH 33 0
BBX 28 44 6 -1
BITMAP
007C0000
007C0000
003E0000
003E0000
001E0000
001F0000
000F0000
000F8000
00078000
00078000
00000000
00000000
00000000
00000000
1F0000F0
1E0001F0
1E0001F0
3E0001F0
3E0001F0
3E0001F0
3E0001E0
3C0003E0
7C0003E0
7C0003E0
7C0003E0
7C0003C0
7C0007C0
780007C0
F80007C0
F80007C0
F80007C0
F8000780
F8000F80
F8000F80
F8001F80
F8001F80
FC003F80
FC006F00
7F01FF00
7FFFDF00
3FFF9F00
1FFE1F00
0FFC1F00
00800000
ENDCHAR
STARTCHAR 00FA
ENCODING 250
SWIDTH 594 0
DWIDTH 33 0
BBX 28 44 6 -1
BITMAP
00000FC0
00000F80
00001F00
00003E00
00003C00
00007800
0000F000
0001F000
0001E000
0003C000
00000000
00000000
00000000
00000000
1F0000F0
1E0001F0
1E0001F0
3E0001F0
3E0001F0
3E0001F0
3E0001E0
3C0003E0
7C0003E0
7C0003E0
7C0003E0
7C0003C0
7C0007C0
780007C0
F80007C0
F80007C0
F80007C0
F8000780
F8000F80
F8000F80
F8001F80
F8001F80
FC003F80
FC006F00
7F01FF00
7FFFDF00
3FFF9F00
1FFE1F00
0FFC1F00
00800000
ENDCHAR
STARTCHAR 00FB
ENCODING 251
SWIDTH 594 0
DWIDTH 33 0
BBX 28 42 6 -1
BITMAP
0003E000
0007F000
000FF800
001F7C00
003E3C00
007C3E00
00F81F00
01F00F80
00000000
00000000
00000000
00000000
1F0000F0
1E0001F0
1E0001F0
3E0001F0
3E0001F0
3E0001F0
3E0001E0
3C0003E0
7C0003E0
7C0003E0
7C0003E0
7C0003C0
7C0007C0
780007C0
F80007C0
F80007C0
F80007C0
F8000780
F8000F80
F8000F80
F8001F80
F8001F80
FC003F80
FC006F00
7F01FF00
7FFFDF00
3FFF9F00
1FFE1F00
0FFC1F00
00800000
ENDCHAR
STARTCHAR 00FC
ENCODING 252
SWIDTH 594 0
DWIDTH 33 0
BBX 28 42 6 -1
BITMAP
00380700
007C0F80
00FC1F80
00FC1F80
00FC1F80
00781F00
00000000
00000000
00000000
00000000
00000000
00000000
1F0000F0
1E0001F0
1E0001F0
3E0001F0
3E0001F0
3E0001F0
3E0001E0
3C0003E0
7C0003E0
7C0003E0
7C0003E0
7C0003C0
7C0007C0
780007C0
F80007C0
F80007C0
F80007C0
F8000780
F8000F80
F8000F80
F8001F80
F8001F80
FC003F80
FC006F00
7F01FF00
7FFFDF00
3FFF9F00
1FFE1F00
0FFC1F00
00800000
ENDCHAR
STARTCHAR 00FD
ENCODING 253
SWIDTH 486 0
DWIDTH 27 0
BBX 32 54 0 -11
BITMAP
000000F8
000000F0
000001F0
000003E0
000007C0
00000780
00000F00
00001E00
00001E00
00003C00
00000000
00000000
00000000
00000000
03E0001F
03E0003E
03E0003E
03E0007C
03E0007C
01E000F8
01F000F8
01F001F0
01F001E0
00F003E0
00F007C0
00F807C0
00F80F80
00F80F00
00781F00
00781E00
007C3E00
007C3C00
003C7C00
003C7800
003CF000
003FF000
003FE000
001FE000
001FC000
001F8000
001F8000
001F0000
001F0000
003E0000
003E0000
007C0000
00780000
00F80000
01F00000
03F00000
DFE00000
FFC00000
FF800000
FE000000
ENDCHAR
STARTCHAR 00FE
ENCODING 254
SWIDTH 612 0
DWIDTH 34 0
BBX 33 55 2 -13
BITMAP
007C000000
007C000000
007C000000
0078000000
00F8000000
00F8000000
00F8000000
00F8000000
00F8000000
00F0000000
01F0000000
01F0000000
01F03FC000
01F0FFF000
01F1FFF800
01E7FFFC00
03E7C1FE00
03EE007E00
03FC003F00
03F8001F00
03F0001F00
03F0001F00
07E0001F00
07E0000F80
07C0000F00
07C0001F00
07C0001F00
0780001F00
0F80001F00
0F80001F00
0F80003E00
0F80003E00
0F80007E00
0FC0007C00
1FC000FC00
1FE001F800
1FF003F000
1F780FF000
1F7FFFE000
1E3FFF8000
3E1FFF0000
3E07FC0000
3E00000000
3E00000000
3C00000000
7C00000000
7C00000000
7C00000000
7C00000000
7C00000000
7800000000
F800000000
F800000000
F800000000
F800000000
ENDCHAR
STARTCHAR 00FF
ENCODING 255
SWIDTH 486 0
DWIDTH 27 0
BBX 32 52 0 -11
BITMAP
00038070
000FC1F8
000FC1F8
000FC1F8
000F81F0
000F01E0
00000000
00000000
00000000
00000000
00000000
00000000
03E0001F
03E0003E
03E0003E
03E0007C
03E0007C
01E000F8
01F000F8
01F001F0
01F001E0
00F003E0
00F007C0
00F807C0
00F80F80
00F80F00
00781F00
00781E00
007C3E00
007C3C00
003C7C00
003C7800
003CF000
003FF000
003FE000
001FE000
001FC000
001F8000
001F8000
001F0000
001F0000
003E0000
003E0000
007C0000
00780000
00F80000
01F00000
03F00000
DFE00000
FFC00000
FF800000
FE000000
ENDCHAR
STARTCHAR 0100
ENCODING 256
SWIDTH 666 0
DWIDTH 37 0
BBX 34 47 2 0
BITMAP
0000FFFF80
0000FFFF80
0000FFFF80
0000000000
0000000000
0000000000
0000000000
0000000000
000007C000
00000FC000
00000FC000
00001FC000
00001FE000
00003FE000
00003DE000
00007DE000
000079F000
0000F9F000
0000F1F000
0001F0F000
0003E0F000
0003E0F800
0007C0F800
000780F800
000F807800
000F007800
001F007C00
001E007C00
003E007C00
003C003C00
007C003C00
00F8003E00
00FFFFFE00
01FFFFFE00
01FFFFFE00
03FFFFFE00
03E0001F00
07C0001F00
0780001F00
0F80000F00
0F00000F80
1F00000F80
3E00000F80
3E00000F80
7C00000780
7C000007C0
F8000007C0
ENDCHAR
STARTCHAR 0101
ENCODING 257
SWIDTH 594 0
DWIDTH 33 0
BBX 31 37 4 0
BITMAP
003FFFE0
003FFFE0
00000000
00000000
00000000
00000000
00000000
000FE000
003FF83E
00FFFC3C
01FFFE7C
03FC1F7C
07E0077C
0FC003FC
1F8001FC
1F0001F8
3F0001F8
3E0001F8
3E0000F8
7C0000F8
7C0001F8
7C0001F0
7C0001F0
F80001F0
F80001F0
F80003F0
F80003F0
FC0007E0
FC0007E0
7C000FE0
7E001FE0
7F003BE0
3F80F3E0
3FFFE3C0
1FFFC7C0
0FFF87C0
03FE07C0
ENDCHAR
STARTCHAR 0102
ENCODING 258
SWIDTH 666 0
DWIDTH 37 0
BBX 34 49 2 0
BITMAP
0000F003C0
0000780780
00007E3F00
00003FFE00
00001FF800
0000018000
0000000000
0000000000
0000000000
0000000000
000007C000
00000FC000
00000FC000
00001FC000
00001FE000
00003FE000
00003DE000
00007DE000
000079F000
0000F9F000
0000F1F000
0001F0F000
0003E0F000
0003E0F800
0007C0F800
000780F800
000F807800
000F007800
001F007C00
001E007C00
003E007C00
003C003C00
007C003C00
00F8003E00
00FFFFFE00
01FFFFFE00
01FFFFFE00
03FFFFFE00
03E0001F00
07C0001F00
0780001F00
0F80000F00
0F00000F80
1F00000F80
3E00000F80
3E00000F80
7C00000780
7C000007C0
F8000007C0
ENDCHAR
STARTCHAR 0103
ENCODING 259
SWIDTH 594 0
DWIDTH 33 0
BBX 31 40 4 0
BITMAP
003C00F8
003E00F0
001F03E0
000FFFC0
0007FF00
0003FC00
00000000
00000000
00000000
00000000
000FE000
003FF83E
00FFFC3C
01FFFE7C
03FC1F7C
07E0077C
0FC003FC
1F8001FC
1F0001F8
3F0001F8
3E0001F8
3E0000F8
7C0000F8
7C0001F8
7C0001F0
7C0001F0
F80001F0
F80001F0
F80003F0
F80003F0
FC0007E0
FC0007E0
7C000FE0
7E001FE0
7F003BE0
3F80F3E0
3FFFE3C0
1FFFC7C0
0FFF87C0
03FE07C0
ENDCHAR
STARTCHAR 0104
ENCODING 260
SWIDTH 666 0
DWIDTH 37 0
BBX 34 48 2 -9
BITMAP
000007C000
00000FC000
00000FC000
00001FC000
00001FE000
00003FE000
00003DE000
00007DE000
000079F000
0000F9F000
0000F1F000
0001F0F000
0003E0F000
0003E0F800
0007C0F800
000780F800
000F807800
000F007800
001F007C00
001E007C00
003E007C00
003C003C00
007C003C00
00F8003E00
00FFFFFE00
01FFFFFE00
01FFFFFE00
03FFFFFE00
03E0001F00
07C0001F00
0780001F00
0F80000F00
0F00000F80
1F00000F80
3E00000F80
3E00000F80
7C00000780
7C000007C0
F8000007C0
0000000F00
0000001E00
0000003C00
0000003800
0000003800
0000003C00
0000003FC0
0000001FC0
0000000FC0
ENDCHAR
STARTCHAR 0105
ENCODING 261
SWIDTH 594 0
DWIDTH 33 0
BBX 31 39 4 -9
BITMAP
000FE000
003FF83E
00FFFC3C
01FFFE7C
03FC1F7C
07E0077C
0FC003FC
1F8001FC
1F0001F8
3F0001F8
3E0001F8
3E0000F8
7C0000F8
7C0001F8
7C0001F0
7C0001F0
F80001F0
F80001F0
F80003F0
F80003F0
FC0007E0
FC0007E0
7C000FE0
7E001FE0
7F003BE0
3F80F3E0
3FFFE3C0
1FFFC7C0
0FFF87C0
03FE07C0
00000780
00000E00
00001C00
00001C00
00003C00
00003C00
00001FE0
00001FC0
000007C0
ENDCHAR
STARTCHAR 0106
ENCODING 262
SWIDTH 702 0
DWIDTH 39 0
BBX 36 53 6 0
BITMAP
0000003E00
0000003E00
0000007C00
000000F800
000000F000
000001E000
000003C000
000007C000
0000078000
00000F0000
0000000000
0000000000
0000000000
00003F0000
0003FFF000
000FFFFC00
001FFFFE00
007FFFFF00
00FF007F80
01FC001FC0
03F0000FC0
07E00007C0
07C00003E0
0F800003E0
1F800003E0
1F000001E0
3E000001F0
3E00000000
7E00000000
7C00000000
7C00000000
7C00000000
F800000000
F800000000
F800000000
F800000000
F800000000
F800000000
F800000000
F800000000
F800000000
F800000F80
FC00001F00
7C00003E00
7E00007E00
7E0000FC00
3F0001F800
3F8007F000
1FF01FE000
0FFFFFC000
07FFFF8000
03FFFE0000
007FF00000
ENDCHAR
STARTCHAR 0107
ENCODING 263
SWIDTH 558 0
DWIDTH 31 0
BBX 28 43 4 0
BITMAP
000003F0
000003E0
000007C0
00000F80
00000F00
00001E00
00003C00
00007C00
00007800
0000F000
00000000
00000000
00000000
0007F800
003FFE00
00FFFF80
01FFFFC0
03F81FC0
07E007E0
0FC003E0
0F8001F0
1F0001F0
3F0001F0
3E0001F0
3E000000
7C000000
7C000000
7C000000
78000000
F8000000
F8000000
F8000000
F80003E0
780007C0
7C0007C0
7C000F80
7E001F80
3E003F00
3F807E00
1FFFFC00
0FFFF800
07FFE000
01FF8000
ENDCHAR
STARTCHAR 010A
ENCODING 266
SWIDTH 702 0
DWIDTH 39 0
BBX 36 51 6 0
BITMAP
0000020000
00000F8000
00001F8000
00001F8000
00001F8000
00001F0000
00000E0000
0000000000
0000000000
0000000000
0000000000
00003F0000
0003FFF000
000FFFFC00
001FFFFE00
007FFFFF00
00FF007F80
01FC001FC0
03F0000FC0
07E00007C0
07C00003E0
0F800003E0
1F800003E0
1F000001E0
3E000001F0
3E00000000
7E00000000
7C00000000
7C00000000
7C00000000
F800000000
F800000000
F800000000
F800000000
F800000000
F800000000
F800000000
F800000000
F800000000
F800000F80
FC00001F00
7C00003E00
7E00007E00
7E0000FC00
3F0001F800
3F8007F000
1FF01FE000
0FFFFFC000
07FFFF8000
03FFFE0000
007FF00000
ENDCHAR
STARTCHAR 010B
ENCODING 267
SWIDTH 558 0
DWIDTH 31 0
BBX 28 41 4 0
BITMAP
00007000
0000F800
0001F800
0001F800
0001F800
0000F000
00000000
00000000
00000000
00000000
00000000
0007F800
003FFE00
00FFFF80
01FFFFC0
03F81FC0
07E007E0
0FC003E0
0F8001F0
1F0001F0
3F0001F0
3E0001F0
3E000000
7C000000
7C000000
7C000000
78000000
F8000000
F8000000
F8000000
F80003E0
780007C0
7C0007C0
7C000F80
7E001F80
3E003F00
3F807E00
1FFFFC00
0FFFF800
07FFE000
01FF8000
ENDCHAR
STARTCHAR 010C
ENCODING 268
SWIDTH 702 0
DWIDTH 39 0
BBX 36 51 6 0
BITMAP
0007C01F00
0003E03E00
0001F07C00
0000F0F800
0000F9F000
00007FC000
00003F8000
00003F0000
0000000000
0000000000
0000000000
00003F0000
0003FFF000
000FFFFC00
001FFFFE00
007FFFFF00
00FF007F80
01FC001FC0
03F0000FC0
07E00007C0
07C00003E0
0F800003E0
1F800003E0
1F000001E0
3E000001F0
3E00000000
7E00000000
7C00000000
7C00000000
7C00000000
F800000000
F800000000
F800000000
F800000000
F800000000
F800000000
F800000000
F800000000
F800000000
F800000F80
FC00001F00
7C00003E00
7E00007E00
7E0000FC00
3F0001F800
3F8007F000
1FF01FE000
0FFFFFC000
07FFFF8000
03FFFE0000
007FF00000
ENDCHAR
STARTCHAR 010D
ENCODING 269
SWIDTH 558 0
DWIDTH 31 0
BBX 28 41 4 0
BITMAP
003E01F0
001E03E0
001F07C0
000F8F00
0007DE00
0003FC00
0003F800
0001F000
00000000
00000000
00000000
0007F800
003FFE00
00FFFF80
01FFFFC0
03F81FC0
07E007E0
0FC003E0
0F8001F0
1F0001F0
3F0001F0
3E0001F0
3E000000
7C000000
7C000000
7C000000
78000000
F8000000
F8000000
F8000000
F80003E0
780007C0
7C0007C0
7C000F80
7E001F80
3E003F00
3F807E00
1FFFFC00
0FFFF800
07FFE000
01FF8000
ENDCHAR
STARTCHAR 010E
ENCODING 270
SWIDTH 684 0
DWIDTH 38 0
BBX 35 51 4 0
BITMAP
0003E01F00
0001E03E00
0001F07C00
0000F8F800
000079F000
00007FE000
00003FC000
00001F8000
0000000000
0000000000
0000000000
0000000000
01FFFF8000
01FFFFF000
03FFFFFC00
03FFFFFE00
03E00FFF00
03E0007F80
03C0001FC0
03C0000FC0
07C00007C0
07C00007E0
07C00003E0
07C00003E0
07800003E0
0F800003E0
0F800003E0
0F800003E0
0F800003E0
0F000003E0
0F000003E0
1F000003E0
1F000003E0
1F000003E0
1F000007C0
1E000007C0
1E000007C0
3E00000F80
3E00000F80
3E00001F80
3E00003F00
3C00003E00
3C00007E00
7C0001FC00
7C0003F800
7C000FF000
7C01FFE000
7FFFFFC000
7FFFFF0000
FFFFFC0000
FFFFE00000
ENDCHAR
STARTCHAR 010F
ENCODING 271
SWIDTH 738 0
DWIDTH 41 0
BBX 43 43 4 1
BITMAP
000000000FC0
0000000F8FE0
0000000F9FE0
0000000F1FE0
0000001F1FC0
0000001F03C0
0000001F01C0
0000001F01C0
0000001F0180
0000001E0380
0000003E0300
0000003E0E00
0000003E1C00
000FE03E1000
003FF83E0000
00FFFC3C0000
01FFFE7C0000
03FC1F7C0000
07E0077C0000
0FC003FC0000
1F8003FC0000
1F0001F80000
3F0001F80000
3E0001F80000
3E0000F80000
7C0000F80000
7C0001F80000
7C0001F00000
7C0001F00000
FC0001F00000
F80001F00000
F80003F00000
F80003F00000
FC0007E00000
7C0007E00000
7C000FE00000
7E001FE00000
7F003BE00000
3F80F3E00000
3FFFF3C00000
1FFFC7C00000
0FFF87C00000
03FE07C00000
ENDCHAR
STARTCHAR 0110
ENCODING 272
SWIDTH 702 0
DWIDTH 39 0
BBX 35 39 6 0
BITMAP
03FFFE0000
03FFFFE000
03FFFFF800
03FFFFFC00
03C03FFE00
07C000FF00
07C0003F80
07C0001F80
07C0000FC0
07800007C0
07800007E0
0F800003E0
0F800003E0
0F800003E0
0F800003E0
0F000003E0
1F000003E0
FFFF0003E0
FFFE0003E0
FFFE0003E0
FFFE0003C0
1E000007C0
3E000007C0
3E000007C0
3E00000F80
3E00000F80
3C00001F80
3C00001F00
7C00003E00
7C00007E00
7C0000FC00
7C0001F800
780007F000
78001FE000
F803FFC000
FFFFFF8000
FFFFFE0000
FFFFF80000
FFFFC00000
ENDCHAR
STARTCHAR 0111
ENCODING 273
SWIDTH 648 0
DWIDTH 36 0
BBX 37 42 4 0
BITMAP
0000000F80
0000000F80
0000000F00
0000001F00
0000001F00
00001FFFF8
00001FFFF0
00001FFFF0
0000001E00
0000003E00
0000003E00
0000003E00
000FE03E00
003FF83E00
00FFFC3C00
01FFFE7C00
03FC1F7C00
07E0077C00
0FC003FC00
1F8003FC00
1F0001F800
3F0001F800
3E0001F800
3E0000F800
7C0000F800
7C0001F800
7C0001F000
7C0001F000
FC0001F000
F80001F000
F80003F000
F80003F000
FC0007E000
7C0007E000
7C000FE000
7E001FE000
7F003BE000
3F80F3E000
3FFFF3C000
1FFFC7C000
0FFF87C000
03FE07C000
ENDCHAR
STARTCHAR 0112
ENCODING 274
SWIDTH 558 0
DWIDTH 31 0
BBX 31 47 4 0
BITMAP
000FFFF0
001FFFF0
001FFFF0
00000000
00000000
00000000
00000000
00000000
01FFFFFE
01FFFFFE
03FFFFFC
03FFFFFC
03E00000
03E00000
03E00000
03C00000
07C00000
07C00000
07C00000
07C00000
07C00000
0F800000
0F800000
0F800000
0F800000
0FFFFF80
0FFFFF80
1FFFFF80
1FFFFF80
1F000000
1F000000
1F000000
1E000000
3E000000
3E000000
3E000000
3E000000
3E000000
3C000000
7C000000
7C000000
7C000000
7C000000
7FFFFF80
7FFFFF80
FFFFFF00
FFFFFF00
ENDCHAR
STARTCHAR 0113
ENCODING 275
SWIDTH 558 0
DWIDTH 31 0
BBX 28 37 4 0
BITMAP
003FFFE0
003FFFE0
00000000
00000000
00000000
00000000
00000000
000FFE00
003FFF80
00FFFFC0
01FFFFE0
03F007E0
07C003E0
0F8001F0
1F0001F0
1F0001F0
3E0001F0
3E0003E0
7C0003E0
7C000FC0
7FFFFF80
7FFFFF00
7FFFFC00
78000000
F8000000
F8000000
78000000
78000000
7C0007C0
7C000F80
3E001F80
3F003F00
1F80FE00
1FFFFC00
0FFFF800
03FFE000
00FF8000
ENDCHAR
STARTCHAR 0116
ENCODING 278
SWIDTH 558 0
DWIDTH 31 0
BBX 31 51 4 0
BITMAP
00000800
00003E00
00007E00
00007E00
00007E00
00007C00
00003000
00000000
00000000
00000000
00000000
00000000
01FFFFFE
01FFFFFE
03FFFFFC
03FFFFFC
03E00000
03E00000
03E00000
03C00000
07C00000
07C00000
07C00000
07C00000
07C00000
0F800000
0F800000
0F800000
0F800000
0FFFFF80
0FFFFF80
1FFFFF80
1FFFFF80
1F000000
1F000000
1F000000
1E000000
3E000000
3E000000
3E000000
3E000000
3E000000
3C000000
7C000000
7C000000
7C000000
7C000000
7FFFFF80
7FFFFF80
FFFFFF00
FFFFFF00
ENDCHAR
STARTCHAR 0117
ENCODING 279
SWIDTH 558 0
DWIDTH 31 0
BBX 28 41 4 0
BITMAP
00003800
00007C00
0000FC00
0000FC00
0000FC00
0000F800
00000000
00000000
00000000
00000000
00000000
000FFE00
003FFF80
00FFFFC0
01FFFFE0
03F007E0
07C003E0
0F8001F0
1F0001F0
1F0001F0
3E0001F0
3E0003E0
7C0003E0
7C000FC0
7FFFFF80
7FFFFF00
7FFFFC00
78000000
F8000000
F8000000
78000000
78000000
7C0007C0
7C000F80
3E001F80
3F003F00
1F80FE00
1FFFFC00
0FFFF800
03FFE000
00FF8000
ENDCHAR
STARTCHAR 0118
ENCODING 280
SWIDTH 558 0
DWIDTH 31 0
BBX 31 48 4 -9
BITMAP
01FFFFFE
01FFFFFE
03FFFFFC
03FFFFFC
03E00000
03E00000
03E00000
03C00000
07C00000
07C00000
07C00000
07C00000
07C00000
0F800000
0F800000
0F800000
0F800000
0FFFFF80
0FFFFF80
1FFFFF80
1FFFFF80
1F000000
1F000000
1F000000
1E000000
3E000000
3E000000
3E000000
3E000000
3E000000
3C000000
7C000000
7C000000
7C000000
7C000000
7FFFFF80
7FFFFF80
FFFFFF00
FFFFFF00
00001E00
00003C00
00007800
00007000
00007000
00007800
00007F80
00003F80
00001F80
ENDCHAR
STARTCHAR 0119
ENCODING 281
SWIDTH 558 0
DWIDTH 31 0
BBX 28 39 4 -9
BITMAP
000FFE00
003FFF80
00FFFFC0
01FFFFE0
03F007E0
07C003E0
0F8001F0
1F0001F0
1F0001F0
3E0001F0
3E0003E0
7C0003E0
7C000FC0
7FFFFF80
7FFFFF00
7FFFFC00
78000000
F8000000
F8000000
78000000
78000000
7C0007C0
7C000F80
3E001F80
3F003F00
1F80FE00
1FFFFC00
0FFFF800
03FFE000
00FF8000
000F0000
001E0000
003C0000
00380000
00780000
00780000
007FC000
003F8000
001F8000
ENDCHAR
STARTCHAR 011A
ENCODING 282
SWIDTH 558 0
DWIDTH 31 0
BBX 31 51 4 0
BITMAP
001F007C
000F80F8
0007C1F0
0003C3E0
0003E7C0
0001FF80
0000FE00
00007C00
00000000
00000000
00000000
00000000
01FFFFFE
01FFFFFE
03FFFFFC
03FFFFFC
03E00000
03E00000
03E00000
03C00000
07C00000
07C00000
07C00000
07C00000
07C00000
0F800000
0F800000
0F800000
0F800000
0FFFFF80
0FFFFF80
1FFFFF80
1FFFFF80
1F000000
1F000000
1F000000
1E000000
3E000000
3E000000
3E000000
3E000000
3E000000
3C000000
7C000000
7C000000
7C000000
7C000000
7FFFFF80
7FFFFF80
FFFFFF00
FFFFFF00
ENDCHAR
STARTCHAR 011B
ENCODING 283
SWIDTH 558 0
DWIDTH 31 0
BBX 28 41 4 0
BITMAP
001E00F0
001F03E0
000F87C0
0007CF80
0003DF00
0003FE00
0001FC00
0000F800
00000000
00000000
00000000
000FFE00
003FFF80
00FFFFC0
01FFFFE0
03F007E0
07C003E0
0F8001F0
1F0001F0
1F0001F0
3E0001F0
3E0003E0
7C0003E0
7C000FC0
7FFFFF80
7FFFFF00
7FFFFC00
78000000
F8000000
F8000000
78000000
78000000
7C0007C0
7C000F80
3E001F80
3F003F00
1F80FE00
1FFFFC00
0FFFF800
03FFE000
00FF8000
ENDCHAR
STARTCHAR 011E
ENCODING 286
SWIDTH 702 0
DWIDTH 39 0
BBX 35 49 6 0
BITMAP
0003C01F00
0003E03E00
0001F8FC00
0000FFF000
00007FE000
0000070000
0000000000
0000000000
0000000000
00003F0000
0003FFF000
000FFFF800
003FFFFE00
007FFFFF00
00FF007F00
01FC001F80
03F0000FC0
07E0000FC0
0FC00007C0
0F800007E0
1F800003E0
1F000003E0
3E00000000
3E00000000
7C00000000
7C00000000
7C00000000
7C00000000
F800000000
F8003FFFC0
F8003FFF80
F8003FFF80
F8003FFF80
F800000F80
F800000F80
F800000F80
F800000F00
F800001F00
F800001F00
7C00003F00
7C00007F00
7E00007F00
3F0001FE00
3F8003FE00
1FC00FDE00
0FFFFF9E00
07FFFE1E00
03FFFC1E00
00FFF01C00
ENDCHAR
STARTCHAR 011F
ENCODING 287
SWIDTH 594 0
DWIDTH 33 0
BBX 31 52 4 -12
BITMAP
003C00F0
003C01E0
001E03E0
001FFFC0
000FFF00
0003FC00
00000000
00000000
00000000
00000000
001FE000
007FF83E
00FFFC3C
03FFFE7C
07F81F7C
07E0077C
0FC003FC
1F8001FC
1F0001F8
3F0001F8
3E0000F8
7E0000F8
7C0000F8
7C0000F8
7C0001F0
7C0001F0
FC0001F0
FC0001F0
FC0003F0
FC0003F0
7C0007E0
7C000FE0
7E001FE0
7F003BE0
3F807BE0
3FFFF3C0
1FFFE7C0
0FFF87C0
03FF07C0
002007C0
00000780
00000F80
00000F80
00001F00
00003F00
00007E00
0000FC00
03FFF800
03FFF000
03FFE000
03FF8000
00F80000
ENDCHAR
STARTCHAR 0120
ENCODING 288
SWIDTH 702 0
DWIDTH 39 0
BBX 35 51 6 0
BITMAP
0000010000
00000F8000
00000F8000
00001F8000
00001F8000
00000F0000
0000060000
0000000000
0000000000
0000000000
0000000000
00003F0000
0003FFF000
000FFFF800
003FFFFE00
007FFFFF00
00FF007F00
01FC001F80
03F0000FC0
07E0000FC0
0FC00007C0
0F800007E0
1F800003E0
1F000003E0
3E00000000
3E00000000
7C00000000
7C00000000
7C00000000
7C00000000
F800000000
F8003FFFC0
F8003FFF80
F8003FFF80
F8003FFF80
F800000F80
F800000F80
F800000F80
F800000F00
F800001F00
F800001F00
7C00003F00
7C00007F00
7E00007F00
3F0001FE00
3F8003FE00
1FC00FDE00
0FFFFF9E00
07FFFE1E00
03FFFC1E00
00FFF01C00
ENDCHAR
STARTCHAR 0121
ENCODING 289
SWIDTH 594 0
DWIDTH 33 0
BBX 31 53 4 -12
BITMAP
00007800
0000FC00
0000FC00
0001FC00
0000F800
0000F000
00000000
00000000
00000000
00000000
00000000
001FE000
007FF83E
00FFFC3C
03FFFE7C
07F81F7C
07E0077C
0FC003FC
1F8001FC
1F0001F8
3F0001F8
3E0000F8
7E0000F8
7C0000F8
7C0000F8
7C0001F0
7C0001F0
FC0001F0
FC0001F0
FC0003F0
FC0003F0
7C0007E0
7C000FE0
7E001FE0
7F003BE0
3F807BE0
3FFFF3C0
1FFFE7C0
0FFF87C0
03FF07C0
002007C0
00000780
00000F80
00000F80
00001F00
00003F00
00007E00
0000FC00
03FFF800
03FFF000
03FFE000
03FF8000
00F80000
ENDCHAR
STARTCHAR 0126
ENCODING 294
SWIDTH 684 0
DWIDTH 38 0
BBX 38 39 5 0
BITMAP
03E00001F0
03E00001E0
03E00003E0
03C00003E0
07C00003E0
07C00003E0
07C00003E0
3FFFFFFFFC
3FFFFFFFF8
7FFFFFFFF8
0F800007C0
0F800007C0
0F800007C0
0F80000F80
0F80000F80
0F00000F80
1F00000F80
1FFFFFFF80
1FFFFFFF00
1FFFFFFF00
1FFFFFFF00
3E00001F00
3E00001F00
3E00001F00
3E00001E00
3E00003E00
3E00003E00
7C00003E00
7C00003E00
7C00003E00
7C00003C00
7C00007C00
7C00007C00
F800007C00
F800007C00
F800007C00
F800007800
F80000F800
F00000F800
ENDCHAR
STARTCHAR 0127
ENCODING 295
SWIDTH 594 0
DWIDTH 33 0
BBX 29 42 5 0
BITMAP
01E00000
01E00000
03E00000
03E00000
03E00000
3FFFE000
7FFFE000
7FFFE000
07C00000
07C00000
07C00000
07C00000
07807F80
0F83FFC0
0F87FFE0
0F9FFFF0
0FBE0FF0
0FB803F8
0FE001F8
1FC000F8
1FC000F8
1F8000F8
1F0000F8
1F0000F8
1F0000F8
3E0000F0
3E0000F0
3E0001F0
3E0001F0
3E0001F0
3C0001F0
7C0001E0
7C0001E0
7C0003E0
7C0003E0
7C0003E0
780003E0
F80003C0
F80007C0
F80007C0
F80007C0
F80007C0
ENDCHAR
STARTCHAR 0128
ENCODING 296
SWIDTH 234 0
DWIDTH 13 0
BBX 20 50 4 0
BITMAP
07E070
0FF8F0
1FFFE0
3C7FC0
381F80
000000
000000
000000
000000
000000
000000
01F000
01F000
01E000
03E000
03E000
03E000
03E000
03E000
03C000
07C000
07C000
07C000
07C000
07C000
0F8000
0F8000
0F8000
0F8000
0F8000
0F8000
1F0000
1F0000
1F0000
1F0000
1F0000
1E0000
3E0000
3E0000
3E0000
3E0000
3E0000
3C0000
7C0000
7C0000
7C0000
7C0000
7C0000
780000
F80000
ENDCHAR
STARTCHAR 0129
ENCODING 297
SWIDTH 234 0
DWIDTH 13 0
BBX 19 41 4 0
BITMAP
0200E0
1FC1E0
3FFFC0
7FFF80
F0FF00
E03C00
000000
000000
000000
000000
000000
000000
07C000
07C000
07C000
07C000
07C000
078000
0F8000
0F8000
0F8000
0F8000
0F0000
0F0000
1F0000
1F0000
1F0000
1F0000
1E0000
1E0000
3E0000
3E0000
3E0000
3E0000
3C0000
7C0000
7C0000
7C0000
7C0000
7C0000
780000
ENDCHAR
STARTCHAR 012A
ENCODING 298
SWIDTH 234 0
DWIDTH 13 0
BBX 19 47 4 0
BITMAP
3FFFE0
3FFFE0
3FFFE0
000000
000000
000000
000000
000000
01F000
01F000
01E000
03E000
03E000
03E000
03E000
03E000
03C000
07C000
07C000
07C000
07C000
07C000
0F8000
0F8000
0F8000
0F8000
0F8000
0F8000
1F0000
1F0000
1F0000
1F0000
1F0000
1E0000
3E0000
3E0000
3E0000
3E0000
3E0000
3C0000
7C0000
7C0000
7C0000
7C0000
7C0000
780000
F80000
ENDCHAR
STARTCHAR 012B
ENCODING 299
SWIDTH 234 0
DWIDTH 13 0
BBX 17 37 5 0
BITMAP
FFFF80
FFFF00
000000
000000
000000
000000
000000
000000
0F8000
0F8000
0F8000
0F8000
0F8000
0F0000
1F0000
1F0000
1F0000
1F0000
1E0000
1E0000
3E0000
3E0000
3E0000
3E0000
3C0000
3C0000
7C0000
7C0000
7C0000
7C0000
780000
F80000
F80000
F80000
F80000
F80000
F00000
ENDCHAR
STARTCHAR 012E
ENCODING 302
SWIDTH 234 0
DWIDTH 13 0
BBX 14 48 2 -9
BITMAP
007C
007C
0078
00F8
00F8
00F8
00F8
00F8
00F0
01F0
01F0
01F0
01F0
01F0
03E0
03E0
03E0
03E0
03E0
03E0
07C0
07C0
07C0
07C0
07C0
0780
0F80
0F80
0F80
0F80
0F80
0F00
1F00
1F00
1F00
1F00
1F00
1E00
3E00
3C00
7800
F000
E000
E000
F000
FF00
7F00
3F00
ENDCHAR
STARTCHAR 012F
ENCODING 303
SWIDTH 234 0
DWIDTH 13 0
BBX 15 50 2 -9
BITMAP
0038
007C
00FE
00FC
00FC
0078
0000
0000
0000
0000
0000
0000
01F0
01F0
01F0
01F0
01F0
01E0
03E0
03E0
03E0
03E0
03C0
03C0
07C0
07C0
07C0
07C0
0780
0780
0F80
0F80
0F80
0F80
0F00
1F00
1F00
1F00
1F00
1F00
1E00
3C00
7800
7000
F000
F000
F000
FF00
7F00
3F00
ENDCHAR
STARTCHAR 0130
ENCODING 304
SWIDTH 234 0
DWIDTH 13 0
BBX 14 51 4 0
BITMAP
0010
007C
00FC
00FC
00FC
00F8
0060
0000
0000
0000
0000
0000
01F0
01F0
01E0
03E0
03E0
03E0
03E0
03E0
03C0
07C0
07C0
07C0
07C0
07C0
0F80
0F80
0F80
0F80
0F80
0F80
1F00
1F00
1F00
1F00
1F00
1E00
3E00
3E00
3E00
3E00
3E00
3C00
7C00
7C00
7C00
7C00
7C00
7800
F800
ENDCHAR
STARTCHAR 0131
ENCODING 305
SWIDTH 234 0
DWIDTH 13 0
BBX 9 29 5 0
BITMAP
0F80
0F80
0F80
0F80
0F80
0F00
1F00
1F00
1F00
1F00
1E00
1E00
3E00
3E00
3E00
3E00
3C00
3C00
7C00
7C00
7C00
7C00
7800
F800
F800
F800
F800
F800
F000
ENDCHAR
STARTCHAR 0139
ENCODING 313
SWIDTH 522 0
DWIDTH 29 0
BBX 24 53 4 0
BITMAP
0001F0
0003E0
0003C0
0007C0
000F80
001F00
001E00
003C00
007800
007000
000000
000000
000000
000000
01F000
01E000
03E000
03E000
03E000
03E000
03E000
03C000
07C000
07C000
07C000
07C000
07C000
0F8000
0F8000
0F8000
0F8000
0F8000
0F0000
1F0000
1F0000
1F0000
1F0000
1F0000
1E0000
3E0000
3E0000
3E0000
3E0000
3E0000
3C0000
7C0000
7C0000
7C0000
7C0000
7FFFFF
7FFFFF
FFFFFE
FFFFFE
ENDCHAR
STARTCHAR 013A
ENCODING 314
SWIDTH 306 0
DWIDTH 17 0
BBX 19 55 5 0
BITMAP
0003E0
0007C0
000780
000F80
001F00
001E00
003C00
007800
00F000
00F000
000000
000000
000000
03E000
03E000
03E000
03E000
03E000
03C000
07C000
07C000
07C000
07C000
07C000
078000
0F8000
0F8000
0F8000
0F8000
0F0000
1F0000
1F0000
1F0000
1F0000
1F0000
1E0000
3E0000
3E0000
3E0000
3E0000
3E0000
3C0000
7C0000
7C0000
7C0000
7C0000
7C0000
780000
F80000
F80000
FC0000
FE0000
7FE000
7FC000
3FC000
ENDCHAR
STARTCHAR 013D
ENCODING 317
SWIDTH 522 0
DWIDTH 29 0
BBX 24 51 4 0
BITMAP
3E00F0
1E03E0
1F07C0
0F8F80
07DF00
03FE00
03FC00
01F800
000000
000000
000000
000000
01F000
01E000
03E000
03E000
03E000
03E000
03E000
03C000
07C000
07C000
07C000
07C000
07C000
0F8000
0F8000
0F8000
0F8000
0F8000
0F0000
1F0000
1F0000
1F0000
1F0000
1F0000
1E0000
3E0000
3E0000
3E0000
3E0000
3E0000
3C0000
7C0000
7C0000
7C0000
7C0000
7FFFFF
7FFFFF
FFFFFE
FFFFFE
ENDCHAR
STARTCHAR 013E
ENCODING 318
SWIDTH 342 0
DWIDTH 19 0
BBX 14 43 5 1
BITMAP
00FC
03FC
03FC
03FC
03FC
03FC
03DC
07DC
07D8
07F8
07F0
07E0
07C0
0F80
0F80
0F80
0F80
0F80
1F00
1F00
1F00
1F00
1F00
1E00
3E00
3E00
3E00
3E00
3E00
3C00
7C00
7C00
7C00
7C00
7C00
7800
F800
F800
FC00
FE00
7FE0
7FC0
3FC0
ENDCHAR
STARTCHAR 0143
ENCODING 323
SWIDTH 702 0
DWIDTH 39 0
BBX 38 53 4 0
BITMAP
0000000F80
0000000F00
0000001F00
0000003E00
0000007C00
0000007800
000000F000
000001E000
000003E000
000003C000
0000000000
0000000000
0000000000
0000000000
01F000007C
01F800007C
03F800007C
03FC000078
03FC0000F8
03FE0000F8
03FE0000F8
03FF0000F8
07DF0000F8
07DF8000F0
07CF8001F0
07CFC001F0
0787C001F0
0F87E001F0
0F83E001F0
0F83F001E0
0F81F003E0
0F81F803E0
0F00F803E0
1F00FC03E0
1F007C03E0
1F007E03C0
1F003E07C0
1F003F07C0
1E001F07C0
3E001F87C0
3E000F8780
3E000FCF80
3E0007CF80
3E0007EF80
3C0003EF80
7C0003FF80
7C0001FF00
7C0001FF00
7C0000FF00
7C0000FF00
7800007F00
F800007F00
F800003E00
ENDCHAR
STARTCHAR 0144
ENCODING 324
SWIDTH 612 0
DWIDTH 34 0
BBX 29 43 4 0
BITMAP
000000F8
000001F0
000003E0
000007C0
00000780
00000F00
00001E00
00001E00
00003C00
00007800
00000000
00000000
00000000
0000FF00
07C3FFC0
07C7FFE0
07DFFFF0
079E0FF0
0FB803F8
0FE001F8
0FC000F8
0FC000F8
0F8000F8
1F800078
1F000078
1F0000F8
1F0000F8
1F0000F8
1E0000F8
3E0000F8
3E0000F0
3E0001F0
3E0001F0
3E0001F0
3C0001F0
7C0001E0
7C0001E0
7C0003E0
7C0003E0
7C0003E0
780003E0
F80003C0
F80003C0
ENDCHAR
STARTCHAR 0147
ENCODING 327
SWIDTH 702 0
DWIDTH 39 0
BBX 38 51 4 0
BITMAP
0001F007C0
0000F80F80
0000781E00
00007C3C00
00003EF800
00001FF000
00000FE000
00000FC000
0000000000
0000000000
0000000000
0000000000
01F000007C
01F800007C
03F800007C
03FC000078
03FC0000F8
03FE0000F8
03FE0000F8
03FF0000F8
07DF0000F8
07DF8000F0
07CF8001F0
07CFC001F0
0787C001F0
0F87E001F0
0F83E001F0
0F83F001E0
0F81F003E0
0F81F803E0
0F00F803E0
1F00FC03E0
1F007C03E0
1F007E03C0
1F003E07C0
1F003F07C0
1E001F07C0
3E001F87C0
3E000F8780
3E000FCF80
3E0007CF80
3E0007EF80
3C0003EF80
7C0003FF80
7C0001FF00
7C0001FF00
7C0000FF00
7C0000FF00
7800007F00
F800007F00
F800003E00
ENDCHAR
STARTCHAR 0148
ENCODING 328
SWIDTH 612 0
DWIDTH 34 0
BBX 29 41 4 0
BITMAP
001F00F8
000F81F0
000783E0
0007C7C0
0003EF80
0001FE00
0001FC00
0000F800
00000000
00000000
00000000
0000FF00
07C3FFC0
07C7FFE0
07DFFFF0
079E0FF0
0FB803F8
0FE001F8
0FC000F8
0FC000F8
0F8000F8
1F800078
1F000078
1F0000F8
1F0000F8
1F0000F8
1E0000F8
3E0000F8
3E0000F0
3E0001F0
3E0001F0
3E0001F0
3C0001F0
7C0001E0
7C0001E0
7C0003E0
7C0003E0
7C0003E0
780003E0
F80003C0
F80003C0
ENDCHAR
STARTCHAR 014C
ENCODING 332
SWIDTH 720 0
DWIDTH 40 0
BBX 36 47 6 0
BITMAP
0003FFFE00
0003FFFC00
0003FFFC00
0000000000
0000000000
0000000000
0000000000
00003F0000
0003FFF000
000FFFFC00
003FFFFE00
007FFFFF00
00FF007F80
01FC001F80
03F0000FC0
07E0000FC0
0FC00007E0
0F800003E0
1F800003E0
1F000003E0
3E000003F0
3E000003F0
7E000001F0
7C000001F0
7C000001F0
FC000003F0
F8000003E0
F8000003E0
F8000003E0
F8000003E0
F8000007E0
F8000007C0
F8000007C0
F800000FC0
F800000F80
F800001F80
FC00001F00
FC00003F00
7E00007E00
7E0000FC00
3F0001F800
3F8007F000
1FF03FE000
0FFFFFC000
07FFFF8000
03FFFE0000
00FFF00000
ENDCHAR
STARTCHAR 014D
ENCODING 333
SWIDTH 576 0
DWIDTH 32 0
BBX 28 37 4 0
BITMAP
003FFFC0
003FFFC0
00000000
00000000
00000000
00000000
00000000
0007F800
003FFE00
007FFF80
01FFFFC0
03F81FC0
07E007E0
0FC003E0
0F8003F0
1F0001F0
3E0001F0
3E0001F0
3C0000F0
7C0000F0
7C0001F0
7C0001F0
780001F0
F80001F0
F80001F0
F80003E0
F80003E0
F80007C0
7C0007C0
7C000F80
7E001F80
3F003F00
3F80FE00
1FFFFC00
0FFFF800
07FFE000
01FF8000
ENDCHAR
STARTCHAR 0152
ENCODING 338
SWIDTH 954 0
DWIDTH 53 0
BBX 52 39 5 0
BITMAP
00003FFFFFFFF0
0003FFFFFFFFE0
000FFFFFFFFFE0
003FFFFFFFFFE0
007FF01F000000
00FF001F000000
01FC001E000000
03F0003E000000
07E0003E000000
0FC0003E000000
0F80003E000000
1F80003E000000
1F00003C000000
3F00007C000000
3E00007C000000
3E00007C000000
7C00007C000000
7C00007FFFFC00
7C00007FFFFC00
7C0000FFFFFC00
7C0000FFFFFC00
FC0000F8000000
F80000F8000000
F80000F8000000
F80001F0000000
FC0001F0000000
FC0001F0000000
7C0001F0000000
7C0001F0000000
7E0001E0000000
7E0003E0000000
3F0003E0000000
3F8003E0000000
1FE003E0000000
0FFC03E0000000
07FFFFFFFFFC00
03FFFFFFFFF800
00FFFFFFFFF800
003FFFFFFFF800
ENDCHAR
STARTCHAR 0153
ENCODING 339
SWIDTH 972 0
DWIDTH 54 0
BBX 50 30 5 0
BITMAP
0007F0001FE000
003FFC007FFC00
00FFFF01FFFE00
01FFFF83FFFF00
03F83F87E03F00
07E00FCF800F80
0FC007DF000F80
1F8003FE0007C0
1F0003FC0007C0
3E0001FC0007C0
3E0001F80007C0
7C0001F80007C0
7C0001F00007C0
780001FFFFFFC0
F80001FFFFFFC0
F80001FFFFFFC0
F80003FFFFFF80
F80003F0000000
F80003F0000000
F80007F0000000
F80007F0000000
F8000FF0001F00
7C000FF0001F00
7C001FF8003E00
7E007E7C007C00
3F00FC7E01F800
3FFFF83FFFF000
1FFFF01FFFE000
0FFFC00FFFC000
03FF0007FE0000
ENDCHAR
STARTCHAR 0154
ENCODING 340
SWIDTH 594 0
DWIDTH 33 0
BBX 32 53 4 0
BITMAP
000000F8
000000F0
000001F0
000003E0
000007C0
00000780
00000F00
00001E00
00001E00
00003C00
00000000
00000000
00000000
00000000
01FFFF00
01FFFFE0
03FFFFF0
03FFFFF8
03E01FFC
03E000FE
03C0003E
03C0003E
07C0001F
07C0001F
07C0001F
07C0001F
0780001E
0F80003E
0F80003E
0F80007C
0F8000FC
0F8001F8
0F0007F0
1FFFFFE0
1FFFFFC0
1FFFFF80
1FFFFC00
1FFFF000
1E01F000
3E00F800
3E00F800
3E00FC00
3E007C00
3E007E00
3C003E00
7C003F00
7C001F00
7C001F80
7C000F80
7C000FC0
780007C0
F80007C0
F80003E0
ENDCHAR
STARTCHAR 0155
ENCODING 341
SWIDTH 342 0
DWIDTH 19 0
BBX 22 43 4 0
BITMAP
00007C
0000F8
0001F0
0003E0
0003C0
000780
000F00
000F00
001E00
003C00
000000
000000
000000
000000
07C7F0
078FF0
0F9FE0
0FBFE0
0FFC20
0FE000
0FC000
0F8000
1F8000
1F0000
1F0000
1F0000
1F0000
1E0000
3E0000
3E0000
3E0000
3E0000
3E0000
3C0000
7C0000
7C0000
7C0000
7C0000
7C0000
780000
F80000
F80000
F80000
ENDCHAR
STARTCHAR 0158
ENCODING 344
SWIDTH 594 0
DWIDTH 33 0
BBX 32 51 4 0
BITMAP
001F007C
000F80F8
000781E0
0007C3C0
0003EF80
0001FF00
0000FE00
0000FC00
00000000
00000000
00000000
00000000
01FFFF00
01FFFFE0
03FFFFF0
03FFFFF8
03E01FFC
03E000FE
03C0003E
03C0003E
07C0001F
07C0001F
07C0001F
07C0001F
0780001E
0F80003E
0F80003E
0F80007C
0F8000FC
0F8001F8
0F0007F0
1FFFFFE0
1FFFFFC0
1FFFFF80
1FFFFC00
1FFFF000
1E01F000
3E00F800
3E00F800
3E00FC00
3E007C00
3E007E00
3C003E00
7C003F00
7C001F00
7C001F80
7C000F80
7C000FC0
780007C0
F80007C0
F80003E0
ENDCHAR
STARTCHAR 0159
ENCODING 345
SWIDTH 342 0
DWIDTH 19 0
BBX 22 41 4 0
BITMAP
0F807C
07C0F8
03C1F0
03E3E0
01F7C0
00FF00
00FE00
007C00
000000
000000
000000
000000
07C7F0
078FF0
0F9FE0
0FBFE0
0FFC20
0FE000
0FC000
0F8000
1F8000
1F0000
1F0000
1F0000
1F0000
1E0000
3E0000
3E0000
3E0000
3E0000
3E0000
3C0000
7C0000
7C0000
7C0000
7C0000
7C0000
780000
F80000
F80000
F80000
ENDCHAR
STARTCHAR 015A
ENCODING 346
SWIDTH 594 0
DWIDTH 33 0
BBX 30 53 5 0
BITMAP
0000007C
000000F8
000000F0
000001F0
000003E0
000007C0
00000780
00000F00
00001E00
00001E00
00000000
00000000
00000000
0001F800
000FFF00
003FFFC0
00FFFFE0
01FFFFF0
03F803F8
03F001F8
07C000FC
07C000FC
0F8000FC
0F80007C
0F80007C
0F800000
0F800000
0F800000
0FC00000
0FE00000
07FC0000
03FFE000
01FFFC00
00FFFF00
001FFF80
0000FFC0
00000FE0
000007E0
000003E0
000003F0
F80003F0
F80003F0
F80003E0
F80003E0
FC0003E0
FC0007C0
FE000FC0
7E001F80
7F80FF00
3FFFFE00
1FFFFC00
0FFFF000
03FFC000
ENDCHAR
STARTCHAR 015B
ENCODING 347
SWIDTH 486 0
DWIDTH 27 0
BBX 26 44 4 0
BITMAP
000007C0
00000F80
00000F00
00001F00
00003E00
00007C00
00007800
0000F000
0001E000
0001E000
00020000
00000000
00000000
00000000
001FE000
00FFF800
01FFFC00
03FFFE00
07C03F00
0F801F00
0F001F00
1F001F00
1E001F00
1E000000
1F000000
1F000000
1FE00000
0FFF0000
07FFE000
01FFF800
003FFC00
0001FC00
00007E00
00003E00
F8003E00
F8003E00
F8003C00
F8007C00
FC00FC00
7E01F800
7FFFF000
3FFFE000
1FFF8000
07FE0000
ENDCHAR
STARTCHAR 015E
ENCODING 350
SWIDTH 594 0
DWIDTH 33 0
BBX 30 54 5 -14
BITMAP
0001F800
000FFF00
003FFFC0
00FFFFE0
01FFFFF0
03F803F8
03F001F8
07C000FC
07C000FC
0F8000FC
0F80007C
0F80007C
0F800000
0F800000
0F800000
0FC00000
0FE00000
07FC0000
03FFE000
01FFFC00
00FFFF00
001FFF80
0000FFC0
00000FE0
000007E0
000003E0
000003F0
F80003F0
F80003F0
F80003E0
F80003E0
FC0003E0
FC0007C0
FE000FC0
7E001F80
7F80FF00
3FFFFE00
1FFFFC00
0FFFF000
03FFC000
00380000
00380000
00700000
007E0000
00FF8000
00FF8000
0001C000
0001C000
0001C000
00038000
00078000
01FF0000
01FE0000
01F80000
ENDCHAR
STARTCHAR 015F
ENCODING 351
SWIDTH 486 0
DWIDTH 27 0
BBX 24 44 4 -14
BITMAP
001FE0
00FFF8
01FFFC
03FFFE
07C03F
0F801F
0F001F
1F001F
1E001F
1E0000
1F0000
1F0000
1FE000
0FFF00
07FFE0
01FFF8
003FFC
0001FC
00007E
00003E
F8003E
F8003E
F8003C
F8007C
FC00FC
7E01F8
7FFFF0
3FFFE0
1FFF80
07FE00
007000
00E000
00E000
01FC00
01FF00
03FF00
000700
000300
000300
000700
000E00
03FE00
03F800
03E000
ENDCHAR
STARTCHAR 0160
ENCODING 352
SWIDTH 594 0
DWIDTH 33 0
BBX 30 51 5 0
BITMAP
000F803C
000780F8
0007C1F0
0003E3E0
0001F7C0
0000FF80
0000FF00
00007E00
00000000
00000000
00000000
0001F800
000FFF00
003FFFC0
00FFFFE0
01FFFFF0
03F803F8
03F001F8
07C000FC
07C000FC
0F8000FC
0F80007C
0F80007C
0F800000
0F800000
0F800000
0FC00000
0FE00000
07FC0000
03FFE000
01FFFC00
00FFFF00
001FFF80
0000FFC0
00000FE0
000007E0
000003E0
000003F0
F80003F0
F80003F0
F80003E0
F80003E0
FC0003E0
FC0007C0
FE000FC0
7E001F80
7F80FF00
3FFFFE00
1FFFFC00
0FFFF000
03FFC000
ENDCHAR
STARTCHAR 0161
ENCODING 353
SWIDTH 486 0
DWIDTH 27 0
BBX 26 41 4 0
BITMAP
00F807C0
007C0F00
003E3E00
001E7C00
001FF800
000FF000
0007E000
0003C000
00000000
00000000
00000000
001FE000
00FFF800
01FFFC00
03FFFE00
07C03F00
0F801F00
0F001F00
1F001F00
1E001F00
1E000000
1F000000
1F000000
1FE00000
0FFF0000
07FFE000
01FFF800
003FFC00
0001FC00
00007E00
00003E00
F8003E00
F8003E00
F8003C00
F8007C00
FC00FC00
7E01F800
7FFFF000
3FFFE000
1FFF8000
07FE0000
ENDCHAR
STARTCHAR 0162
ENCODING 354
SWIDTH 576 0
DWIDTH 32 0
BBX 28 53 9 -14
BITMAP
FFFFFFF0
FFFFFFF0
FFFFFFE0
FFFFFFE0
001F0000
001E0000
003E0000
003E0000
003E0000
003E0000
003E0000
003C0000
007C0000
007C0000
007C0000
007C0000
007C0000
00780000
00F80000
00F80000
00F80000
00F80000
00F80000
00F00000
01F00000
01F00000
01F00000
01F00000
01F00000
01E00000
03E00000
03E00000
03E00000
03E00000
03C00000
03C00000
07C00000
07C00000
07C00000
07000000
07000000
0E000000
0FC00000
1FF00000
1FF00000
00380000
00380000
00380000
00700000
00F00000
3FE00000
3FC00000
1E000000
ENDCHAR
STARTCHAR 0163
ENCODING 355
SWIDTH 396 0
DWIDTH 22 0
BBX 18 53 6 -14
BITMAP
00F800
00F000
01F000
01F000
01F000
01F000
01F000
01E000
03E000
03E000
7FFFC0
FFFFC0
FFFFC0
FFFF80
07C000
07C000
07C000
07C000
07C000
078000
0F8000
0F8000
0F8000
0F8000
0F0000
1F0000
1F0000
1F0000
1F0000
1F0000
1E0000
3E0000
3E0000
3E0000
3E0000
3F8C00
3FF800
1FF800
0FF800
070000
070000
0E0000
0FE000
1FF000
1FF800
003800
003800
003800
007000
00F000
3FE000
3FC000
1E0000
ENDCHAR
STARTCHAR 0164
ENCODING 356
SWIDTH 576 0
DWIDTH 32 0
BBX 28 51 9 0
BITMAP
01E00F80
01F01F00
00F83E00
007C7C00
003CF800
003FF000
001FE000
000FC000
00000000
00000000
00000000
00000000
FFFFFFF0
FFFFFFF0
FFFFFFE0
FFFFFFE0
001F0000
001E0000
003E0000
003E0000
003E0000
003E0000
003E0000
003C0000
007C0000
007C0000
007C0000
007C0000
007C0000
00780000
00F80000
00F80000
00F80000
00F80000
00F80000
00F00000
01F00000
01F00000
01F00000
01F00000
01F00000
01E00000
03E00000
03E00000
03E00000
03E00000
03C00000
03C00000
07C00000
07C00000
07C00000
ENDCHAR
STARTCHAR 0165
ENCODING 357
SWIDTH 486 0
DWIDTH 27 0
BBX 21 43 6 1
BITMAP
0001F8
0003F8
0003F8
0003F8
00FBF8
00F0F8
01F038
01F030
01F070
01F060
01F0E0
01E1C0
03E780
03E600
7FFFC0
FFFFC0
FFFFC0
FFFF80
07C000
07C000
07C000
07C000
07C000
078000
0F8000
0F8000
0F8000
0F8000
0F0000
1F0000
1F0000
1F0000
1F0000
1F0000
1E0000
3E0000
3E0000
3E0000
3E0000
3F8C00
3FF800
1FF800
0FF800
ENDCHAR
STARTCHAR 0166
ENCODING 358
SWIDTH 576 0
DWIDTH 32 0
BBX 29 39 8 0
BITMAP
7FFFFFF8
7FFFFFF8
7FFFFFF0
7FFFFFF0
000F8000
000F0000
001F0000
001F0000
001F0000
001F0000
001F0000
001E0000
003E0000
003E0000
003E0000
003E0000
7FFFFF00
FFFFFF00
FFFFFE00
007C0000
007C0000
007C0000
007C0000
00780000
00F80000
00F80000
00F80000
00F80000
00F80000
00F00000
01F00000
01F00000
01F00000
01F00000
01F00000
01E00000
03E00000
03E00000
03E00000
ENDCHAR
STARTCHAR 0167
ENCODING 359
SWIDTH 378 0
DWIDTH 21 0
BBX 20 39 4 0
BITMAP
003E00
003C00
007C00
007C00
007C00
007C00
007C00
007800
00F800
00F800
1FFFF0
3FFFF0
3FFFF0
3FFFE0
01F000
01F000
01F000
01F000
01F000
01E000
03E000
7FFFC0
7FFFC0
FFFFC0
03C000
03C000
07C000
07C000
07C000
07C000
078000
0F8000
0F8000
0F8000
0FC000
0FE300
07FE00
07FE00
03FE00
ENDCHAR
STARTCHAR 0168
ENCODING 360
SWIDTH 684 0
DWIDTH 38 0
BBX 35 51 6 -1
BITMAP
0001F81C00
0003FE3C00
0007FFF800
000F1FF800
000E07E000
0000000000
0000000000
0000000000
0000000000
0000000000
0000000000
0F800003E0
0F800003E0
0F800003E0
0F000003C0
0F000003C0
1F000007C0
1F000007C0
1F000007C0
1F000007C0
1E00000780
3E00000F80
3E00000F80
3E00000F80
3E00000F80
3E00000F80
3C00000F00
7C00001F00
7C00001F00
7C00001F00
7C00001F00
7C00001F00
7800001E00
F800003E00
F800003E00
F800003E00
F800003C00
F800007C00
F800007C00
F80000F800
F80000F800
FC0001F000
7C0003F000
7E0007E000
7F000FC000
3FC07FC000
1FFFFF0000
0FFFFE0000
07FFFC0000
01FFE00000
0008000000
ENDCHAR
STARTCHAR 0169
ENCODING 361
SWIDTH 594 0
DWIDTH 33 0
BBX 28 42 6 -1
BITMAP
000401C0
003F8380
007FFF80
00FFFF00
01E1FE00
01C07800
00000000
00000000
00000000
00000000
00000000
00000000
1F0000F0
1E0001F0
1E0001F0
3E0001F0
3E0001F0
3E0001F0
3E0001E0
3C0003E0
7C0003E0
7C0003E0
7C0003E0
7C0003C0
7C0007C0
780007C0
F80007C0
F80007C0
F80007C0
F8000780
F8000F80
F8000F80
F8001F80
F8001F80
FC003F80
FC006F00
7F01FF00
7FFFDF00
3FFF9F00
1FFE1F00
0FFC1F00
00800000
ENDCHAR
STARTCHAR 016A
ENCODING 362
SWIDTH 684 0
DWIDTH 38 0
BBX 35 48 6 -1
BITMAP
0007FFF800
000FFFF800
000FFFF800
0000000000
0000000000
0000000000
0000000000
0000000000
0F800003E0
0F800003E0
0F800003E0
0F000003C0
0F000003C0
1F000007C0
1F000007C0
1F000007C0
1F000007C0
1E00000780
3E00000F80
3E00000F80
3E00000F80
3E00000F80
3E00000F80
3C00000F00
7C00001F00
7C00001F00
7C00001F00
7C00001F00
7C00001F00
7800001E00
F800003E00
F800003E00
F800003E00
F800003C00
F800007C00
F800007C00
F80000F800
F80000F800
FC0001F000
7C0003F000
7E0007E000
7F000FC000
3FC07FC000
1FFFFF0000
0FFFFE0000
07FFFC0000
01FFE00000
0008000000
ENDCHAR
STARTCHAR 016B
ENCODING 363
SWIDTH 594 0
DWIDTH 33 0
BBX 28 38 6 -1
BITMAP
00FFFF00
00FFFF00
00000000
00000000
00000000
00000000
00000000
00000000
1F0000F0
1E0001F0
1E0001F0
3E0001F0
3E0001F0
3E0001F0
3E0001E0
3C0003E0
7C0003E0
7C0003E0
7C0003E0
7C0003C0
7C0007C0
780007C0
F80007C0
F80007C0
F80007C0
F8000780
F8000F80
F8000F80
F8001F80
F8001F80
FC003F80
FC006F00
7F01FF00
7FFFDF00
3FFF9F00
1FFE1F00
0FFC1F00
00800000
ENDCHAR
STARTCHAR 016E
ENCODING 366
SWIDTH 684 0
DWIDTH 38 0
BBX 35 54 6 -1
BITMAP
00001F8000
00003FC000
000071C000
000060C000
0000E0C000
0000E0C000
0000618000
00007F8000
00003E0000
0000000000
0000000000
0000000000
0000000000
0000000000
0F800003E0
0F800003E0
0F800003E0
0F000003C0
0F000003C0
1F000007C0
1F000007C0
1F000007C0
1F000007C0
1E00000780
3E00000F80
3E00000F80
3E00000F80
3E00000F80
3E00000F80
3C00000F00
7C00001F00
7C00001F00
7C00001F00
7C00001F00
7C00001F00
7800001E00
F800003E00
F800003E00
F800003E00
F800003C00
F800007C00
F800007C00
F80000F800
F80000F800
FC0001F000
7C0003F000
7E0007E000
7F000FC000
3FC07FC000
1FFFFF0000
0FFFFE0000
07FFFC0000
01FFE00000
0008000000
ENDCHAR
STARTCHAR 016F
ENCODING 367
SWIDTH 594 0
DWIDTH 33 0
BBX 28 45 6 -1
BITMAP
0000E000
0003F000
0007F800
000E1800
000C1C00
000C1800
000C1800
000E7000
0007E000
0003C000
00000000
00000000
00000000
00000000
00000000
1F0000F0
1E0001F0
1E0001F0
3E0001F0
3E0001F0
3E0001F0
3E0001E0
3C0003E0
7C0003E0
7C0003E0
7C0003E0
7C0003C0
7C0007C0
780007C0
F80007C0
F80007C0
F80007C0
F8000780
F8000F80
F8000F80
F8001F80
F8001F80
FC003F80
FC006F00
7F01FF00
7FFFDF00
3FFF9F00
1FFE1F00
0FFC1F00
00800000
ENDCHAR
STARTCHAR 0172
ENCODING 370
SWIDTH 684 0
DWIDTH 38 0
BBX 35 48 6 -9
BITMAP
0F800003E0
0F800003E0
0F800003E0
0F000003C0
0F000003C0
1F000007C0
1F000007C0
1F000007C0
1F000007C0
1E00000780
3E00000F80
3E00000F80
3E00000F80
3E00000F80
3E00000F80
3C00000F00
7C00001F00
7C00001F00
7C00001F00
7C00001F00
7C00001F00
7800001E00
F800003E00
F800003E00
F800003E00
F800003C00
F800007C00
F800007C00
F80000F800
F80000F800
FC0001F000
7C0003F000
7E0007E000
7F000FC000
3FC07FC000
1FFFFF8000
0FFFFE0000
07FFFC0000
01FFE00000
001E000000
003C000000
0070000000
00F0000000
00F0000000
00F0000000
00FD000000
007F000000
003F000000
ENDCHAR
STARTCHAR 0173
ENCODING 371
SWIDTH 594 0
DWIDTH 33 0
BBX 28 38 6 -9
BITMAP
1F0000F0
1E0001F0
1E0001F0
3E0001F0
3E0001F0
3E0001F0
3E0001E0
3C0003E0
7C0003E0
7C0003E0
7C0003E0
7C0003C0
7C0007C0
780007C0
F80007C0
F80007C0
F80007C0
F8000780
F8000F80
F8000F80
F8001F80
F8001F80
FC003F80
FC006F00
7F01FF00
7FFFDF00
3FFF9F00
1FFE1F00
0FFC1F00
00803C00
00007000
0000E000
0000E000
0001E000
0001E000
0000FF00
0000FE00
00003E00
ENDCHAR
STARTCHAR 0174
ENCODING 372
SWIDTH 990 0
DWIDTH 55 0
BBX 54 51 7 0
BITMAP
0000001E000000
0000003F000000
0000007F800000
000000FFC00000
000001E3C00000
000003C3E00000
00000781F00000
00001F00F80000
00000000000000
00000000000000
00000000000000
00000000000000
F800007800007C
780000FC000078
780000FC0000F8
7C0001FC0000F0
7C0001FC0001F0
7C0003FC0001F0
7C0003FC0003E0
7C0007FE0003E0
7C0007FE0003C0
7C000FBE0007C0
7C000FBE000780
3C001F3E000F80
3C001F1E000F80
3C003E1E001F00
3C003E1F001F00
3E007C1F003E00
3E007C1F003E00
3E00F81F003C00
3E00F81F007C00
3E01F00F007800
3E01F00F80F800
1E03E00F80F800
1E03E00F81F000
1E07C00F81F000
1E07C00F81E000
1E0F800783E000
1F0F800783C000
1F1F0007C7C000
1F1F0007C7C000
1F3E0007CF8000
1F3E0007CF8000
1F7C0007CF0000
0F7C0003DF0000
0FF80003FE0000
0FF80003FE0000
0FF00003FC0000
0FF00003FC0000
0FE00003FC0000
0FE00003F80000
ENDCHAR
STARTCHAR 0175
ENCODING 373
SWIDTH 810 0
DWIDTH 45 0
BBX 41 41 7 0
BITMAP
00000F800000
00001FC00000
00003FE00000
00007DE00000
0000F9F00000
0001F0F80000
0003C07C0000
0007803C0000
000000000000
000000000000
000000000000
000000000000
F0003E000780
F8003E000F80
F8007E000F00
F8007E001F00
F800FF001E00
F800FF001E00
7801FF003E00
7801FF003C00
7803EF007C00
7803CF007800
7807CF00F800
7C078F80F000
7C0F8F81F000
7C0F0F81E000
7C1F0781E000
3C1F0783E000
3C3E0783C000
3C3E0787C000
3C3C07C78000
3C7C07CF8000
3C7807CF0000
3EF807DF0000
3EF003DE0000
3FF003DE0000
3FE003FE0000
1FE003FC0000
1FC003FC0000
1FC003F80000
1F8003F80000
ENDCHAR
STARTCHAR 0176
ENCODING 374
SWIDTH 612 0
DWIDTH 34 0
BBX 29 51 9 0
BITMAP
0003E000
0007E000
000FF000
001FF800
003E7C00
007C3C00
00F83E00
01F01F00
02000000
00000000
00000000
00000000
F80000F8
F80001F8
FC0001F0
7C0003E0
7C0007E0
7C0007C0
3E000F80
3E001F80
3E001F00
1F003E00
1F007E00
1F007C00
0F80F800
0F81F800
0F81F000
07C3E000
07C7E000
07C7C000
03EF8000
03FF0000
03FF0000
01FE0000
01FC0000
01FC0000
00F80000
00F80000
00F80000
00F00000
01F00000
01F00000
01F00000
01F00000
01F00000
03E00000
03E00000
03E00000
03E00000
03E00000
03C00000
ENDCHAR
STARTCHAR 0177
ENCODING 375
SWIDTH 486 0
DWIDTH 27 0
BBX 32 52 0 -11
BITMAP
00003E00
00007F00
0000FF80
0001F780
0003E7C0
000783E0
000F01F0
001E00F0
00000000
00000000
00000000
00000000
03E0001F
03E0003E
03E0003E
03E0007C
03E0007C
01E000F8
01F000F8
01F001F0
01F001E0
00F003E0
00F007C0
00F807C0
00F80F80
00F80F00
00781F00
00781E00
007C3E00
007C3C00
003C7C00
003C7800
003CF000
003FF000
003FE000
001FE000
001FC000
001F8000
001F8000
001F0000
001F0000
003E0000
003E0000
007C0000
00780000
00F80000
01F00000
03F00000
DFE00000
FFC00000
FF800000
FE000000
ENDCHAR
STARTCHAR 0178
ENCODING 376
SWIDTH 612 0
DWIDTH 34 0
BBX 29 51 9 0
BITMAP
00100400
00780F00
00FC1F80
00FC3F80
00F83F00
00F81F00
00600C00
00000000
00000000
00000000
00000000
00000000
F80000F8
F80001F8
FC0001F0
7C0003E0
7C0007E0
7C0007C0
3E000F80
3E001F80
3E001F00
1F003E00
1F007E00
1F007C00
0F80F800
0F81F800
0F81F000
07C3E000
07C7E000
07C7C000
03EF8000
03FF0000
03FF0000
01FE0000
01FC0000
01FC0000
00F80000
00F80000
00F80000
00F00000
01F00000
01F00000
01F00000
01F00000
01F00000
03E00000
03E00000
03E00000
03E00000
03E00000
03C00000
ENDCHAR
STARTCHAR 0179
ENCODING 377
SWIDTH 612 0
DWIDTH 34 0
BBX 34 53 3 0
BITMAP
0000001F00
0000003E00
0000007C00
000000F800
000000F000
000001E000
000003C000
000007C000
0000078000
00000F0000
0000000000
0000000000
0000000000
0000000000
03FFFFFFC0
03FFFFFFC0
03FFFFFFC0
03FFFFFF80
03FFFFFF80
0000001F00
0000003F00
0000007E00
000000FC00
000001F800
000003F000
000007E000
00000FC000
00000F8000
00001F0000
00003E0000
00007E0000
0000FC0000
0001F80000
0003F00000
0007E00000
000FC00000
001F800000
001F000000
003E000000
007C000000
00FC000000
01F8000000
03F0000000
07E0000000
0FC0000000
1F80000000
3F00000000
3E00000000
7C00000000
FFFFFFF000
FFFFFFF000
FFFFFFF000
FFFFFFE000
ENDCHAR
STARTCHAR 017A
ENCODING 378
SWIDTH 486 0
DWIDTH 27 0
BBX 27 43 3 0
BITMAP
000003E0
000007C0
00000F80
00000F00
00001E00
00003E00
00007C00
00007800
0000F000
0001E000
00000000
00000000
00000000
00000000
03FFFFE0
03FFFFE0
07FFFFE0
07FFFFE0
000007C0
00000F80
00001F00
00003E00
00007C00
0000F800
0001F000
0003E000
0007C000
000F8000
001F0000
003E0000
007C0000
00F80000
01F00000
03E00000
07C00000
0F800000
1F000000
3E000000
7C000000
FFFFFE00
FFFFFE00
FFFFFE00
FFFFFC00
ENDCHAR
STARTCHAR 017B
ENCODING 379
SWIDTH 612 0
DWIDTH 34 0
BBX 34 51 3 0
BITMAP
0000020000
00000F8000
00001F8000
00001F8000
00001F8000
00001F0000
00000C0000
0000000000
0000000000
0000000000
0000000000
0000000000
03FFFFFFC0
03FFFFFFC0
03FFFFFFC0
03FFFFFF80
03FFFFFF80
0000001F00
0000003F00
0000007E00
000000FC00
000001F800
000003F000
000007E000
00000FC000
00000F8000
00001F0000
00003E0000
00007E0000
0000FC0000
0001F80000
0003F00000
0007E00000
000FC00000
001F800000
001F000000
003E000000
007C000000
00FC000000
01F8000000
03F0000000
07E0000000
0FC0000000
1F80000000
3F00000000
3E00000000
7C00000000
FFFFFFF000
FFFFFFF000
FFFFFFF000
FFFFFFE000
ENDCHAR
STARTCHAR 017C
ENCODING 380
SWIDTH 486 0
DWIDTH 27 0
BBX 27 41 3 0
BITMAP
0000F000
0001F800
0001F800
0003F800
0001F000
0001E000
00000000
00000000
00000000
00000000
00000000
00000000
03FFFFE0
03FFFFE0
07FFFFE0
07FFFFE0
000007C0
00000F80
00001F00
00003E00
00007C00
0000F800
0001F000
0003E000
0007C000
000F8000
001F0000
003E0000
007C0000
00F80000
01F00000
03E00000
07C00000
0F800000
1F000000
3E000000
7C000000
FFFFFE00
FFFFFE00
FFFFFE00
FFFFFC00
ENDCHAR
STARTCHAR 017D
ENCODING 381
SWIDTH 612 0
DWIDTH 34 0
BBX 34 51 3 0
BITMAP
0007C01F00
0003E03E00
0001F07C00
0000F0F800
0000F9F000
00007FC000
00003F8000
00001F0000
0000000000
0000000000
0000000000
0000000000
03FFFFFFC0
03FFFFFFC0
03FFFFFFC0
03FFFFFF80
03FFFFFF80
0000001F00
0000003F00
0000007E00
000000FC00
000001F800
000003F000
000007E000
00000FC000
00000F8000
00001F0000
00003E0000
00007E0000
0000FC0000
0001F80000
0003F00000
0007E00000
000FC00000
001F800000
001F000000
003E000000
007C000000
00FC000000
01F8000000
03F0000000
07E0000000
0FC0000000
1F80000000
3F00000000
3E00000000
7C00000000
FFFFFFF000
FFFFFFF000
FFFFFFF000
FFFFFFE000
ENDCHAR
STARTCHAR 017E
ENCODING 382
SWIDTH 486 0
DWIDTH 27 0
BBX 27 41 3 0
BITMAP
007C03E0
003E07C0
001E0F80
001F1F00
000FBE00
0007FC00
0003F800
0003E000
00000000
00000000
00000000
00000000
03FFFFE0
03FFFFE0
07FFFFE0
07FFFFE0
000007C0
00000F80
00001F00
00003E00
00007C00
0000F800
0001F000
0003E000
0007C000
000F8000
001F0000
003E0000
007C0000
00F80000
01F00000
03E00000
07C00000
0F800000
1F000000
3E000000
7C000000
FFFFFE00
FFFFFE00
FFFFFE00
FFFFFC00
ENDCHAR
STARTCHAR 01A0
ENCODING 416
SWIDTH 720 0
DWIDTH 40 0
BBX 36 44 6 0
BITMAP
0000000070
00000000F0
00000000F0
00000000F0
00003F01E0
0003FFFFE0
000FFFFFC0
003FFFFE00
007FFFFF00
00FF007F80
01FC001F80
03F0000FC0
07E0000FC0
0FC00007E0
0F800003E0
1F800003E0
1F000003E0
3E000003F0
3E000003F0
7E000001F0
7C000001F0
7C000001F0
FC000003F0
F8000003E0
F8000003E0
F8000003E0
F8000003E0
F8000007E0
F8000007C0
F8000007C0
F800000FC0
F800000F80
F800001F80
FC00001F00
FC00003F00
7E00007E00
7E0000FC00
3F0001F800
3F8007F000
1FF03FE000
0FFFFFC000
07FFFF8000
03FFFE0000
00FFF00000
ENDCHAR
STARTCHAR 01A1
ENCODING 417
SWIDTH 594 0
DWIDTH 33 0
BBX 32 34 4 0
BITMAP
0000000F
0000000F
0000000F
0000001E
0007F83E
003FFFFC
007FFFF0
01FFFFC0
03F81FC0
07E007E0
0FC003E0
0F8003F0
1F0001F0
3E0001F0
3E0001F0
3C0000F0
7C0000F0
7C0001F0
7C0001F0
780001F0
F80001F0
F80001F0
F80003E0
F80003E0
F80007C0
7C0007C0
7C000F80
7E001F80
3F003F00
3F80FE00
1FFFFC00
0FFFF800
07FFE000
01FF8000
ENDCHAR
STARTCHAR 01AF
ENCODING 431
SWIDTH 684 0
DWIDTH 38 0
BBX 42 45 6 -1
BITMAP
0000000003C0
0000000003C0
000000000380
000000000780
000000000F80
0F800003FF00
0F800003FE00
0F800003F000
0F000003C000
0F000003C000
1F000007C000
1F000007C000
1F000007C000
1F000007C000
1E0000078000
3E00000F8000
3E00000F8000
3E00000F8000
3E00000F8000
3E00000F8000
3C00000F0000
7C00001F0000
7C00001F0000
7C00001F0000
7C00001F0000
7C00001F0000
7800001E0000
F800003E0000
F800003E0000
F800003E0000
F800003C0000
F800007C0000
F800007C0000
F80000F80000
F80000F80000
FC0001F00000
7C0003F00000
7E0007E00000
7F000FC00000
3FC07FC00000
1FFFFF000000
0FFFFE000000
07FFFC000000
01FFE0000000
000800000000
ENDCHAR
STARTCHAR 01B0
ENCODING 432
SWIDTH 594 0
DWIDTH 33 0
BBX 35 35 6 -1
BITMAP
00000001E0
00000001E0
00000001E0
00000001E0
00000007C0
1F0000FF80
1E0001FF00
1E0001F000
3E0001F000
3E0001F000
3E0001F000
3E0001E000
3C0003E000
7C0003E000
7C0003E000
7C0003E000
7C0003E000
7C0007C000
780007C000
F80007C000
F80007C000
F80007C000
F800078000
F8000F8000
F8000F8000
F8001F8000
F8001F8000
FC003F8000
FC006F0000
7F01FF0000
7FFFDF0000
3FFF9F0000
1FFE1F0000
0FFC1F0000
0080000000
ENDCHAR
STARTCHAR 02C6
ENCODING 710
SWIDTH 396 0
DWIDTH 22 0
BBX 18 8 8 33
BITMAP
00F800
01FC00
03FC00
07BE00
1F1F00
3E0F80
7C0F80
F807C0
ENDCHAR
STARTCHAR 02C7
ENCODING 711
SWIDTH 396 0
DWIDTH 22 0
BBX 18 8 9 33
BITMAP
F807C0
7C0F80
3C1F00
3E3E00
1F7C00
0FF000
0FE000
07C000
ENDCHAR
STARTCHAR 02D8
ENCODING 728
SWIDTH 396 0
DWIDTH 22 0
BBX 19 6 8 34
BITMAP
F801E0
7803C0
7C0780
3FFF00
1FFE00
07F800
ENDCHAR
STARTCHAR 02D9
ENCODING 729
SWIDTH 162 0
DWIDTH 9 0
BBX 6 6 8 35
BITMAP
38
7C
FC
FC
FC
78
ENDCHAR
STARTCHAR 02DA
ENCODING 730
SWIDTH 234 0
DWIDTH 13 0
BBX 10 10 8 34
BITMAP
0E00
1F80
3FC0
61C0
E0C0
C0C0
E1C0
7380
7F00
3E00
ENDCHAR
STARTCHAR 02DB
ENCODING 731
SWIDTH 198 0
DWIDTH 11 0
BBX 8 10 1 -10
BITMAP
0C
3E
78
F0
E0
E0
E0
FB
FF
7F
ENDCHAR
STARTCHAR 02DC
ENCODING 732
SWIDTH 378 0
DWIDTH 21 0
BBX 19 6 8 35
BITMAP
0201E0
3FC1C0
7FF7C0
7FFF80
F0FF00
E03C00
ENDCHAR
STARTCHAR 0300
ENCODING 768
SWIDTH 0 0
DWIDTH 0 0
BBX 8 10 -5 35
BITMAP
F8
F8
7C
7C
3C
3E
1E
1F
0F
0F
ENDCHAR
STARTCHAR 0301
ENCODING 769
SWIDTH 0 0
DWIDTH 0 0
BBX 11 10 -4 35
BITMAP
03E0
03C0
07C0
0F80
1F00
1E00
3C00
7800
F800
F000
ENDCHAR
STARTCHAR 0302
ENCODING 770
SWIDTH 0 0
DWIDTH 0 0
BBX 18 8 -14 33
BITMAP
00F800
01FC00
03FE00
07DE00
0F1F00
1E0F80
3C0780
F807C0
ENDCHAR
STARTCHAR 0303
ENCODING 771
SWIDTH 0 0
DWIDTH 0 0
BBX 18 6 -12 35
BITMAP
0601C0
3FC1C0
7FF7C0
FFFF80
E0FF00
E03C00
ENDCHAR
STARTCHAR 0304
ENCODING 772
SWIDTH 0 0
DWIDTH 0 0
BBX 17 2 -14 36
BITMAP
FFFF80
FFFF80
ENDCHAR
STARTCHAR 0306
ENCODING 774
SWIDTH 0 0
DWIDTH 0 0
BBX 18 6 -13 34
BITMAP
F003C0
F00780
780F80
7FFF00
3FFC00
0FF000
ENDCHAR
STARTCHAR 0307
ENCODING 775
SWIDTH 0 0
DWIDTH 0 0
BBX 7 6 -4 35
BITMAP
3C
7C
7E
FE
FC
78
ENDCHAR
STARTCHAR 0308
ENCODING 776
SWIDTH 0 0
DWIDTH 0 0
BBX 17 6 -14 35
BITMAP
380F00
FC1F80
FC1F80
FC3F80
F81F00
F01E00
ENDCHAR
STARTCHAR 0309
ENCODING 777
SWIDTH 0 0
DWIDTH 0 0
BBX 12 10 -7 35
BITMAP
0780
1FE0
3FF0
78F0
F070
0070
00F0
01E0
03C0
0F00
ENDCHAR
STARTCHAR 030A
ENCODING 778
SWIDTH 0 0
DWIDTH 0 0
BBX 10 10 -6 34
BITMAP
0E00
3F80
7F80
61C0
C0C0
C1C0
E180
F380
7F00
3C00
ENDCHAR
STARTCHAR 030C
ENCODING 780
SWIDTH 0 0
DWIDTH 0 0
BBX 17 8 -13 33
BITMAP
F00F80
F81F00
7C3E00
3C7C00
3EF800
1FF000
0FE000
07C000
ENDCHAR
STARTCHAR 031B
ENCODING 795
SWIDTH 0 0
DWIDTH 0 0
BBX 11 7 -6 31
BITMAP
01E0
01C0
03C0
03C0
07C0
FF80
FE00
ENDCHAR
STARTCHAR 0323
ENCODING 803
SWIDTH 0 0
DWIDTH 0 0
BBX 7 6 -9 -12
BITMAP
18
7C
7E
FE
FC
78
ENDCHAR
STARTCHAR 0327
ENCODING 807
SWIDTH 0 0
DWIDTH 0 0
BBX 11 14 -14 -14
BITMAP
1C00
1C00
1800
3F80
3FC0
7FE0
00E0
00E0
00E0
00E0
03C0
7F80
FF00
7C00
ENDCHAR
STARTCHAR 0328
ENCODING 808
SWIDTH 0 0
DWIDTH 0 0
BBX 8 10 -11 -10
BITMAP
0C
3E
78
F0
E0
E0
E0
FB
FF
7F
ENDCHAR
STARTCHAR 1E80
ENCODING 7808
SWIDTH 990 0
DWIDTH 55 0
BBX 54 53 7 0
BITMAP
000007C0000000
000007C0000000
000003E0000000
000003E0000000
000001F0000000
000001F0000000
000000F0000000
000000F8000000
00000078000000
00000078000000
00000000000000
00000000000000
00000000000000
00000000000000
F800007800007C
780000FC000078
780000FC0000F8
7C0001FC0000F0
7C0001FC0001F0
7C0003FC0001F0
7C0003FC0003E0
7C0007FE0003E0
7C0007FE0003C0
7C000FBE0007C0
7C000FBE000780
3C001F3E000F80
3C001F1E000F80
3C003E1E001F00
3C003E1F001F00
3E007C1F003E00
3E007C1F003E00
3E00F81F003C00
3E00F81F007C00
3E01F00F007800
3E01F00F80F800
1E03E00F80F800
1E03E00F81F000
1E07C00F81F000
1E07C00F81E000
1E0F800783E000
1F0F800783C000
1F1F0007C7C000
1F1F0007C7C000
1F3E0007CF8000
1F3E0007CF8000
1F7C0007CF0000
0F7C0003DF0000
0FF80003FE0000
0FF80003FE0000
0FF00003FC0000
0FF00003FC0000
0FE00003FC0000
0FE00003F80000
ENDCHAR
STARTCHAR 1E81
ENCODING 7809
SWIDTH 810 0
DWIDTH 45 0
BBX 41 43 7 0
BITMAP
0001F0000000
0001F0000000
0000F0000000
0000F8000000
000078000000
00007C000000
00003C000000
00003C000000
00001E000000
00001E000000
000000000000
000000000000
000000000000
000000000000
F0003E000780
F8003E000F80
F8007E000F00
F8007E001F00
F800FF001E00
F800FF001E00
7801FF003E00
7801FF003C00
7803EF007C00
7803CF007800
7807CF00F800
7C078F80F000
7C0F8F81F000
7C0F0F81E000
7C1F0781E000
3C1F0783E000
3C3E0783C000
3C3E0787C000
3C3C07C78000
3C7C07CF8000
3C7807CF0000
3EF807DF0000
3EF003DE0000
3FF003DE0000
3FE003FE0000
1FE003FC0000
1FC003FC0000
1FC003F80000
1F8003F80000
ENDCHAR
STARTCHAR 1E82
ENCODING 7810
SWIDTH 990 0
DWIDTH 55 0
BBX 54 53 7 0
BITMAP
000000007C0000
00000000F80000
00000000F00000
00000001F00000
00000003E00000
00000007C00000
00000007800000
0000000F000000
0000001E000000
0000001E000000
00000000000000
00000000000000
00000000000000
00000000000000
F800007800007C
780000FC000078
780000FC0000F8
7C0001FC0000F0
7C0001FC0001F0
7C0003FC0001F0
7C0003FC0003E0
7C0007FE0003E0
7C0007FE0003C0
7C000FBE0007C0
7C000FBE000780
3C001F3E000F80
3C001F1E000F80
3C003E1E001F00
3C003E1F001F00
3E007C1F003E00
3E007C1F003E00
3E00F81F003C00
3E00F81F007C00
3E01F00F007800
3E01F00F80F800
1E03E00F80F800
1E03E00F81F000
1E07C00F81F000
1E07C00F81E000
1E0F800783E000
1F0F800783C000
1F1F0007C7C000
1F1F0007C7C000
1F3E0007CF8000
1F3E0007CF8000
1F7C0007CF0000
0F7C0003DF0000
0FF80003FE0000
0FF80003FE0000
0FF00003FC0000
0FF00003FC0000
0FE00003FC0000
0FE00003F80000
ENDCHAR
STARTCHAR 1E83
ENCODING 7811
SWIDTH 810 0
DWIDTH 45 0
BBX 41 43 7 0
BITMAP
0000003E0000
0000003C0000
0000007C0000
000000F80000
000001F00000
000001E00000
000003C00000
000007800000
000007800000
00000F000000
000000000000
000000000000
000000000000
000000000000
F0003E000780
F8003E000F80
F8007E000F00
F8007E001F00
F800FF001E00
F800FF001E00
7801FF003E00
7801FF003C00
7803EF007C00
7803CF007800
7807CF00F800
7C078F80F000
7C0F8F81F000
7C0F0F81E000
7C1F0781E000
3C1F0783E000
3C3E0783C000
3C3E0787C000
3C3C07C78000
3C7C07CF8000
3C7807CF0000
3EF807DF0000
3EF003DE0000
3FF003DE0000
3FE003FE0000
1FE003FC0000
1FC003FC0000
1FC003F80000
1F8003F80000
ENDCHAR
STARTCHAR 1E84
ENCODING 7812
SWIDTH 990 0
DWIDTH 55 0
BBX 54 51 7 0
BITMAP
00000080200000
000007C0F80000
000007C1F80000
00000FC1F80000
00000FC1F80000
00000781F00000
00000300400000
00000000000000
00000000000000
00000000000000
00000000000000
00000000000000
F800007800007C
780000FC000078
780000FC0000F8
7C0001FC0000F0
7C0001FC0001F0
7C0003FC0001F0
7C0003FC0003E0
7C0007FE0003E0
7C0007FE0003C0
7C000FBE0007C0
7C000FBE000780
3C001F3E000F80
3C001F1E000F80
3C003E1E001F00
3C003E1F001F00
3E007C1F003E00
3E007C1F003E00
3E00F81F003C00
3E00F81F007C00
3E01F00F007800
3E01F00F80F800
1E03E00F80F800
1E03E00F81F000
1E07C00F81F000
1E07C00F81E000
1E0F800783E000
1F0F800783C000
1F1F0007C7C000
1F1F0007C7C000
1F3E0007CF8000
1F3E0007CF8000
1F7C0007CF0000
0F7C0003DF0000
0FF80003FE0000
0FF80003FE0000
0FF00003FC0000
0FF00003FC0000
0FE00003FC0000
0FE00003F80000
ENDCHAR
STARTCHAR 1E85
ENCODING 7813
SWIDTH 810 0
DWIDTH 45 0
BBX 41 41 7 0
BITMAP
0000E01C0000
0001F07E0000
0003F07E0000
0003F07E0000
0003E07C0000
0003E0780000
000000000000
000000000000
000000000000
000000000000
000000000000
000000000000
F0003E000780
F8003E000F80
F8007E000F00
F8007E001F00
F800FF001E00
F800FF001E00
7801FF003E00
7801FF003C00
7803EF007C00
7803CF007800
7807CF00F800
7C078F80F000
7C0F8F81F000
7C0F0F81E000
7C1F0781E000
3C1F0783E000
3C3E0783C000
3C3E0787C000
3C3C07C78000
3C7C07CF8000
3C7807CF0000
3EF807DF0000
3EF003DE0000
3FF003DE0000
3FE003FE0000
1FE003FC0000
1FC003FC0000
1FC003F80000
1F8003F80000
ENDCHAR
STARTCHAR 1EA0
ENCODING 7840
SWIDTH 666 0
DWIDTH 37 0
BBX 34 51 2 -12
BITMAP
000007C000
00000FC000
00000FC000
00001FC000
00001FE000
00003FE000
00003DE000
00007DE000
000079F000
0000F9F000
0000F1F000
0001F0F000
0003E0F000
0003E0F800
0007C0F800
000780F800
000F807800
000F007800
001F007C00
001E007C00
003E007C00
003C003C00
007C003C00
00F8003E00
00FFFFFE00
01FFFFFE00
01FFFFFE00
03FFFFFE00
03E0001F00
07C0001F00
0780001F00
0F80000F00
0F00000F80
1F00000F80
3E00000F80
3E00000F80
7C00000780
7C000007C0
F8000007C0
0000000000
0000000000
0000000000
0000000000
0000000000
0000000000
0003800000
0007C00000
000FC00000
000FC00000
000FC00000
0007800000
ENDCHAR
STARTCHAR 1EA1
ENCODING 7841
SWIDTH 594 0
DWIDTH 33 0
BBX 31 42 4 -12
BITMAP
000FE000
003FF83E
00FFFC3C
01FFFE7C
03FC1F7C
07E0077C
0FC003FC
1F8001FC
1F0001F8
3F0001F8
3E0001F8
3E0000F8
7C0000F8
7C0001F8
7C0001F0
7C0001F0
F80001F0
F80001F0
F80003F0
F80003F0
FC0007E0
FC0007E0
7C000FE0
7E001FE0
7F003BE0
3F80F3E0
3FFFE3C0
1FFFC7C0
0FFF87C0
03FE07C0
00000000
00000000
00000000
00000000
00000000
00000000
00380000
007C0000
00FC0000
00FC0000
00FC0000
00780000
ENDCHAR
STARTCHAR 1EA2
ENCODING 7842
SWIDTH 666 0
DWIDTH 37 0
BBX 34 53 2 0
BITMAP
000001F800
000007FC00
00000FFE00
00000F1E00
00001E0E00
0000001E00
0000001C00
0000007800
000000F000
000001E000
0000000000
0000000000
0000000000
0000000000
000007C000
00000FC000
00000FC000
00001FC000
00001FE000
00003FE000
00003DE000
00007DE000
000079F000
0000F9F000
0000F1F000
0001F0F000
0003E0F000
0003E0F800
0007C0F800
000780F800
000F807800
000F007800
001F007C00
001E007C00
003E007C00
003C003C00
007C003C00
00F8003E00
00FFFFFE00
01FFFFFE00
01FFFFFE00
03FFFFFE00
03E0001F00
07C0001F00
0780001F00
0F80000F00
0F00000F80
1F00000F80
3E00000F80
3E00000F80
7C00000780
7C000007C0
F8000007C0
ENDCHAR
STARTCHAR 1EA3
ENCODING 7843
SWIDTH 594 0
DWIDTH 33 0
BBX 31 44 4 0
BITMAP
00000800
0000FF00
0001FF80
0003EF80
00078380
00000380
00000780
00000F00
00001E00
00007C00
0000F000
00000000
00000000
00000000
000FE000
003FF83E
00FFFC3C
01FFFE7C
03FC1F7C
07E0077C
0FC003FC
1F8001FC
1F0001F8
3F0001F8
3E0001F8
3E0000F8
7C0000F8
7C0001F8
7C0001F0
7C0001F0
F80001F0
F80001F0
F80003F0
F80003F0
FC0007E0
FC0007E0
7C000FE0
7E001FE0
7F003BE0
3F80F3E0
3FFFE3C0
1FFFC7C0
0FFF87C0
03FE07C0
ENDCHAR
STARTCHAR 1EA4
ENCODING 7844
SWIDTH 666 0
DWIDTH 37 0
BBX 43 59 2 0
BITMAP
0000000003E0
0000000007C0
000000000780
000000000F80
000000001F00
000000003E00
000000003C00
000000007800
000001F0F000
000003F0E000
000007F80000
00000FFC0000
00001F3E0000
00003E1E0000
00007C1F0000
0000F00F8000
000100000000
000000000000
000000000000
000000000000
000007C00000
00000FC00000
00000FC00000
00001FC00000
00001FE00000
00003FE00000
00003DE00000
00007DE00000
000079F00000
0000F9F00000
0000F1F00000
0001F0F00000
0003E0F00000
0003E0F80000
0007C0F80000
000780F80000
000F80780000
000F00780000
001F007C0000
001E007C0000
003E007C0000
003C003C0000
007C003C0000
00F8003E0000
00FFFFFE0000
01FFFFFE0000
01FFFFFE0000
03FFFFFE0000
03E0001F0000
07C0001F0000
0780001F0000
0F80000F0000
0F00000F8000
1F00000F8000
3E00000F8000
3E00000F8000
7C0000078000
7C000007C000
F8000007C000
ENDCHAR
STARTCHAR 1EA5
ENCODING 7845
SWIDTH 594 0
DWIDTH 33 0
BBX 38 50 4 0
BITMAP
000000007C
00000000F8
00000001F0
00000003E0
00000003C0
0000000780
0000000F80
0000000F00
0000001E00
00007C3C00
0000FE0000
0001FE0000
0003CF0000
00078F8000
000F07C000
003E03C000
007C03E000
0000000000
0000000000
0000000000
000FE00000
003FF83E00
00FFFC3C00
01FFFE7C00
03FC1F7C00
07E0077C00
0FC003FC00
1F8001FC00
1F0001F800
3F0001F800
3E0001F800
3E0000F800
7C0000F800
7C0001F800
7C0001F000
7C0001F000
F80001F000
F80001F000
F80003F000
F80003F000
FC0007E000
FC0007E000
7C000FE000
7E001FE000
7F003BE000
3F80F3E000
3FFFE3C000
1FFFC7C000
0FFF87C000
03FE07C000
ENDCHAR
STARTCHAR 1EA6
ENCODING 7846
SWIDTH 666 0
DWIDTH 37 0
BBX 36 59 2 0
BITMAP
0000001F00
0000000F80
0000000F80
0000000780
00000007C0
00000003C0
00000003C0
00000001E0
000001F1E0
000003F0F0
000007F800
00000FFC00
00001F3E00
00003E1E00
00007C1F00
0000F00F80
0001000000
0000000000
0000000000
0000000000
000007C000
00000FC000
00000FC000
00001FC000
00001FE000
00003FE000
00003DE000
00007DE000
000079F000
0000F9F000
0000F1F000
0001F0F000
0003E0F000
0003E0F800
0007C0F800
000780F800
000F807800
000F007800
001F007C00
001E007C00
003E007C00
003C003C00
007C003C00
00F8003E00
00FFFFFE00
01FFFFFE00
01FFFFFE00
03FFFFFE00
03E0001F00
07C0001F00
0780001F00
0F80000F00
0F00000F80
1F00000F80
3E00000F80
3E00000F80
7C00000780
7C000007C0
F8000007C0
ENDCHAR
STARTCHAR 1EA7
ENCODING 7847
SWIDTH 594 0
DWIDTH 33 0
BBX 31 50 4 0
BITMAP
000007C0
000007C0
000003E0
000003E0
000001F0
000001F0
000000F0
000000F8
00000078
00007C38
0000FE00
0001FE00
0003DF00
00078F80
001F07C0
003E03C0
007C03E0
00000000
00000000
00000000
000FE000
003FF83E
00FFFC3C
01FFFE7C
03FC1F7C
07E0077C
0FC003FC
1F8001FC
1F0001F8
3F0001F8
3E0001F8
3E0000F8
7C0000F8
7C0001F8
7C0001F0
7C0001F0
F80001F0
F80001F0
F80003F0
F80003F0
FC0007E0
FC0007E0
7C000FE0
7E001FE0
7F003BE0
3F80F3E0
3FFFE3C0
1FFFC7C0
0FFF87C0
03FE07C0
ENDCHAR
STARTCHAR 1EA8
ENCODING 7848
SWIDTH 666 0
DWIDTH 37 0
BBX 40 60 2 0
BITMAP
00000000FC
00000001FF
00000003FF
0000000787
0000000F07
0000000007
000000000F
000000001E
000000007C
000001F0F0
000003F000
000007F800
00000FFC00
00001F3E00
00003E1E00
00007C1F00
0000F00F80
0001000000
0000000000
0000000000
0000000000
000007C000
00000FC000
00000FC000
00001FC000
00001FE000
00003FE000
00003DE000
00007DE000
000079F000
0000F9F000
0000F1F000
0001F0F000
0003E0F000
0003E0F800
0007C0F800
000780F800
000F807800
000F007800
001F007C00
001E007C00
003E007C00
003C003C00
007C003C00
00F8003E00
00FFFFFE00
01FFFFFE00
01FFFFFE00
03FFFFFE00
03E0001F00
07C0001F00
0780001F00
0F80000F00
0F00000F80
1F00000F80
3E00000F80
3E00000F80
7C00000780
7C000007C0
F8000007C0
ENDCHAR
STARTCHAR 1EA9
ENCODING 7849
SWIDTH 594 0
DWIDTH 33 0
BBX 35 50 4 0
BITMAP
0000003F80
000000FFC0
000001FFC0
000001E1E0
00000001C0
00000001C0
00000003C0
0000000F00
0000001E00
00007C3C00
0000FE0000
0001FE0000
0003CF0000
00078F8000
000F07C000
003E03C000
007C03E000
0000000000
0000000000
0000000000
000FE00000
003FF83E00
00FFFC3C00
01FFFE7C00
03FC1F7C00
07E0077C00
0FC003FC00
1F8001FC00
1F0001F800
3F0001F800
3E0001F800
3E0000F800
7C0000F800
7C0001F800
7C0001F000
7C0001F000
F80001F000
F80001F000
F80003F000
F80003F000
FC0007E000
FC0007E000
7C000FE000
7E001FE000
7F003BE000
3F80F3E000
3FFFE3C000
1FFFC7C000
0FFF87C000
03FE07C000
ENDCHAR
STARTCHAR 1EAA
ENCODING 7850
SWIDTH 666 0
DWIDTH 37 0
BBX 35 59 2 0
BITMAP
00000F80E0
00001FE1E0
00003FFFC0
000079FF80
0000F07F00
0000E00C00
0000000000
0000000000
000001F000
000003F000
000007F800
00000FFC00
00001F3E00
00003E1E00
00007C1F00
0000F00F80
0001000000
0000000000
0000000000
0000000000
000007C000
00000FC000
00000FC000
00001FC000
00001FE000
00003FE000
00003DE000
00007DE000
000079F000
0000F9F000
0000F1F000
0001F0F000
0003E0F000
0003E0F800
0007C0F800
000780F800
000F807800
000F007800
001F007C00
001E007C00
003E007C00
003C003C00
007C003C00
00F8003E00
00FFFFFE00
01FFFFFE00
01FFFFFE00
03FFFFFE00
03E0001F00
07C0001F00
0780001F00
0F80000F00
0F00000F80
1F00000F80
3E00000F80
3E00000F80
7C00000780
7C000007C0
F8000007C0
ENDCHAR
STARTCHAR 1EAB
ENCODING 7851
SWIDTH 594 0
DWIDTH 33 0
BBX 31 49 4 0
BITMAP
0003F038
000FFC70
001FFFF0
001E3FE0
003C0FC0
00000000
00000000
00000000
00007C00
0000FE00
0001FE00
0003CF00
00078F80
000F07C0
003E03C0
007C03E0
00000000
00000000
00000000
000FE000
003FF83E
00FFFC3C
01FFFE7C
03FC1F7C
07E0077C
0FC003FC
1F8001FC
1F0001F8
3F0001F8
3E0001F8
3E0000F8
7C0000F8
7C0001F8
7C0001F0
7C0001F0
F80001F0
F80001F0
F80003F0
F80003F0
FC0007E0
FC0007E0
7C000FE0
7E001FE0
7F003BE0
3F80F3E0
3FFFE3C0
1FFFC7C0
0FFF87C0
03FE07C0
ENDCHAR
STARTCHAR 1EAC
ENCODING 7852
SWIDTH 666 0
DWIDTH 37 0
BBX 34 63 2 -12
BITMAP
000001F000
000003F000
000007F800
00000FFC00
00001F3E00
00003E1E00
00007C1F00
0000F80F80
0001000000
0000000000
0000000000
0000000000
000007C000
00000FC000
00000FC000
00001FC000
00001FE000
00003FE000
00003DE000
00007DE000
000079F000
0000F9F000
0000F1F000
0001F0F000
0003E0F000
0003E0F800
0007C0F800
000780F800
000F807800
000F007800
001F007C00
001E007C00
003E007C00
003C003C00
007C003C00
00F8003E00
00FFFFFE00
01FFFFFE00
01FFFFFE00
03FFFFFE00
03E0001F00
07C0001F00
0780001F00
0F80000F00
0F00000F80
1F00000F80
3E00000F80
3E00000F80
7C00000780
7C000007C0
F8000007C0
0000000000
0000000000
0000000000
0000000000
0000000000
0000000000
0003800000
0007C00000
000FC00000
000FC00000
000FC00000
0007800000
ENDCHAR
STARTCHAR 1EAD
ENCODING 7853
SWIDTH 594 0
DWIDTH 33 0
BBX 31 53 4 -12
BITMAP
00007C00
0000FE00
0001FE00
0003CF00
00078F80
000F07C0
003E03C0
007C03E0
00000000
00000000
00000000
000FE000
003FF83E
00FFFC3C
01FFFE7C
03FC1F7C
07E0077C
0FC003FC
1F8001FC
1F0001F8
3F0001F8
3E0001F8
3E0000F8
7C0000F8
7C0001F8
7C0001F0
7C0001F0
F80001F0
F80001F0
F80003F0
F80003F0
FC0007E0
FC0007E0
7C000FE0
7E001FE0
7F003BE0
3F80F3E0
3FFFE3C0
1FFFC7C0
0FFF87C0
03FE07C0
00000000
00000000
00000000
00000000
00000000
00000000
00380000
007C0000
00FC0000
00FC0000
00FC0000
00780000
ENDCHAR
STARTCHAR 1EAE
ENCODING 7854
SWIDTH 666 0
DWIDTH 37 0
BBX 36 61 2 0
BITMAP
00000001F0
00000003E0
00000007C0
0000000780
0000000F00
0000001F00
0000003E00
0000003C00
0000007800
000000F000
0000000000
0000000000
0000F003C0
0000780780
00007E3F00
00003FFE00
00001FF800
0000018000
0000000000
0000000000
0000000000
0000000000
000007C000
00000FC000
00000FC000
00001FC000
00001FE000
00003FE000
00003DE000
00007DE000
000079F000
0000F9F000
0000F1F000
0001F0F000
0003E0F000
0003E0F800
0007C0F800
000780F800
000F807800
000F007800
001F007C00
001E007C00
003E007C00
003C003C00
007C003C00
00F8003E00
00FFFFFE00
01FFFFFE00
01FFFFFE00
03FFFFFE00
03E0001F00
07C0001F00
0780001F00
0F80000F00
0F00000F80
1F00000F80
3E00000F80
3E00000F80
7C00000780
7C000007C0
F8000007C0
ENDCHAR
STARTCHAR 1EAF
ENCODING 7855
SWIDTH 594 0
DWIDTH 33 0
BBX 31 51 4 0
BITMAP
0000007C
000000F8
000001F0
000003E0
000003C0
00000780
00000F00
00001F00
00001E00
00003C00
00000000
003C00F8
003E00F0
001F03E0
000FFFC0
0007FF00
0003FC00
00000000
00000000
00000000
00000000
000FE000
003FF83E
00FFFC3C
01FFFE7C
03FC1F7C
07E0077C
0FC003FC
1F8001FC
1F0001F8
3F0001F8
3E0001F8
3E0000F8
7C0000F8
7C0001F8
7C0001F0
7C0001F0
F80001F0
F80001F0
F80003F0
F80003F0
FC0007E0
FC0007E0
7C000FE0
7E001FE0
7F003BE0
3F80F3E0
3FFFE3C0
1FFFC7C0
0FFF87C0
03FE07C0
ENDCHAR
STARTCHAR 1EB0
ENCODING 7856
SWIDTH 666 0
DWIDTH 37 0
BBX 34 61 2 0
BITMAP
00001F0000
00001F0000
00000F0000
00000F8000
0000078000
000007C000
000003C000
000003C000
000001E000
000001E000
0000000000
0000000000
0000F003C0
0000780780
00007F3F00
00003FFE00
00000FFC00
0000008000
0000000000
0000000000
0000000000
0000000000
000007C000
00000FC000
00000FC000
00001FC000
00001FE000
00003FE000
00003DE000
00007DE000
000079F000
0000F9F000
0000F1F000
0001F0F000
0003E0F000
0003E0F800
0007C0F800
000780F800
000F807800
000F007800
001F007C00
001E007C00
003E007C00
003C003C00
007C003C00
00F8003E00
00FFFFFE00
01FFFFFE00
01FFFFFE00
03FFFFFE00
03E0001F00
07C0001F00
0780001F00
0F80000F00
0F00000F80
1F00000F80
3E00000F80
3E00000F80
7C00000780
7C000007C0
F8000007C0
ENDCHAR
STARTCHAR 1EB1
ENCODING 7857
SWIDTH 594 0
DWIDTH 33 0
BBX 31 51 4 0
BITMAP
0007C000
0007C000
0003E000
0003E000
0001E000
0001F000
0000F000
0000F800
00007800
00007800
00000000
003C0078
003E00F0
001F03E0
000FFFC0
0007FF80
0001FE00
00000000
00000000
00000000
00000000
000FE000
003FF83E
00FFFC3C
01FFFE7C
03FC1F7C
07E0077C
0FC003FC
1F8001FC
1F0001F8
3F0001F8
3E0001F8
3E0000F8
7C0000F8
7C0001F8
7C0001F0
7C0001F0
F80001F0
F80001F0
F80003F0
F80003F0
FC0007E0
FC0007E0
7C000FE0
7E001FE0
7F003BE0
3F80F3E0
3FFFE3C0
1FFFC7C0
0FFF87C0
03FE07C0
ENDCHAR
STARTCHAR 1EB2
ENCODING 7858
SWIDTH 666 0
DWIDTH 37 0
BBX 34 61 2 0
BITMAP
000000FC00
000001FE00
000003FF00
0000078F00
00000F0700
0000000700
0000000F00
0000001E00
0000007C00
000000F000
0000000000
0000000000
0000F003C0
0000780780
00007E3F00
00003FFE00
00001FF800
0000018000
0000000000
0000000000
0000000000
0000000000
000007C000
00000FC000
00000FC000
00001FC000
00001FE000
00003FE000
00003DE000
00007DE000
000079F000
0000F9F000
0000F1F000
0001F0F000
0003E0F000
0003E0F800
0007C0F800
000780F800
000F807800
000F007800
001F007C00
001E007C00
003E007C00
003C003C00
007C003C00
00F8003E00
00FFFFFE00
01FFFFFE00
01FFFFFE00
03FFFFFE00
03E0001F00
07C0001F00
0780001F00
0F80000F00
0F00000F80
1F00000F80
3E00000F80
3E00000F80
7C00000780
7C000007C0
F8000007C0
ENDCHAR
STARTCHAR 1EB3
ENCODING 7859
SWIDTH 594 0
DWIDTH 33 0
BBX 31 51 4 0
BITMAP
00003F80
0000FFC0
0001FFC0
0001E1C0
000001C0
000001C0
000003C0
00000F80
00001E00
00003C00
00000000
003C00F8
003E00F0
001F03E0
000FFFC0
0007FF00
0003FC00
00000000
00000000
00000000
00000000
000FE000
003FF83E
00FFFC3C
01FFFE7C
03FC1F7C
07E0077C
0FC003FC
1F8001FC
1F0001F8
3F0001F8
3E0001F8
3E0000F8
7C0000F8
7C0001F8
7C0001F0
7C0001F0
F80001F0
F80001F0
F80003F0
F80003F0
FC0007E0
FC0007E0
7C000FE0
7E001FE0
7F003BE0
3F80F3E0
3FFFE3C0
1FFFC7C0
0FFF87C0
03FE07C0
ENDCHAR
STARTCHAR 1EB4
ENCODING 7860
SWIDTH 666 0
DWIDTH 37 0
BBX 35 58 2 0
BITMAP
00000FC0E0
00001FF1E0
00003FFFC0
000078FFC0
0000703F00
0000000000
0000000000
0000000000
0000000000
0000F003C0
0000780780
00007E3F00
00003FFE00
00001FF800
0000018000
0000000000
0000000000
0000000000
0000000000
000007C000
00000FC000
00000FC000
00001FC000
00001FE000
00003FE000
00003DE000
00007DE000
000079F000
0000F9F000
0000F1F000
0001F0F000
0003E0F000
0003E0F800
0007C0F800
000780F800
000F807800
000F007800
001F007C00
001E007C00
003E007C00
003C003C00
007C003C00
00F8003E00
00FFFFFE00
01FFFFFE00
01FFFFFE00
03FFFFFE00
03E0001F00
07C0001F00
0780001F00
0F80000F00
0F00000F80
1F00000F80
3E00000F80
3E00000F80
7C00000780
7C000007C0
F8000007C0
ENDCHAR
STARTCHAR 1EB5
ENCODING 7861
SWIDTH 594 0
DWIDTH 33 0
BBX 31 49 4 0
BITMAP
0000401C
0003F838
0007FE78
000FFFF0
001E1FE0
001C07C0
00000000
00000000
00000000
003C00F8
003E01F0
001F03E0
000FFFC0
0007FF00
0003FC00
00000000
00000000
00000000
00000000
000FE000
003FF83E
00FFFC3C
01FFFE7C
03FC1F7C
07E0077C
0FC003FC
1F8001FC
1F0001F8
3F0001F8
3E0001F8
3E0000F8
7C0000F8
7C0001F8
7C0001F0
7C0001F0
F80001F0
F80001F0
F80003F0
F80003F0
FC0007E0
FC0007E0
7C000FE0
7E001FE0
7F003BE0
3F80F3E0
3FFFE3C0
1FFFC7C0
0FFF87C0
03FE07C0
ENDCHAR
STARTCHAR 1EB6
ENCODING 7862
SWIDTH 666 0
DWIDTH 37 0
BBX 34 61 2 -12
BITMAP
0000F003C0
0000780780
00007E3F00
00003FFE00
00001FF800
0000018000
0000000000
0000000000
0000000000
0000000000
000007C000
00000FC000
00000FC000
00001FC000
00001FE000
00003FE000
00003DE000
00007DE000
000079F000
0000F9F000
0000F1F000
0001F0F000
0003E0F000
0003E0F800
0007C0F800
000780F800
000F807800
000F007800
001F007C00
001E007C00
003E007C00
003C003C00
007C003C00
00F8003E00
00FFFFFE00
01FFFFFE00
01FFFFFE00
03FFFFFE00
03E0001F00
07C0001F00
0780001F00
0F80000F00
0F00000F80
1F00000F80
3E00000F80
3E00000F80
7C00000780
7C000007C0
F8000007C0
0000000000
0000000000
0000000000
0000000000
0000000000
0000000000
0003800000
0007C00000
000FC00000
000FC00000
000FC00000
0007800000
ENDCHAR
STARTCHAR 1EB7
ENCODING 7863
SWIDTH 594 0
DWIDTH 33 0
BBX 31 52 4 -12
BITMAP
003C00F8
003E00F0
001F03E0
000FFFC0
0007FF00
0003FC00
00000000
00000000
00000000
00000000
000FE000
003FF83E
00FFFC3C
01FFFE7C
03FC1F7C
07E0077C
0FC003FC
1F8001FC
1F0001F8
3F0001F8
3E0001F8
3E0000F8
7C0000F8
7C0001F8
7C0001F0
7C0001F0
F80001F0
F80001F0
F80003F0
F80003F0
FC0007E0
FC0007E0
7C000FE0
7E001FE0
7F003BE0
3F80F3E0
3FFFE3C0
1FFFC7C0
0FFF87C0
03FE07C0
00000000
00000000
00000000
00000000
00000000
00000000
00380000
007C0000
00FC0000
00FC0000
00FC0000
00780000
ENDCHAR
STARTCHAR 1EB8
ENCODING 7864
SWIDTH 558 0
DWIDTH 31 0
BBX 31 51 4 -12
BITMAP
01FFFFFE
01FFFFFE
03FFFFFC
03FFFFFC
03E00000
03E00000
03E00000
03C00000
07C00000
07C00000
07C00000
07C00000
07C00000
0F800000
0F800000
0F800000
0F800000
0FFFFF80
0FFFFF80
1FFFFF80
1FFFFF80
1F000000
1F000000
1F000000
1E000000
3E000000
3E000000
3E000000
3E000000
3E000000
3C000000
7C000000
7C000000
7C000000
7C000000
7FFFFF80
7FFFFF80
FFFFFF00
FFFFFF00
00000000
00000000
00000000
00000000
00000000
00000000
00300000
00F80000
00FC0000
01FC0000
00F80000
00F00000
ENDCHAR
STARTCHAR 1EB9
ENCODING 7865
SWIDTH 558 0
DWIDTH 31 0
BBX 28 42 4 -12
BITMAP
000FFE00
003FFF80
00FFFFC0
01FFFFE0
03F007E0
07C003E0
0F8001F0
1F0001F0
1F0001F0
3E0001F0
3E0003E0
7C0003E0
7C000FC0
7FFFFF80
7FFFFF00
7FFFFC00
78000000
F8000000
F8000000
78000000
78000000
7C0007C0
7C000F80
3E001F80
3F003F00
1F80FE00
1FFFFC00
0FFFF800
03FFE000
00FF8000
00000000
00000000
00000000
00000000
00000000
00000000
000E0000
001F0000
003F0000
003F0000
003E0000
003E0000
ENDCHAR
STARTCHAR 1EBA
ENCODING 7866
SWIDTH 558 0
DWIDTH 31 0
BBX 31 53 4 0
BITMAP
00003F00
0000FFC0
0001FFC0
0001E3C0
0003C1C0
000001C0
000003C0
00000780
00001E00
00003C00
00000000
00000000
00000000
00000000
01FFFFFE
01FFFFFE
03FFFFFC
03FFFFFC
03E00000
03E00000
03E00000
03C00000
07C00000
07C00000
07C00000
07C00000
07C00000
0F800000
0F800000
0F800000
0F800000
0FFFFF80
0FFFFF80
1FFFFF80
1FFFFF80
1F000000
1F000000
1F000000
1E000000
3E000000
3E000000
3E000000
3E000000
3E000000
3C000000
7C000000
7C000000
7C000000
7C000000
7FFFFF80
7FFFFF80
FFFFFF00
FFFFFF00
ENDCHAR
STARTCHAR 1EBB
ENCODING 7867
SWIDTH 558 0
DWIDTH 31 0
BBX 28 44 4 0
BITMAP
00000800
0000FF00
0001FF80
0003EF80
00038380
00000380
00000780
00000F00
00001E00
00003C00
0000F800
00000000
00000000
00000000
000FFE00
003FFF80
00FFFFC0
01FFFFE0
03F007E0
07C003E0
0F8001F0
1F0001F0
1F0001F0
3E0001F0
3E0003E0
7C0003E0
7C000FC0
7FFFFF80
7FFFFF00
7FFFFC00
78000000
F8000000
F8000000
78000000
78000000
7C0007C0
7C000F80
3E001F80
3F003F00
1F80FE00
1FFFFC00
0FFFF800
03FFE000
00FF8000
ENDCHAR
STARTCHAR 1EBC
ENCODING 7868
SWIDTH 558 0
DWIDTH 31 0
BBX 31 50 4 0
BITMAP
0003F038
0007FC78
000FFFF0
001E3FF0
001C0FC0
00000000
00000000
00000000
00000000
00000000
00000000
01FFFFFE
01FFFFFE
03FFFFFC
03FFFFFC
03E00000
03E00000
03E00000
03C00000
07C00000
07C00000
07C00000
07C00000
07C00000
0F800000
0F800000
0F800000
0F800000
0FFFFF80
0FFFFF80
1FFFFF80
1FFFFF80
1F000000
1F000000
1F000000
1E000000
3E000000
3E000000
3E000000
3E000000
3E000000
3C000000
7C000000
7C000000
7C000000
7C000000
7FFFFF80
7FFFFF80
FFFFFF00
FFFFFF00
ENDCHAR
STARTCHAR 1EBD
ENCODING 7869
SWIDTH 558 0
DWIDTH 31 0
BBX 28 41 4 0
BITMAP
00018070
000FF070
001FFDF0
001FFFE0
003C3FC0
00380F00
00000000
00000000
00000000
00000000
00000000
000FFE00
003FFF80
00FFFFC0
01FFFFE0
03F007E0
07C003E0
0F8001F0
1F0001F0
1F0001F0
3E0001F0
3E0003E0
7C0003E0
7C000FC0
7FFFFF80
7FFFFF00
7FFFFC00
78000000
F8000000
F8000000
78000000
78000000
7C0007C0
7C000F80
3E001F80
3F003F00
1F80FE00
1FFFFC00
0FFFF800
03FFE000
00FF8000
ENDCHAR
STARTCHAR 1EBE
ENCODING 7870
SWIDTH 558 0
DWIDTH 31 0
BBX 39 59 4 0
BITMAP
000000007E
0000000078
00000000F8
00000001F0
00000003E0
00000003C0
0000000780
0000000F00
00003E0F00
00007F1E00
0000FF0000
0001FF8000
0003E7C000
0007C3E000
000F81E000
001F01F000
0000000000
0000000000
0000000000
0000000000
01FFFFFE00
01FFFFFE00
03FFFFFC00
03FFFFFC00
03E0000000
03E0000000
03E0000000
03C0000000
07C0000000
07C0000000
07C0000000
07C0000000
07C0000000
0F80000000
0F80000000
0F80000000
0F80000000
0FFFFF8000
0FFFFF8000
1FFFFF8000
1FFFFF8000
1F00000000
1F00000000
1F00000000
1E00000000
3E00000000
3E00000000
3E00000000
3E00000000
3E00000000
3C00000000
7C00000000
7C00000000
7C00000000
7C00000000
7FFFFF8000
7FFFFF8000
FFFFFF0000
FFFFFF0000
ENDCHAR
STARTCHAR 1EBF
ENCODING 7871
SWIDTH 558 0
DWIDTH 31 0
BBX 38 50 4 0
BITMAP
000000007C
00000000F8
00000001F0
00000001E0
00000003C0
00000007C0
0000000F80
0000000F00
0000001E00
00007C3C00
0000FE0000
0001FF0000
0003EF0000
00078F8000
000F07C000
001E03C000
007C03E000
0000000000
0000000000
0000000000
000FFE0000
003FFF8000
00FFFFC000
01FFFFE000
03F007E000
07C003E000
0F8001F000
1F0001F000
1F0001F000
3E0001F000
3E0003E000
7C0003E000
7C000FC000
7FFFFF8000
7FFFFF0000
7FFFFC0000
7800000000
F800000000
F800000000
7800000000
7800000000
7C0007C000
7C000F8000
3E001F8000
3F003F0000
1F80FE0000
1FFFFC0000
0FFFF80000
03FFE00000
00FF800000
ENDCHAR
STARTCHAR 1EC0
ENCODING 7872
SWIDTH 558 0
DWIDTH 31 0
BBX 31 59 4 0
BITMAP
000003E0
000001F0
000001F0
000000F8
000000F8
00000078
0000007C
0000003C
00003E3C
00007F1E
0000FF00
0001FF80
0003E7C0
0007C3E0
000F83E0
001F01F0
00200000
00000000
00000000
00000000
01FFFFFE
01FFFFFE
03FFFFFC
03FFFFFC
03E00000
03E00000
03E00000
03C00000
07C00000
07C00000
07C00000
07C00000
07C00000
0F800000
0F800000
0F800000
0F800000
0FFFFF80
0FFFFF80
1FFFFF80
1FFFFF80
1F000000
1F000000
1F000000
1E000000
3E000000
3E000000
3E000000
3E000000
3E000000
3C000000
7C000000
7C000000
7C000000
7C000000
7FFFFF80
7FFFFF80
FFFFFF00
FFFFFF00
ENDCHAR
STARTCHAR 1EC1
ENCODING 7873
SWIDTH 558 0
DWIDTH 31 0
BBX 30 50 4 0
BITMAP
000007C0
000003C0
000003E0
000001E0
000001F0
000000F0
000000F0
00000078
00000078
00007C3C
0000FE00
0001FE00
0003CF00
00078F80
000F07C0
003E03C0
007C03E0
00000000
00000000
00000000
000FFE00
003FFF80
00FFFFC0
01FFFFE0
03F007E0
07C003E0
0F8001F0
1F0001F0
1F0001F0
3E0001F0
3E0003E0
7C0003E0
7C000FC0
7FFFFF80
7FFFFF00
7FFFFC00
78000000
F8000000
F8000000
78000000
78000000
7C0007C0
7C000F80
3E001F80
3F003F00
1F80FE00
1FFFFC00
0FFFF800
03FFE000
00FF8000
ENDCHAR
STARTCHAR 1EC2
ENCODING 7874
SWIDTH 558 0
DWIDTH 31 0
BBX 36 60 4 0
BITMAP
0000000F80
0000003FE0
0000007FE0
000000F0F0
000000E0F0
00000000E0
00000001E0
00000003C0
0000000780
00003E1E00
00007F0000
0000FF0000
0001FF8000
0003E7C000
0007C3E000
000F81E000
001F01F000
0000000000
0000000000
0000000000
0000000000
01FFFFFE00
01FFFFFE00
03FFFFFC00
03FFFFFC00
03E0000000
03E0000000
03E0000000
03C0000000
07C0000000
07C0000000
07C0000000
07C0000000
07C0000000
0F80000000
0F80000000
0F80000000
0F80000000
0FFFFF8000
0FFFFF8000
1FFFFF8000
1FFFFF8000
1F00000000
1F00000000
1F00000000
1E00000000
3E00000000
3E00000000
3E00000000
3E00000000
3E00000000
3C00000000
7C00000000
7C00000000
7C00000000
7C00000000
7FFFFF8000
7FFFFF8000
FFFFFF0000
FFFFFF0000
ENDCHAR
STARTCHAR 1EC3
ENCODING 7875
SWIDTH 558 0
DWIDTH 31 0
BBX 35 50 4 0
BITMAP
0000003F80
000000FFC0
000001FFC0
000001E1E0
00000001C0
00000001C0
00000003C0
0000000F80
0000001E00
00007C3C00
0000FE0000
0001FF0000
0003EF0000
00078F8000
000F07C000
001E03E000
007C03E000
0000000000
0000000000
0000000000
000FFE0000
003FFF8000
00FFFFC000
01FFFFE000
03F007E000
07C003E000
0F8001F000
1F0001F000
1F0001F000
3E0001F000
3E0003E000
7C0003E000
7C000FC000
7FFFFF8000
7FFFFF0000
7FFFFC0000
7800000000
F800000000
F800000000
7800000000
7800000000
7C0007C000
7C000F8000
3E001F8000
3F003F0000
1F80FE0000
1FFFFC0000
0FFFF80000
03FFE00000
00FF800000
ENDCHAR
STARTCHAR 1EC4
ENCODING 7876
SWIDTH 558 0
DWIDTH 31 0
BBX 31 59 4 0
BITMAP
0000F01C
0003FC3C
0007FFF8
000FBFF8
000E0FE0
001E0000
00000000
00000000
00003E00
00007F00
0000FF00
0001FF80
0003E7C0
0007C3E0
000F81E0
001F01F0
00000000
00000000
00000000
00000000
01FFFFFE
01FFFFFE
03FFFFFC
03FFFFFC
03E00000
03E00000
03E00000
03C00000
07C00000
07C00000
07C00000
07C00000
07C00000
0F800000
0F800000
0F800000
0F800000
0FFFFF80
0FFFFF80
1FFFFF80
1FFFFF80
1F000000
1F000000
1F000000
1E000000
3E000000
3E000000
3E000000
3E000000
3E000000
3C000000
7C000000
7C000000
7C000000
7C000000
7FFFFF80
7FFFFF80
FFFFFF00
FFFFFF00
ENDCHAR
STARTCHAR 1EC5
ENCODING 7877
SWIDTH 558 0
DWIDTH 31 0
BBX 29 49 4 0
BITMAP
0003F038
000FFC78
000FFFF0
001E3FE0
001C0FC0
00000000
00000000
00000000
00007C00
0000FE00
0001FF00
0003EF00
00078F80
000F07C0
001E03C0
007C03E0
00000000
00000000
00000000
000FFE00
003FFF80
00FFFFC0
01FFFFE0
03F007E0
07C003E0
0F8001F0
1F0001F0
1F0001F0
3E0001F0
3E0003E0
7C0003E0
7C000FC0
7FFFFF80
7FFFFF00
7FFFFC00
78000000
F8000000
F8000000
78000000
78000000
7C0007C0
7C000F80
3E001F80
3F003F00
1F80FE00
1FFFFC00
0FFFF800
03FFE000
00FF8000
ENDCHAR
STARTCHAR 1EC6
ENCODING 7878
SWIDTH 558 0
DWIDTH 31 0
BBX 31 63 4 -12
BITMAP
00003E00
00007F00
0000FF00
0001FF80
0003E7C0
0007C3E0
000F81E0
001F01F0
00000000
00000000
00000000
00000000
01FFFFFE
01FFFFFE
03FFFFFC
03FFFFFC
03E00000
03E00000
03E00000
03C00000
07C00000
07C00000
07C00000
07C00000
07C00000
0F800000
0F800000
0F800000
0F800000
0FFFFF80
0FFFFF80
1FFFFF80
1FFFFF80
1F000000
1F000000
1F000000
1E000000
3E000000
3E000000
3E000000
3E000000
3E000000
3C000000
7C000000
7C000000
7C000000
7C000000
7FFFFF80
7FFFFF80
FFFFFF00
FFFFFF00
00000000
00000000
00000000
00000000
00000000
00000000
00300000
00F80000
00FC0000
01FC0000
00F80000
00F00000
ENDCHAR
STARTCHAR 1EC7
ENCODING 7879
SWIDTH 558 0
DWIDTH 31 0
BBX 28 53 4 -12
BITMAP
00007C00
0000FE00
0001FF00
0003EF00
00078F80
000F07C0
001E03C0
007C03E0
00000000
00000000
00000000
000FFE00
003FFF80
00FFFFC0
01FFFFE0
03F007E0
07C003E0
0F8001F0
1F0001F0
1F0001F0
3E0001F0
3E0003E0
7C0003E0
7C000FC0
7FFFFF80
7FFFFF00
7FFFFC00
78000000
F8000000
F8000000
78000000
78000000
7C0007C0
7C000F80
3E001F80
3F003F00
1F80FE00
1FFFFC00
0FFFF800
03FFE000
00FF8000
00000000
00000000
00000000
00000000
00000000
00000000
000E0000
001F0000
003F0000
003F0000
003E0000
003E0000
ENDCHAR
STARTCHAR 1EC8
ENCODING 7880
SWIDTH 234 0
DWIDTH 13 0
BBX 17 53 4 0
BITMAP
007E00
01FF00
03FF80
078780
078780
000780
000700
001E00
003C00
007800
000000
000000
000000
000000
01F000
01F000
01E000
03E000
03E000
03E000
03E000
03E000
03C000
07C000
07C000
07C000
07C000
07C000
0F8000
0F8000
0F8000
0F8000
0F8000
0F8000
1F0000
1F0000
1F0000
1F0000
1F0000
1E0000
3E0000
3E0000
3E0000
3E0000
3E0000
3C0000
7C0000
7C0000
7C0000
7C0000
7C0000
780000
F80000
ENDCHAR
STARTCHAR 1EC9
ENCODING 7881
SWIDTH 234 0
DWIDTH 13 0
BBX 15 44 5 0
BITMAP
0040
07F8
0FFC
1FFC
1E1E
001C
001C
003C
00F0
01E0
03C0
0000
0000
0000
0000
0F80
0F80
0F80
0F80
0F80
0F00
1F00
1F00
1F00
1F00
1E00
1E00
3E00
3E00
3E00
3E00
3C00
3C00
7C00
7C00
7C00
7C00
7800
F800
F800
F800
F800
F800
F000
ENDCHAR
STARTCHAR 1ECA
ENCODING 7882
SWIDTH 234 0
DWIDTH 13 0
BBX 14 51 2 -12
BITMAP
007C
007C
0078
00F8
00F8
00F8
00F8
00F8
00F0
01F0
01F0
01F0
01F0
01F0
03E0
03E0
03E0
03E0
03E0
03E0
07C0
07C0
07C0
07C0
07C0
0780
0F80
0F80
0F80
0F80
0F80
0F00
1F00
1F00
1F00
1F00
1F00
1E00
3E00
0000
0000
0000
0000
0000
0000
3800
7C00
FC00
FC00
FC00
7800
ENDCHAR
STARTCHAR 1ECB
ENCODING 7883
SWIDTH 234 0
DWIDTH 13 0
BBX 15 53 2 -12
BITMAP
0038
007C
00FE
00FC
00FC
0078
0000
0000
0000
0000
0000
0000
01F0
01F0
01F0
01F0
01F0
01E0
03E0
03E0
03E0
03E0
03C0
03C0
07C0
07C0
07C0
07C0
0780
0780
0F80
0F80
0F80
0F80
0F00
1F00
1F00
1F00
1F00
1F00
1E00
0000
0000
0000
0000
0000
0000
3800
7C00
7E00
FE00
FC00
7800
ENDCHAR
STARTCHAR 1ECC
ENCODING 7884
SWIDTH 720 0
DWIDTH 40 0
BBX 36 52 6 -12
BITMAP
00003F0000
0003FFF000
000FFFFC00
003FFFFE00
007FFFFF00
00FF007F80
01FC001F80
03F0000FC0
07E0000FC0
0FC00007E0
0F800003E0
1F800003E0
1F000003E0
3E000003F0
3E000003F0
7E000001F0
7C000001F0
7C000001F0
FC000003F0
F8000003E0
F8000003E0
F8000003E0
F8000003E0
F8000007E0
F8000007C0
F8000007C0
F800000FC0
F800000F80
F800001F80
FC00001F00
FC00003F00
7E00007E00
7E0000FC00
3F0001F800
3F8007F000
1FF03FE000
0FFFFFC000
07FFFF8000
03FFFE0000
00FFF00000
0000000000
0000000000
0000000000
0000000000
0000000000
0000000000
000E000000
001F000000
003F000000
003F000000
003F000000
003E000000
ENDCHAR
STARTCHAR 1ECD
ENCODING 7885
SWIDTH 576 0
DWIDTH 32 0
BBX 28 42 4 -12
BITMAP
0007F800
003FFE00
007FFF80
01FFFFC0
03F81FC0
07E007E0
0FC003E0
0F8003F0
1F0001F0
3E0001F0
3E0001F0
3C0000F0
7C0000F0
7C0001F0
7C0001F0
780001F0
F80001F0
F80001F0
F80003E0
F80003E0
F80007C0
7C0007C0
7C000F80
7E001F80
3F003F00
3F80FE00
1FFFFC00
0FFFF800
07FFE000
01FF8000
00000000
00000000
00000000
00000000
00000000
00000000
00700000
00F80000
01F80000
01F80000
01F80000
00F00000
ENDCHAR
STARTCHAR 1ECE
ENCODING 7886
SWIDTH 720 0
DWIDTH 40 0
BBX 36 53 6 0
BITMAP
00000FE000
00001FF000
00003FF000
0000787800
0000707800
0000007000
000000F000
000001E000
000003C000
00000F0000
0000000000
0000000000
0000000000
00003F0000
0003FFF000
000FFFFC00
003FFFFE00
007FFFFF00
00FF007F80
01FC001F80
03F0000FC0
07E0000FC0
0FC00007E0
0F800003E0
1F800003E0
1F000003E0
3E000003F0
3E000003F0
7E000001F0
7C000001F0
7C000001F0
FC000003F0
F8000003E0
F8000003E0
F8000003E0
F8000003E0
F8000007E0
F8000007C0
F8000007C0
F800000FC0
F800000F80
F800001F80
FC00001F00
FC00003F00
7E00007E00
7E0000FC00
3F0001F800
3F8007F000
1FF03FE000
0FFFFFC000
07FFFF8000
03FFFE0000
00FFF00000
ENDCHAR
STARTCHAR 1ECF
ENCODING 7887
SWIDTH 576 0
DWIDTH 32 0
BBX 28 43 4 1
BITMAP
0001FE00
0003FF00
0007DF00
00078700
00000700
00000700
00000E00
00003C00
00007800
0000F000
00000000
00000000
00000000
0007F800
003FFE00
007FFF80
01FFFFC0
03F81FC0
07E007E0
0FC003E0
0F8003F0
1F0001F0
3E0001F0
3E0001F0
3C0000F0
7C0000F0
7C0001F0
7C0001F0
780001F0
F80001F0
F80001F0
F80003E0
F80003E0
F80007C0
7C0007C0
7C000F80
7E001F80
3F003F00
3F80FE00
1FFFFC00
0FFFF800
07FFE000
01FF8000
ENDCHAR
STARTCHAR 1ED0
ENCODING 7888
SWIDTH 720 0
DWIDTH 40 0
BBX 41 59 6 0
BITMAP
000000000F80
000000001F00
000000003E00
000000003C00
000000007800
00000000F000
00000001F000
00000001E000
00000783C000
00000FC78000
00001FE00000
00003DE00000
000079F00000
0001F0F80000
0003E07C0000
0007C03C0000
000000020000
000000000000
000000000000
00003F000000
0003FFF00000
000FFFFC0000
003FFFFE0000
007FFFFF0000
00FF007F8000
01FC001F8000
03F0000FC000
07E0000FC000
0FC00007E000
0F800003E000
1F800003E000
1F000003E000
3E000003F000
3E000003F000
7E000001F000
7C000001F000
7C000001F000
FC000003F000
F8000003E000
F8000003E000
F8000003E000
F8000003E000
F8000007E000
F8000007C000
F8000007C000
F800000FC000
F800000F8000
F800001F8000
FC00001F0000
FC00003F0000
7E00007E0000
7E0000FC0000
3F0001F80000
3F8007F00000
1FF03FE00000
0FFFFFC00000
07FFFF800000
03FFFE000000
00FFF0000000
ENDCHAR
STARTCHAR 1ED1
ENCODING 7889
SWIDTH 576 0
DWIDTH 32 0
BBX 37 50 4 0
BITMAP
00000000F8
00000001F0
00000003E0
00000003C0
00000007C0
0000000F80
0000000F00
0000001E00
0000003C00
0000F87800
0001FC0000
0003FE0000
0007DE0000
000F9F0000
001F0F8000
003C07C000
007803C000
0000000000
0000000000
0000000000
0007F80000
003FFE0000
007FFF8000
01FFFFC000
03F81FC000
07E007E000
0FC003E000
0F8003F000
1F0001F000
3E0001F000
3E0001F000
3C0000F000
7C0000F000
7C0001F000
7C0001F000
780001F000
F80001F000
F80001F000
F80003E000
F80003E000
F80007C000
7C0007C000
7C000F8000
7E001F8000
3F003F0000
3F80FE0000
1FFFFC0000
0FFFF80000
07FFE00000
01FF800000
ENDCHAR
STARTCHAR 1ED2
ENCODING 7890
SWIDTH 720 0
DWIDTH 40 0
BBX 36 59 6 0
BITMAP
0000007C00
0000007C00
0000003E00
0000003E00
0000001E00
0000001F00
0000000F00
0000000F00
0000078780
00000FC780
00001FE000
00003DE000
0000F9F000
0001F0F800
0003E07C00
0007C03C00
0000000200
0000000000
0000000000
00003F0000
0003FFF000
000FFFFC00
003FFFFE00
007FFFFF00
00FF007F80
01FC001F80
03F0000FC0
07E0000FC0
0FC00007E0
0F800003E0
1F800003E0
1F000003E0
3E000003F0
3E000003F0
7E000001F0
7C000001F0
7C000001F0
FC000003F0
F8000003E0
F8000003E0
F8000003E0
F8000003E0
F8000007E0
F8000007C0
F8000007C0
F800000FC0
F800000F80
F800001F80
FC00001F00
FC00003F00
7E00007E00
7E0000FC00
3F0001F800
3F8007F000
1FF03FE000
0FFFFFC000
07FFFF8000
03FFFE0000
00FFF00000
ENDCHAR
STARTCHAR 1ED3
ENCODING 7891
SWIDTH 576 0
DWIDTH 32 0
BBX 29 50 4 0
BITMAP
00000F80
000007C0
000007C0
000003C0
000003E0
000001E0
000001F0
000000F0
000000F0
0000F878
0001FC00
0003FE00
0007DE00
000F9F00
001F0F80
003C07C0
007803C0
00000000
00000000
00000000
0007F800
003FFE00
007FFF80
01FFFFC0
03F81FC0
07E007E0
0FC003E0
0F8003F0
1F0001F0
3E0001F0
3E0001F0
3C0000F0
7C0000F0
7C0001F0
7C0001F0
780001F0
F80001F0
F80001F0
F80003E0
F80003E0
F80007C0
7C0007C0
7C000F80
7E001F80
3F003F00
3F80FE00
1FFFFC00
0FFFF800
07FFE000
01FF8000
ENDCHAR
STARTCHAR 1ED4
ENCODING 7892
SWIDTH 720 0
DWIDTH 40 0
BBX 38 60 6 0
BITMAP
00000003F0
0000000FF8
0000001FFC
0000001E3C
0000003C3C
000000003C
0000000038
00000000F0
00000001E0
00000783C0
00000FC000
00001FE000
00003DE000
000079F000
0001F0F800
0003E07C00
0007C03C00
0000000200
0000000000
0000000000
00003F0000
0003FFF000
000FFFFC00
003FFFFE00
007FFFFF00
00FF007F80
01FC001F80
03F0000FC0
07E0000FC0
0FC00007E0
0F800003E0
1F800003E0
1F000003E0
3E000003F0
3E000003F0
7E000001F0
7C000001F0
7C000001F0
FC000003F0
F8000003E0
F8000003E0
F8000003E0
F8000003E0
F8000007E0
F8000007C0
F8000007C0
F800000FC0
F800000F80
F800001F80
FC00001F00
FC00003F00
7E00007E00
7E0000FC00
3F0001F800
3F8007F000
1FF03FE000
0FFFFFC000
07FFFF8000
03FFFE0000
00FFF00000
ENDCHAR
STARTCHAR 1ED5
ENCODING 7893
SWIDTH 576 0
DWIDTH 32 0
BBX 34 50 4 0
BITMAP
0000007F00
000001FF80
000001FFC0
000003C3C0
00000003C0
0000000380
0000000780
0000000F00
0000003C00
0000F87800
0001FC0000
0003FE0000
0007DE0000
000F9F0000
001F0F8000
003C07C000
007803C000
0000000000
0000000000
0000000000
0007F80000
003FFE0000
007FFF8000
01FFFFC000
03F81FC000
07E007E000
0FC003E000
0F8003F000
1F0001F000
3E0001F000
3E0001F000
3C0000F000
7C0000F000
7C0001F000
7C0001F000
780001F000
F80001F000
F80001F000
F80003E000
F80003E000
F80007C000
7C0007C000
7C000F8000
7E001F8000
3F003F0000
3F80FE0000
1FFFFC0000
0FFFF80000
07FFE00000
01FF800000
ENDCHAR
STARTCHAR 1ED6
ENCODING 7894
SWIDTH 720 0
DWIDTH 40 0
BBX 36 59 6 0
BITMAP
00003C0780
0000FF0700
0001FFFF00
0001EFFE00
0003C1FC00
0003800000
0000000000
0000000000
0000078000
00000FC000
00001FE000
00003DE000
000079F000
0001F0F800
0003E07C00
0007C03C00
0000000200
0000000000
0000000000
00003F0000
0003FFF000
000FFFFC00
003FFFFE00
007FFFFF00
00FF007F80
01FC001F80
03F0000FC0
07E0000FC0
0FC00007E0
0F800003E0
1F800003E0
1F000003E0
3E000003F0
3E000003F0
7E000001F0
7C000001F0
7C000001F0
FC000003F0
F8000003E0
F8000003E0
F8000003E0
F8000003E0
F8000007E0
F8000007C0
F8000007C0
F800000FC0
F800000F80
F800001F80
FC00001F00
FC00003F00
7E00007E00
7E0000FC00
3F0001F800
3F8007F000
1FF03FE000
0FFFFFC000
07FFFF8000
03FFFE0000
00FFF00000
ENDCHAR
STARTCHAR 1ED7
ENCODING 7895
SWIDTH 576 0
DWIDTH 32 0
BBX 28 49 4 0
BITMAP
0007E070
000FF8F0
001FFFE0
003C7FC0
00381F80
00000000
00000000
00000000
0000F800
0001FC00
0003FE00
0007DE00
000F9F00
001F0F80
003C07C0
007803C0
00000000
00000000
00000000
0007F800
003FFE00
007FFF80
01FFFFC0
03F81FC0
07E007E0
0FC003E0
0F8003F0
1F0001F0
3E0001F0
3E0001F0
3C0000F0
7C0000F0
7C0001F0
7C0001F0
780001F0
F80001F0
F80001F0
F80003E0
F80003E0
F80007C0
7C0007C0
7C000F80
7E001F80
3F003F00
3F80FE00
1FFFFC00
0FFFF800
07FFE000
01FF8000
ENDCHAR
STARTCHAR 1ED8
ENCODING 7896
SWIDTH 720 0
DWIDTH 40 0
BBX 36 63 6 -12
BITMAP
0000078000
00000FC000
00001FE000
00003DE000
000079F000
0001F0F800
0003E07C00
0007C03C00
0000000200
0000000000
0000000000
00003F0000
0003FFF000
000FFFFC00
003FFFFE00
007FFFFF00
00FF007F80
01FC001F80
03F0000FC0
07E0000FC0
0FC00007E0
0F800003E0
1F800003E0
1F000003E0
3E000003F0
3E000003F0
7E000001F0
7C000001F0
7C000001F0
FC000003F0
F8000003E0
F8000003E0
F8000003E0
F8000003E0
F8000007E0
F8000007C0
F8000007C0
F800000FC0
F800000F80
F800001F80
FC00001F00
FC00003F00
7E00007E00
7E0000FC00
3F0001F800
3F8007F000
1FF03FE000
0FFFFFC000
07FFFF8000
03FFFE0000
00FFF00000
0000000000
0000000000
0000000000
0000000000
0000000000
0000000000
000E000000
001F000000
003F000000
003F000000
003F000000
003E000000
ENDCHAR
STARTCHAR 1ED9
ENCODING 7897
SWIDTH 576 0
DWIDTH 32 0
BBX 28 53 4 -12
BITMAP
0000F800
0001FC00
0003FE00
0007DE00
000F9F00
001F0F80
003E07C0
007803C0
00000000
00000000
00000000
0007F800
003FFE00
007FFF80
01FFFFC0
03F81FC0
07E007E0
0FC003E0
0F8003F0
1F0001F0
3E0001F0
3E0001F0
3C0000F0
7C0000F0
7C0001F0
7C0001F0
780001F0
F80001F0
F80001F0
F80003E0
F80003E0
F80007C0
7C0007C0
7C000F80
7E001F80
3F003F00
3F80FE00
1FFFFC00
0FFFF800
07FFE000
01FF8000
00000000
00000000
00000000
00000000
00000000
00000000
00700000
00F80000
01F80000
01F80000
01F80000
00F00000
ENDCHAR
STARTCHAR 1EDA
ENCODING 7898
SWIDTH 720 0
DWIDTH 40 0
BBX 36 53 6 0
BITMAP
0000001F00
0000003E00
0000007C00
0000007800
000000F800
000001F000
000001E000
000003C000
0000078000
00000F0070
00000000F0
00000000F0
00000000F0
00003F01E0
0003FFFFE0
000FFFFFC0
003FFFFE00
007FFFFF00
00FF007F80
01FC001F80
03F0000FC0
07E0000FC0
0FC00007E0
0F800003E0
1F800003E0
1F000003E0
3E000003F0
3E000003F0
7E000001F0
7C000001F0
7C000001F0
FC000003F0
F8000003E0
F8000003E0
F8000003E0
F8000003E0
F8000007E0
F8000007C0
F8000007C0
F800000FC0
F800000F80
F800001F80
FC00001F00
FC00003F00
7E00007E00
7E0000FC00
3F0001F800
3F8007F000
1FF03FE000
0FFFFFC000
07FFFF8000
03FFFE0000
00FFF00000
ENDCHAR
STARTCHAR 1EDB
ENCODING 7899
SWIDTH 594 0
DWIDTH 33 0
BBX 32 43 4 0
BITMAP
000003E0
000003E0
000007C0
00000F80
00001F00
00001E00
00003C00
00007800
00007800
0000F00F
0000000F
0000000F
0000001E
0007F83E
003FFFFC
007FFFF0
01FFFFC0
03F81FC0
07E007E0
0FC003E0
0F8003F0
1F0001F0
3E0001F0
3E0001F0
3C0000F0
7C0000F0
7C0001F0
7C0001F0
780001F0
F80001F0
F80001F0
F80003E0
F80003E0
F80007C0
7C0007C0
7C000F80
7E001F80
3F003F00
3F80FE00
1FFFFC00
0FFFF800
07FFE000
01FF8000
ENDCHAR
STARTCHAR 1EDC
ENCODING 7900
SWIDTH 720 0
DWIDTH 40 0
BBX 36 53 6 0
BITMAP
0001F00000
0001F00000
0000F80000
0000F80000
0000780000
00007C0000
00003C0000
00003E0000
00001E0000
00001E0070
00000000F0
00000000F0
00000000F0
00003F01E0
0003FFFFE0
000FFFFFC0
003FFFFE00
007FFFFF00
00FF007F80
01FC001F80
03F0000FC0
07E0000FC0
0FC00007E0
0F800003E0
1F800003E0
1F000003E0
3E000003F0
3E000003F0
7E000001F0
7C000001F0
7C000001F0
FC000003F0
F8000003E0
F8000003E0
F8000003E0
F8000003E0
F8000007E0
F8000007C0
F8000007C0
F800000FC0
F800000F80
F800001F80
FC00001F00
FC00003F00
7E00007E00
7E0000FC00
3F0001F800
3F8007F000
1FF03FE000
0FFFFFC000
07FFFF8000
03FFFE0000
00FFF00000
ENDCHAR
STARTCHAR 1EDD
ENCODING 7901
SWIDTH 594 0
DWIDTH 33 0
BBX 32 43 4 0
BITMAP
001F0000
001F0000
000F8000
000F8000
00078000
0007C000
0003C000
0003C000
0001E000
0001E00F
0000000F
0000000F
0000001E
0007F83E
003FFFFC
007FFFF0
01FFFFC0
03F81FC0
07E007E0
0FC003E0
0F8003F0
1F0001F0
3E0001F0
3E0001F0
3C0000F0
7C0000F0
7C0001F0
7C0001F0
780001F0
F80001F0
F80001F0
F80003E0
F80003E0
F80007C0
7C0007C0
7C000F80
7E001F80
3F003F00
3F80FE00
1FFFFC00
0FFFF800
07FFE000
01FF8000
ENDCHAR
STARTCHAR 1EDE
ENCODING 7902
SWIDTH 720 0
DWIDTH 40 0
BBX 36 53 6 0
BITMAP
00000FE000
00001FF000
00003FF000
0000787800
0000707800
0000007000
000000F000
000001E000
000003C000
00000F0070
00000000F0
00000000F0
00000000F0
00003F01E0
0003FFFFE0
000FFFFFC0
003FFFFE00
007FFFFF00
00FF007F80
01FC001F80
03F0000FC0
07E0000FC0
0FC00007E0
0F800003E0
1F800003E0
1F000003E0
3E000003F0
3E000003F0
7E000001F0
7C000001F0
7C000001F0
FC000003F0
F8000003E0
F8000003E0
F8000003E0
F8000003E0
F8000007E0
F8000007C0
F8000007C0
F800000FC0
F800000F80
F800001F80
FC00001F00
FC00003F00
7E00007E00
7E0000FC00
3F0001F800
3F8007F000
1FF03FE000
0FFFFFC000
07FFFF8000
03FFFE0000
00FFF00000
ENDCHAR
STARTCHAR 1EDF
ENCODING 7903
SWIDTH 594 0
DWIDTH 33 0
BBX 32 43 4 1
BITMAP
0001FE00
0003FF00
0007DF00
00078700
00000700
00000700
00000E00
00003C00
00007800
0000F00F
0000000F
0000000F
0000001E
0007F83E
003FFFFC
007FFFF0
01FFFFC0
03F81FC0
07E007E0
0FC003E0
0F8003F0
1F0001F0
3E0001F0
3E0001F0
3C0000F0
7C0000F0
7C0001F0
7C0001F0
780001F0
F80001F0
F80001F0
F80003E0
F80003E0
F80007C0
7C0007C0
7C000F80
7E001F80
3F003F00
3F80FE00
1FFFFC00
0FFFF800
07FFE000
01FF8000
ENDCHAR
STARTCHAR 1EE0
ENCODING 7904
SWIDTH 720 0
DWIDTH 40 0
BBX 36 50 6 0
BITMAP
0000FC0F00
0001FF1E00
0003FFFE00
0003C7FC00
000781F800
0000000000
0000000070
00000000F0
00000000F0
00000000F0
00003F01E0
0003FFFFE0
000FFFFFC0
003FFFFE00
007FFFFF00
00FF007F80
01FC001F80
03F0000FC0
07E0000FC0
0FC00007E0
0F800003E0
1F800003E0
1F000003E0
3E000003F0
3E000003F0
7E000001F0
7C000001F0
7C000001F0
FC000003F0
F8000003E0
F8000003E0
F8000003E0
F8000003E0
F8000007E0
F8000007C0
F8000007C0
F800000FC0
F800000F80
F800001F80
FC00001F00
FC00003F00
7E00007E00
7E0000FC00
3F0001F800
3F8007F000
1FF03FE000
0FFFFFC000
07FFFF8000
03FFFE0000
00FFF00000
ENDCHAR
STARTCHAR 1EE1
ENCODING 7905
SWIDTH 594 0
DWIDTH 33 0
BBX 32 41 4 0
BITMAP
00018070
000FE0E0
001FFFE0
003FFFC0
00787F80
00701E00
00000000
0000000F
0000000F
0000000F
0000001E
0007F83E
003FFFFC
007FFFF0
01FFFFC0
03F81FC0
07E007E0
0FC003E0
0F8003F0
1F0001F0
3E0001F0
3E0001F0
3C0000F0
7C0000F0
7C0001F0
7C0001F0
780001F0
F80001F0
F80001F0
F80003E0
F80003E0
F80007C0
7C0007C0
7C000F80
7E001F80
3F003F00
3F80FE00
1FFFFC00
0FFFF800
07FFE000
01FF8000
ENDCHAR
STARTCHAR 1EE2
ENCODING 7906
SWIDTH 720 0
DWIDTH 40 0
BBX 36 56 6 -12
BITMAP
0000000070
00000000F0
00000000F0
00000000F0
00003F01E0
0003FFFFE0
000FFFFFC0
003FFFFE00
007FFFFF00
00FF007F80
01FC001F80
03F0000FC0
07E0000FC0
0FC00007E0
0F800003E0
1F800003E0
1F000003E0
3E000003F0
3E000003F0
7E000001F0
7C000001F0
7C000001F0
FC000003F0
F8000003E0
F8000003E0
F8000003E0
F8000003E0
F8000007E0
F8000007C0
F8000007C0
F800000FC0
F800000F80
F800001F80
FC00001F00
FC00003F00
7E00007E00
7E0000FC00
3F0001F800
3F8007F000
1FF03FE000
0FFFFFC000
07FFFF8000
03FFFE0000
00FFF00000
0000000000
0000000000
0000000000
0000000000
0000000000
0000000000
000E000000
001F000000
003F000000
003F000000
003F000000
003E000000
ENDCHAR
STARTCHAR 1EE3
ENCODING 7907
SWIDTH 594 0
DWIDTH 33 0
BBX 32 46 4 -12
BITMAP
0000000F
0000000F
0000000F
0000001E
0007F83E
003FFFFC
007FFFF0
01FFFFC0
03F81FC0
07E007E0
0FC003E0
0F8003F0
1F0001F0
3E0001F0
3E0001F0
3C0000F0
7C0000F0
7C0001F0
7C0001F0
780001F0
F80001F0
F80001F0
F80003E0
F80003E0
F80007C0
7C0007C0
7C000F80
7E001F80
3F003F00
3F80FE00
1FFFFC00
0FFFF800
07FFE000
01FF8000
00000000
00000000
00000000
00000000
00000000
00000000
00700000
00F80000
01F80000
01F80000
01F80000
00F00000
ENDCHAR
STARTCHAR 1EE4
ENCODING 7908
SWIDTH 684 0
DWIDTH 38 0
BBX 35 51 6 -12
BITMAP
0F800003E0
0F800003E0
0F800003E0
0F000003C0
0F000003C0
1F000007C0
1F000007C0
1F000007C0
1F000007C0
1E00000780
3E00000F80
3E00000F80
3E00000F80
3E00000F80
3E00000F80
3C00000F00
7C00001F00
7C00001F00
7C00001F00
7C00001F00
7C00001F00
7800001E00
F800003E00
F800003E00
F800003E00
F800003C00
F800007C00
F800007C00
F80000F800
F80000F800
FC0001F000
7C0003F000
7E0007E000
7F000FC000
3FC07FC000
1FFFFF0000
0FFFFE0000
07FFFC0000
01FFE00000
0008000000
0000000000
0000000000
0000000000
0000000000
0000000000
0018000000
007C000000
007E000000
00FE000000
00FC000000
0078000000
ENDCHAR
STARTCHAR 1EE5
ENCODING 7909
SWIDTH 594 0
DWIDTH 33 0
BBX 28 41 6 -12
BITMAP
1F0000F0
1E0001F0
1E0001F0
3E0001F0
3E0001F0
3E0001F0
3E0001E0
3C0003E0
7C0003E0
7C0003E0
7C0003E0
7C0003C0
7C0007C0
780007C0
F80007C0
F80007C0
F80007C0
F8000780
F8000F80
F8000F80
F8001F80
F8001F80
FC003F80
FC006F00
7F01FF00
7FFFDF00
3FFF9F00
1FFE1F00
0FFC1F00
00800000
00000000
00000000
00000000
00000000
00000000
00C00000
03E00000
03F00000
07F00000
07E00000
03C00000
ENDCHAR
STARTCHAR 1EE6
ENCODING 7910
SWIDTH 684 0
DWIDTH 38 0
BBX 35 54 6 -1
BITMAP
00001F8000
00007FE000
0000FFE000
0000F1E000
0001E0E000
000000E000
000001E000
000003C000
00000F0000
00001E0000
0000000000
0000000000
0000000000
0000000000
0F800003E0
0F800003E0
0F800003E0
0F000003C0
0F000003C0
1F000007C0
1F000007C0
1F000007C0
1F000007C0
1E00000780
3E00000F80
3E00000F80
3E00000F80
3E00000F80
3E00000F80
3C00000F00
7C00001F00
7C00001F00
7C00001F00
7C00001F00
7C00001F00
7800001E00
F800003E00
F800003E00
F800003E00
F800003C00
F800007C00
F800007C00
F80000F800
F80000F800
FC0001F000
7C0003F000
7E0007E000
7F000FC000
3FC07FC000
1FFFFF0000
0FFFFE0000
07FFFC0000
01FFE00000
0008000000
ENDCHAR
STARTCHAR 1EE7
ENCODING 7911
SWIDTH 594 0
DWIDTH 33 0
BBX 28 45 6 -1
BITMAP
00004000
0007F800
000FFC00
001FFC00
001E1E00
00001C00
00001C00
00003C00
0000F000
0001E000
0003C000
00000000
00000000
00000000
00000000
1F0000F0
1E0001F0
1E0001F0
3E0001F0
3E0001F0
3E0001F0
3E0001E0
3C0003E0
7C0003E0
7C0003E0
7C0003E0
7C0003C0
7C0007C0
780007C0
F80007C0
F80007C0
F80007C0
F8000780
F8000F80
F8000F80
F8001F80
F8001F80
FC003F80
FC006F00
7F01FF00
7FFFDF00
3FFF9F00
1FFE1F00
0FFC1F00
00800000
ENDCHAR
STARTCHAR 1EE8
ENCODING 7912
SWIDTH 684 0
DWIDTH 38 0
BBX 42 54 6 -1
BITMAP
0000003E0000
0000007C0000
000000F80000
000001F00000
000001E00000
000003C00000
000007C00000
000007800000
00000F000000
00001E0003C0
0000000003C0
000000000380
000000000780
000000000F80
0F800003FF00
0F800003FE00
0F800003F000
0F000003C000
0F000003C000
1F000007C000
1F000007C000
1F000007C000
1F000007C000
1E0000078000
3E00000F8000
3E00000F8000
3E00000F8000
3E00000F8000
3E00000F8000
3C00000F0000
7C00001F0000
7C00001F0000
7C00001F0000
7C00001F0000
7C00001F0000
7800001E0000
F800003E0000
F800003E0000
F800003E0000
F800003C0000
F800007C0000
F800007C0000
F80000F80000
F80000F80000
FC0001F00000
7C0003F00000
7E0007E00000
7F000FC00000
3FC07FC00000
1FFFFF000000
0FFFFE000000
07FFFC000000
01FFE0000000
000800000000
ENDCHAR
STARTCHAR 1EE9
ENCODING 7913
SWIDTH 594 0
DWIDTH 33 0
BBX 35 44 6 -1
BITMAP
00000FC000
00000F8000
00001F0000
00003E0000
00003C0000
0000780000
0000F00000
0001F00000
0001E00000
0003C001E0
00000001E0
00000001E0
00000001E0
00000007C0
1F0000FF80
1E0001FF00
1E0001F000
3E0001F000
3E0001F000
3E0001F000
3E0001E000
3C0003E000
7C0003E000
7C0003E000
7C0003E000
7C0003E000
7C0007C000
780007C000
F80007C000
F80007C000
F80007C000
F800078000
F8000F8000
F8000F8000
F8001F8000
F8001F8000
FC003F8000
FC006F0000
7F01FF0000
7FFFDF0000
3FFF9F0000
1FFE1F0000
0FFC1F0000
0080000000
ENDCHAR
STARTCHAR 1EEA
ENCODING 7914
SWIDTH 684 0
DWIDTH 38 0
BBX 42 54 6 -1
BITMAP
0007E0000000
0003E0000000
0003E0000000
0001F0000000
0001F0000000
0000F0000000
0000F8000000
000078000000
00007C000000
00003C0003C0
0000000003C0
000000000380
000000000780
000000000F80
0F800003FF00
0F800003FE00
0F800003F000
0F000003C000
0F000003C000
1F000007C000
1F000007C000
1F000007C000
1F000007C000
1E0000078000
3E00000F8000
3E00000F8000
3E00000F8000
3E00000F8000
3E00000F8000
3C00000F0000
7C00001F0000
7C00001F0000
7C00001F0000
7C00001F0000
7C00001F0000
7800001E0000
F800003E0000
F800003E0000
F800003E0000
F800003C0000
F800007C0000
F800007C0000
F80000F80000
F80000F80000
FC0001F00000
7C0003F00000
7E0007E00000
7F000FC00000
3FC07FC00000
1FFFFF000000
0FFFFE000000
07FFFC000000
01FFE0000000
000800000000
ENDCHAR
STARTCHAR 1EEB
ENCODING 7915
SWIDTH 594 0
DWIDTH 33 0
BBX 35 44 6 -1
BITMAP
01F0000000
00F8000000
00F8000000
0078000000
007C000000
003C000000
003C000000
001E000000
001E000000
000F0001E0
00000001E0
00000001E0
00000001E0
00000007C0
1F0000FF80
1E0001FF00
1E0001F000
3E0001F000
3E0001F000
3E0001F000
3E0001E000
3C0003E000
7C0003E000
7C0003E000
7C0003E000
7C0003E000
7C0007C000
780007C000
F80007C000
F80007C000
F80007C000
F800078000
F8000F8000
F8000F8000
F8001F8000
F8001F8000
FC003F8000
FC006F0000
7F01FF0000
7FFFDF0000
3FFF9F0000
1FFE1F0000
0FFC1F0000
0080000000
ENDCHAR
STARTCHAR 1EEC
ENCODING 7916
SWIDTH 684 0
DWIDTH 38 0
BBX 42 54 6 -1
BITMAP
00001F800000
00007FE00000
0000FFE00000
0000F1E00000
0001E0E00000
000000E00000
000001E00000
000003C00000
00000F000000
00001E0003C0
0000000003C0
000000000380
000000000780
000000000F80
0F800003FF00
0F800003FE00
0F800003F000
0F000003C000
0F000003C000
1F000007C000
1F000007C000
1F000007C000
1F000007C000
1E0000078000
3E00000F8000
3E00000F8000
3E00000F8000
3E00000F8000
3E00000F8000
3C00000F0000
7C00001F0000
7C00001F0000
7C00001F0000
7C00001F0000
7C00001F0000
7800001E0000
F800003E0000
F800003E0000
F800003E0000
F800003C0000
F800007C0000
F800007C0000
F80000F80000
F80000F80000
FC0001F00000
7C0003F00000
7E0007E00000
7F000FC00000
3FC07FC00000
1FFFFF000000
0FFFFE000000
07FFFC000000
01FFE0000000
000800000000
ENDCHAR
STARTCHAR 1EED
ENCODING 7917
SWIDTH 594 0
DWIDTH 33 0
BBX 35 45 6 -1
BITMAP
0000400000
0007F80000
000FFC0000
001FFC0000
001E1E0000
00001C0000
00001C0000
00003C0000
0000F00000
0001E00000
0003C001E0
00000001E0
00000001E0
00000001E0
00000007C0
1F0000FF80
1E0001FF00
1E0001F000
3E0001F000
3E0001F000
3E0001F000
3E0001E000
3C0003E000
7C0003E000
7C0003E000
7C0003E000
7C0003E000
7C0007C000
780007C000
F80007C000
F80007C000
F80007C000
F800078000
F8000F8000
F8000F8000
F8001F8000
F8001F8000
FC003F8000
FC006F0000
7F01FF0000
7FFFDF0000
3FFF9F0000
1FFE1F0000
0FFC1F0000
0080000000
ENDCHAR
STARTCHAR 1EEE
ENCODING 7918
SWIDTH 684 0
DWIDTH 38 0
BBX 42 51 6 -1
BITMAP
0001F81C0000
0003FE3C0000
0007FFF80000
000F1FF80000
000E07E00000
000000000000
0000000003C0
0000000003C0
000000000380
000000000780
000000000F80
0F800003FF00
0F800003FE00
0F800003F000
0F000003C000
0F000003C000
1F000007C000
1F000007C000
1F000007C000
1F000007C000
1E0000078000
3E00000F8000
3E00000F8000
3E00000F8000
3E00000F8000
3E00000F8000
3C00000F0000
7C00001F0000
7C00001F0000
7C00001F0000
7C00001F0000
7C00001F0000
7800001E0000
F800003E0000
F800003E0000
F800003E0000
F800003C0000
F800007C0000
F800007C0000
F80000F80000
F80000F80000
FC0001F00000
7C0003F00000
7E0007E00000
7F000FC00000
3FC07FC00000
1FFFFF000000
0FFFFE000000
07FFFC000000
01FFE0000000
000800000000
ENDCHAR
STARTCHAR 1EEF
ENCODING 7919
SWIDTH 594 0
DWIDTH 33 0
BBX 35 42 6 -1
BITMAP
000401C000
003F838000
007FFF8000
00FFFF0000
01E1FE0000
01C0780000
0000000000
00000001E0
00000001E0
00000001E0
00000001E0
00000007C0
1F0000FF80
1E0001FF00
1E0001F000
3E0001F000
3E0001F000
3E0001F000
3E0001E000
3C0003E000
7C0003E000
7C0003E000
7C0003E000
7C0003E000
7C0007C000
780007C000
F80007C000
F80007C000
F80007C000
F800078000
F8000F8000
F8000F8000
F8001F8000
F8001F8000
FC003F8000
FC006F0000
7F01FF0000
7FFFDF0000
3FFF9F0000
1FFE1F0000
0FFC1F0000
0080000000
ENDCHAR
STARTCHAR 1EF0
ENCODING 7920
SWIDTH 684 0
DWIDTH 38 0
BBX 42 56 6 -12
BITMAP
0000000003C0
0000000003C0
000000000380
000000000780
000000000F80
0F800003FF00
0F800003FE00
0F800003F000
0F000003C000
0F000003C000
1F000007C000
1F000007C000
1F000007C000
1F000007C000
1E0000078000
3E00000F8000
3E00000F8000
3E00000F8000
3E00000F8000
3E00000F8000
3C00000F0000
7C00001F0000
7C00001F0000
7C00001F0000
7C00001F0000
7C00001F0000
7800001E0000
F800003E0000
F800003E0000
F800003E0000
F800003C0000
F800007C0000
F800007C0000
F80000F80000
F80000F80000
FC0001F00000
7C0003F00000
7E0007E00000
7F000FC00000
3FC07FC00000
1FFFFF000000
0FFFFE000000
07FFFC000000
01FFE0000000
000800000000
000000000000
000000000000
000000000000
000000000000
000000000000
001800000000
007C00000000
007E00000000
00FE00000000
00FC00000000
007800000000
ENDCHAR
STARTCHAR 1EF1
ENCODING 7921
SWIDTH 594 0
DWIDTH 33 0
BBX 35 46 6 -12
BITMAP
00000001E0
00000001E0
00000001E0
00000001E0
00000007C0
1F0000FF80
1E0001FF00
1E0001F000
3E0001F000
3E0001F000
3E0001F000
3E0001E000
3C0003E000
7C0003E000
7C0003E000
7C0003E000
7C0003E000
7C0007C000
780007C000
F80007C000
F80007C000
F80007C000
F800078000
F8000F8000
F8000F8000
F8001F8000
F8001F8000
FC003F8000
FC006F0000
7F01FF0000
7FFFDF0000
3FFF9F0000
1FFE1F0000
0FFC1F0000
0080000000
0000000000
0000000000
0000000000
0000000000
0000000000
0380000000
07C0000000
0FC0000000
0FC0000000
0FC0000000
0F80000000
ENDCHAR
STARTCHAR 1EF2
ENCODING 7922
SWIDTH 612 0
DWIDTH 34 0
BBX 29 53 9 0
BITMAP
00F80000
007C0000
007C0000
003C0000
003E0000
001E0000
001F0000
000F0000
000F0000
00078000
00000000
00000000
00000000
00000000
F80000F8
F80001F8
FC0001F0
7C0003E0
7C0007E0
7C0007C0
3E000F80
3E001F80
3E001F00
1F003E00
1F007E00
1F007C00
0F80F800
0F81F800
0F81F000
07C3E000
07C7E000
07C7C000
03EF8000
03FF0000
03FF0000
01FE0000
01FC0000
01FC0000
00F80000
00F80000
00F80000
00F00000
01F00000
01F00000
01F00000
01F00000
01F00000
03E00000
03E00000
03E00000
03E00000
03E00000
03C00000
ENDCHAR
STARTCHAR 1EF3
ENCODING 7923
SWIDTH 486 0
DWIDTH 27 0
BBX 32 54 0 -11
BITMAP
0007C000
0007C000
0003C000
0003E000
0001E000
0001F000
0000F000
0000F000
00007800
00007800
00000000
00000000
00000000
00000000
03E0001F
03E0003E
03E0003E
03E0007C
03E0007C
01E000F8
01F000F8
01F001F0
01F001E0
00F003E0
00F007C0
00F807C0
00F80F80
00F80F00
00781F00
00781E00
007C3E00
007C3C00
003C7C00
003C7800
003CF000
003FF000
003FE000
001FE000
001FC000
001F8000
001F8000
001F0000
001F0000
003E0000
003E0000
007C0000
00780000
00F80000
01F00000
03F00000
DFE00000
FFC00000
FF800000
FE000000
ENDCHAR
STARTCHAR 1EF4
ENCODING 7924
SWIDTH 612 0
DWIDTH 34 0
BBX 29 51 9 -12
BITMAP
F80000F8
F80001F8
FC0001F0
7C0003E0
7C0007E0
7C0007C0
3E000F80
3E001F80
3E001F00
1F003E00
1F007E00
1F007C00
0F80F800
0F81F800
0F81F000
07C3E000
07C7E000
07C7C000
03EF8000
03FF0000
03FF0000
01FE0000
01FC0000
01FC0000
00F80000
00F80000
00F80000
00F00000
01F00000
01F00000
01F00000
01F00000
01F00000
03E00000
03E00000
03E00000
03E00000
03E00000
03C00000
00000000
00000000
00000000
00000000
00000000
00000000
07000000
0F800000
0FC00000
1FC00000
1F800000
0F000000
ENDCHAR
STARTCHAR 1EF5
ENCODING 7925
SWIDTH 486 0
DWIDTH 27 0
BBX 32 41 0 -12
BITMAP
03E0001F
03E0003E
03E0003E
03E0007C
03E0007C
01E000F8
01F000F8
01F001F0
01F001E0
00F003E0
00F007C0
00F807C0
00F80F80
00F80F00
00781F00
00781E00
007C3E00
007C3C00
003C7C00
003C7800
003CF000
003FF000
003FE000
001FE000
001FC000
001F8000
001F8000
001F0000
001F0000
003E0000
003E0000
007C0000
00780000
00F80000
01F00000
03F01C00
DFE03E00
FFC07E00
FF807E00
FE007E00
00003C00
ENDCHAR
STARTCHAR 1EF6
ENCODING 7926
SWIDTH 612 0
DWIDTH 34 0
BBX 29 53 9 0
BITMAP
0003F000
000FF800
001FFC00
001E3C00
003C1C00
00003C00
00003800
00007800
0001E000
0003C000
00000000
00000000
00000000
00000000
F80000F8
F80001F8
FC0001F0
7C0003E0
7C0007E0
7C0007C0
3E000F80
3E001F80
3E001F00
1F003E00
1F007E00
1F007C00
0F80F800
0F81F800
0F81F000
07C3E000
07C7E000
07C7C000
03EF8000
03FF0000
03FF0000
01FE0000
01FC0000
01FC0000
00F80000
00F80000
00F80000
00F00000
01F00000
01F00000
01F00000
01F00000
01F00000
03E00000
03E00000
03E00000
03E00000
03E00000
03C00000
ENDCHAR
STARTCHAR 1EF7
ENCODING 7927
SWIDTH 486 0
DWIDTH 27 0
BBX 32 55 0 -11
BITMAP
00000400
00007F80
0000FFC0
0001F7C0
0001C1C0
000001C0
000003C0
00000780
00000F00
00001E00
00003C00
00000000
00000000
00000000
00000000
03E0001F
03E0003E
03E0003E
03E0007C
03E0007C
01E000F8
01F000F8
01F001F0
01F001E0
00F003E0
00F007C0
00F807C0
00F80F80
00F80F00
00781F00
00781E00
007C3E00
007C3C00
003C7C00
003C7800
003CF000
003FF000
003FE000
001FE000
001FC000
001F8000
001F8000
001F0000
001F0000
003E0000
003E0000
007C0000
00780000
00F80000
01F00000
03F00000
DFE00000
FFC00000
FF800000
FE000000
ENDCHAR
STARTCHAR 1EF8
ENCODING 7928
SWIDTH 612 0
DWIDTH 34 0
BBX 29 50 9 0
BITMAP
003F0380
007FC780
00FFFF00
01E3FE00
01C0FC00
00000000
00000000
00000000
00000000
00000000
00000000
F80000F8
F80001F8
FC0001F0
7C0003E0
7C0007E0
7C0007C0
3E000F80
3E001F80
3E001F00
1F003E00
1F007E00
1F007C00
0F80F800
0F81F800
0F81F000
07C3E000
07C7E000
07C7C000
03EF8000
03FF0000
03FF0000
01FE0000
01FC0000
01FC0000
00F80000
00F80000
00F80000
00F00000
01F00000
01F00000
01F00000
01F00000
01F00000
03E00000
03E00000
03E00000
03E00000
03E00000
03C00000
ENDCHAR
STARTCHAR 1EF9
ENCODING 7929
SWIDTH 486 0
DWIDTH 27 0
BBX 32 52 0 -11
BITMAP
0000403C
0003F838
000FFEF8
000FFFF0
001E1FE0
001C0780
00000000
00000000
00000000
00000000
00000000
00000000
03E0001F
03E0003E
03E0003E
03E0007C
03E0007C
01E000F8
01F000F8
01F001F0
01F001E0
00F003E0
00F007C0
00F807C0
00F80F80
00F80F00
00781F00
00781E00
007C3E00
007C3C00
003C7C00
003C7800
003CF000
003FF000
003FE000
001FE000
001FC000
001F8000
001F8000
001F0000
001F0000
003E0000
003E0000
007C0000
00780000
00F80000
01F00000
03F00000
DFE00000
FFC00000
FF800000
FE000000
ENDCHAR
STARTCHAR 2013
ENCODING 8211
SWIDTH 648 0
DWIDTH 36 0
BBX 24 4 9 15
BITMAP
7FFFFF
FFFFFF
FFFFFF
FFFFFF
ENDCHAR
STARTCHAR 2014
ENCODING 8212
SWIDTH 756 0
DWIDTH 42 0
BBX 30 4 9 15
BITMAP
FFFFFFFC
FFFFFFFC
FFFFFFFC
FFFFFFFC
ENDCHAR
STARTCHAR 2018
ENCODING 8216
SWIDTH 288 0
DWIDTH 16 0
BBX 8 14 7 27
BITMAP
03
0F
1C
38
30
70
70
70
FE
FE
FE
FE
FE
78
ENDCHAR
STARTCHAR 2019
ENCODING 8217
SWIDTH 252 0
DWIDTH 14 0
BBX 8 14 4 27
BITMAP
3E
7F
7F
7F
7F
1F
0E
0E
0E
0C
18
70
E0
80
ENDCHAR
STARTCHAR 201A
ENCODING 8218
SWIDTH 288 0
DWIDTH 16 0
BBX 8 15 4 -9
BITMAP
0C
3E
7F
FF
FF
7F
0E
0E
0E
0E
0C
18
70
E0
80
ENDCHAR
STARTCHAR 201C
ENCODING 8220
SWIDTH 558 0
DWIDTH 31 0
BBX 19 14 9 27
BITMAP
030060
0F00E0
1C0380
380300
300600
700E00
700E00
700E00
FE0FC0
FE0FE0
FE1FE0
FE1FC0
FE0FC0
380780
ENDCHAR
STARTCHAR 201D
ENCODING 8221
SWIDTH 576 0
DWIDTH 32 0
BBX 18 14 10 27
BITMAP
7C07C0
FE0FC0
FE1FC0
FE1FC0
FE1FC0
3E07C0
0E01C0
0C01C0
0C0180
180380
380700
700E00
C01C00
801000
ENDCHAR
STARTCHAR 201E
ENCODING 8222
SWIDTH 504 0
DWIDTH 28 0
BBX 20 14 4 -8
BITMAP
3E03F0
7F07F0
7F07F0
7F07F0
7F07F0
0E00F0
0E0070
0E0060
0E00E0
0C00C0
1801C0
700780
E00600
800800
ENDCHAR
STARTCHAR 2020
ENCODING 8224
SWIDTH 576 0
DWIDTH 32 0
BBX 23 52 9 -13
BITMAP
001F00
001F00
001E00
001E00
001E00
001E00
003E00
003E00
003C00
003C00
7FFFFE
7FFFFE
7FFFFE
FFFFFC
007800
007800
007800
007800
00F800
00F800
00F000
00F000
00F000
00F000
01F000
01F000
01E000
01E000
01E000
01E000
03E000
03E000
03C000
03C000
03C000
03C000
07C000
078000
078000
078000
078000
078000
0F8000
0F0000
0F0000
0F0000
0F0000
0F0000
1F0000
1E0000
1E0000
1E0000
ENDCHAR
STARTCHAR 2021
ENCODING 8225
SWIDTH 576 0
DWIDTH 32 0
BBX 27 52 5 -13
BITMAP
0001F000
0001F000
0001E000
0001E000
0001E000
0001E000
0003E000
0003E000
0003C000
0003C000
07FFFFE0
07FFFFE0
07FFFFE0
0FFFFFC0
00078000
00078000
00078000
00078000
000F8000
000F0000
000F0000
000F0000
000F0000
000F0000
001F0000
001E0000
001E0000
001E0000
001E0000
001E0000
003E0000
003C0000
003C0000
003C0000
003C0000
007C0000
007C0000
00780000
FFFFFC00
FFFFFC00
FFFFFC00
FFFFFC00
00F80000
00F00000
00F00000
00F00000
00F00000
01F00000
01F00000
01E00000
01E00000
01E00000
ENDCHAR
STARTCHAR 2022
ENCODING 8226
SWIDTH 378 0
DWIDTH 21 0
BBX 11 11 8 15
BITMAP
0F80
3FC0
7FE0
7FE0
FFE0
FFE0
FFE0
FFC0
7F80
3F00
0C00
ENDCHAR
STARTCHAR 2026
ENCODING 8230
SWIDTH 792 0
DWIDTH 44 0
BBX 35 6 5 0
BITMAP
3800E003C0
FC01F007C0
FC03F00FE0
FC03F00FC0
FC03F00FC0
F803E00780
ENDCHAR
STARTCHAR 2030
ENCODING 8240
SWIDTH 1188 0
DWIDTH 66 0
BBX 59 40 7 -1
BITMAP
07F80003C0000000
1FFC0003C0000000
3E3C000780000000
3C1E000F00000000
780E001F00000000
700E001E00000000
F00E003C00000000
F00E007C00000000
F01E007800000000
F01E00F000000000
F01C01F000000000
F03C01E000000000
78F803C000000000
7FF007C000000000
3FE0078000000000
02000F0000000000
00001F0000000000
00001E0000000000
00003C0000000000
0000780000000000
0000F80000000000
0000F00000000000
0001E00000000000
0003E00080000000
0003C00FF000FF00
0007801FF801FF80
000F803E7C03E7C0
000F00781C0781C0
001E00F01C0701E0
003E00F01E0F01E0
003C00E01E0F01E0
007801E01C0F01E0
00F801E01C0E01C0
00F001E03C0E01C0
01E001E03C0E03C0
03C000F0780F0780
03C000F9F00F8F00
0780007FE007FE00
0F00003FC003FC00
0000000400004000
ENDCHAR
STARTCHAR 2039
ENCODING 8249
SWIDTH 360 0
DWIDTH 20 0
BBX 18 23 5 6
BITMAP
000FC0
001F00
003E00
007C00
00F800
01F000
03E000
07C000
1F8000
3E0000
7C0000
F80000
7C0000
3E0000
1F0000
1F0000
0F8000
07C000
03E000
03F000
01F000
00F800
007C00
ENDCHAR
STARTCHAR 203A
ENCODING 8250
SWIDTH 360 0
DWIDTH 20 0
BBX 17 23 4 6
BITMAP
0F8000
0FC000
07C000
03E000
01F000
00F800
00F800
007C00
003E00
001F00
001F80
000F80
001F00
003E00
007C00
00F800
03F000
07C000
0F8000
1F0000
3E0000
7C0000
F80000
ENDCHAR
STARTCHAR 2044
ENCODING 8260
SWIDTH 468 0
DWIDTH 26 0
BBX 34 39 -1 0
BITMAP
00000003C0
0000000780
0000000F80
0000001F00
0000001E00
0000003C00
0000007800
000000F800
000001F000
000001E000
000003C000
000007C000
00000F8000
00000F0000
00001E0000
00003E0000
00007C0000
0000780000
0000F00000
0001F00000
0003E00000
0007C00000
0007800000
000F000000
001F000000
003E000000
003C000000
0078000000
00F8000000
01F0000000
01E0000000
03C0000000
07C0000000
0F80000000
0F00000000
1E00000000
3C00000000
7C00000000
F800000000
ENDCHAR
STARTCHAR 2070
ENCODING 8304
SWIDTH 324 0
DWIDTH 18 0
BBX 16 21 7 21
BITMAP
03F8
07FC
1F3E
1C1E
3C0E
780F
700F
F00F
F00F
E00F
E00E
E00E
E01E
E01E
E01C
E03C
E038
F078
7FF0
7FE0
1F80
ENDCHAR
STARTCHAR 2074
ENCODING 8308
SWIDTH 324 0
DWIDTH 18 0
BBX 16 21 6 21
BITMAP
001E
003E
007E
00FE
01DC
039C
039C
071C
0E1C
1C3C
3838
3038
7038
FFFF
FFFF
FFFE
0070
0070
0070
0070
0070
ENDCHAR
STARTCHAR 2075
ENCODING 8309
SWIDTH 306 0
DWIDTH 17 0
BBX 16 21 6 21
BITMAP
1FFF
1FFF
1FFF
1C00
3800
3800
3800
3BF8
37FC
7C3E
781E
000E
000E
000E
001E
E01C
F03C
78F8
7FF0
3FE0
0F00
ENDCHAR
STARTCHAR 2076
ENCODING 8310
SWIDTH 306 0
DWIDTH 17 0
BBX 15 21 6 21
BITMAP
0070
00E0
01C0
03C0
0780
0700
0E00
1CF0
3BF8
3FFC
781C
701E
700E
E00E
E00E
E01C
F03C
7078
7FF0
3FE0
0F80
ENDCHAR
STARTCHAR 2077
ENCODING 8311
SWIDTH 288 0
DWIDTH 16 0
BBX 14 21 8 21
BITMAP
7FFC
FFFC
FFFC
0038
0038
0070
00E0
00E0
01C0
03C0
0380
0700
0700
0E00
1E00
1C00
3800
7800
7000
E000
E000
ENDCHAR
STARTCHAR 2078
ENCODING 8312
SWIDTH 324 0
DWIDTH 18 0
BBX 16 21 6 21
BITMAP
03FC
07FE
0F1F
1E07
1C07
3807
3807
1C0E
1E1E
0FF8
0FF8
3C3C
780E
700E
E00E
E00E
E01E
F03C
7FF8
7FF0
1FE0
ENDCHAR
STARTCHAR 2079
ENCODING 8313
SWIDTH 306 0
DWIDTH 17 0
BBX 14 21 8 21
BITMAP
0FE0
1FF8
3E78
703C
E01C
E01C
E01C
E01C
E03C
E038
F0F8
7FF0
3F70
00E0
01C0
0380
0780
0F00
0E00
1C00
3800
ENDCHAR
STARTCHAR 2080
ENCODING 8320
SWIDTH 324 0
DWIDTH 18 0
BBX 16 22 1 -14
BITMAP
0060
03F8
0FFC
1F1E
3C0E
380F
780F
700F
F00F
F00F
F00F
E00E
E00E
E01E
E01E
E01C
E03C
F078
F0F0
7FF0
3FC0
1F00
ENDCHAR
STARTCHAR 2081
ENCODING 8321
SWIDTH 252 0
DWIDTH 14 0
BBX 12 21 -1 -14
BITMAP
00E0
03E0
07E0
0FC0
1FC0
19C0
11C0
21C0
01C0
0380
0380
0380
0380
0380
0380
0700
0700
0700
7FF0
FFF0
FFF0
ENDCHAR
STARTCHAR 2082
ENCODING 8322
SWIDTH 288 0
DWIDTH 16 0
BBX 16 21 -1 -14
BITMAP
01FC
03FE
07FF
0E07
1E07
1C07
1C07
0007
000E
001E
003C
0078
00F0
03C0
0780
0F00
1E00
7800
FFFC
FFFC
FFFC
ENDCHAR
STARTCHAR 2083
ENCODING 8323
SWIDTH 306 0
DWIDTH 17 0
BBX 16 22 0 -14
BITMAP
0020
03FC
07FE
0F1F
1C07
3C07
0007
0007
000E
003C
03F8
03F8
003C
001E
000E
000E
E01E
F01C
F87C
7FF8
3FF0
1FC0
ENDCHAR
STARTCHAR 2084
ENCODING 8324
SWIDTH 324 0
DWIDTH 18 0
BBX 16 21 0 -14
BITMAP
001E
003E
007E
00EE
00FC
01DC
039C
071C
0E1C
0C3C
1C38
3838
7038
FFFF
FFFF
FFFE
0070
0070
0070
0070
0070
ENDCHAR
STARTCHAR 2085
ENCODING 8325
SWIDTH 306 0
DWIDTH 17 0
BBX 16 21 0 -14
BITMAP
1FFF
1FFF
1FFF
1C00
3800
3800
3800
39F0
37FC
7E7C
781E
700E
000E
000E
001E
E01C
F03C
F078
7FF0
3FE0
1F80
ENDCHAR
STARTCHAR 2086
ENCODING 8326
SWIDTH 306 0
DWIDTH 17 0
BBX 15 21 0 -14
BITMAP
0070
00E0
01E0
03C0
0380
0700
0E00
1CC0
1BF8
3FFC
7C1C
781E
700E
F00E
E00E
E01C
F01C
F038
7FF0
3FE0
0F80
ENDCHAR
STARTCHAR 2087
ENCODING 8327
SWIDTH 288 0
DWIDTH 16 0
BBX 14 21 2 -14
BITMAP
7FFC
FFFC
FFFC
001C
0038
0070
0070
00E0
01C0
01C0
0380
0380
0700
0E00
0E00
1C00
3C00
3800
7000
7000
E000
ENDCHAR
STARTCHAR 2088
ENCODING 8328
SWIDTH 324 0
DWIDTH 18 0
BBX 16 22 0 -14
BITMAP
0020
03FC
07FE
0F0F
1C07
1C07
3807
3807
1C0E
1E1C
0FF8
1FFC
3C1C
700E
700E
E00E
E00E
F01E
F03C
7FF8
3FF0
1FC0
ENDCHAR
STARTCHAR 2089
ENCODING 8329
SWIDTH 306 0
DWIDTH 17 0
BBX 14 21 2 -14
BITMAP
07E0
1FF8
3EF8
783C
F01C
E01C
E01C
E01C
E03C
E038
F0F8
7FF0
3F70
08E0
01C0
0380
0780
0F00
0E00
1C00
3800
ENDCHAR
STARTCHAR 20AB
ENCODING 8363
SWIDTH 594 0
DWIDTH 33 0
BBX 34 46 5 0
BITMAP
0000001F00
0000001E00
0000003E00
0000003E00
00003FFFC0
00003FFFC0
00003FFFC0
00007FFFC0
0000007C00
0000007C00
0000007C00
003FF07C00
00FFF87C00
01FFFC7800
07FFFEF800
0FF00FF800
0FC007F800
1F8003F800
3F0003F800
3E0001F000
3E0001F000
7C0001F000
7C0001F000
7C0001F000
7C0001E000
780003E000
F80003E000
FC0003E000
7C0007E000
7C000FE000
7E001FC000
7F003FC000
3F80FFC000
3FFFF7C000
1FFFE7C000
0FFF87C000
01FE078000
0000000000
0000000000
0000000000
0000000000
0000000000
0000000000
7FFFFF8000
FFFFFF8000
FFFFFF0000
ENDCHAR
STARTCHAR 20AC
ENCODING 8364
SWIDTH 684 0
DWIDTH 38 0
BBX 38 39 3 0
BITMAP
000000E000
00001FFE00
00007FFF80
0001FFFFC0
0003FFFFE0
0007F00FF0
000FC003F0
001F8001F8
003F0000F8
003E0000F8
007C00007C
007C00007C
00F800007C
00F800007C
01F0000000
3FFFFE0000
3FFFFE0000
03E0000000
03E0000000
03E0000000
03E0000000
03E0000000
07C0000000
FFFFFC0000
FFFFF80000
07C0000000
03C0000000
03E00001E0
03E00003E0
03E00007C0
03F00007C0
01F0000F80
01F8003F00
00FC007E00
00FF01FC00
007FFFF800
003FFFF000
001FFFC000
0007FF0000
ENDCHAR
STARTCHAR 2122
ENCODING 8482
SWIDTH 378 0
DWIDTH 21 0
BBX 19 9 8 30
BITMAP
FEF1E0
FEF3C0
30F3C0
30FFC0
30DEC0
30DCC0
31DDC0
71C180
618180
ENDCHAR
STARTCHAR 215B
ENCODING 8539
SWIDTH 882 0
DWIDTH 49 0
BBX 44 39 6 0
BITMAP
03C000001E00
07C000003C00
0FC000007C00
1FC00000F800
3FC00000F000
3B800001E000
23800003E000
43800007C000
0380000F8000
0780000F0000
0780001E0000
0700003E0000
0700007C0000
070000780000
070000F00000
0F0001F00000
FFE003E00000
FFE003C00000
FFE007800000
FFE00F800F00
00001F007FC0
00003E00FFE0
00003C01E1E0
00007801C0F0
0000F803C0F0
0001F003C0E0
0001E003C1E0
0003C001E3C0
0007C000FF80
000F8001FF80
000F0003C3C0
001E000781C0
003E000701E0
007C000F01E0
00F8000F01C0
00F0000F03C0
01E00007FF80
03E00007FF00
03C00003FE00
ENDCHAR
STARTCHAR 215C
ENCODING 8540
SWIDTH 846 0
DWIDTH 47 0
BBX 41 39 6 0
BITMAP
01F800003C00
07FE00007800
0FFE0000F800
1E0F0001F000
1C0F0001E000
000F0003C000
000E0007C000
001E000F8000
01FC000F0000
01F8001E0000
03F8003C0000
003C007C0000
001C00F80000
001C00F00000
001C01E00000
F03C03E00000
787C07C00000
7FF807800000
3FF00F000000
1FC01F007C00
00003E01FF00
00003C03FF80
000078078780
0000F00F0380
0001F00E0380
0003E00E0380
0003C00F0780
000780078F00
000F8007FE00
001F0007FE00
001E000F0F00
003C001C0700
007C003C0700
00F800380700
00F0003C0700
01E0003C0F00
03C0003FFE00
07C0001FFC00
0780000FF000
ENDCHAR
STARTCHAR 215D
ENCODING 8541
SWIDTH 882 0
DWIDTH 49 0
BBX 43 39 6 0
BITMAP
1FFF00003E00
1FFE00007C00
1FFE00007800
1C000000F000
1C000001F000
38000003E000
38E00003C000
3BF800078000
3FFC000F8000
7C3C001F0000
781E001E0000
001E003C0000
001C00780000
001C00F80000
F03C00F00000
787801E00000
7FF803C00000
3FF007C00000
1FC00F800000
02000F001F00
00001E007FC0
00003E00FFE0
00007C01E1E0
00007801C0E0
0000F003C0E0
0001F003C0E0
0003E003C1E0
0003C001E3C0
00078000FF80
000F0001FF80
001F0003C3C0
003E000781C0
003C000701E0
0078000F01E0
00F8000F01C0
01F0000F03C0
01E00007FF80
03C00007FF00
07C00003FE00
ENDCHAR
STARTCHAR 215E
ENCODING 8542
SWIDTH 900 0
DWIDTH 50 0
BBX 42 39 8 0
BITMAP
7FFC0000F800
7FFC0001F000
FFF80001E000
00380003C000
00780007C000
0070000F8000
00F0000F0000
01E0001E0000
01C0003E0000
03C0007C0000
038000780000
070000F00000
0F0001E00000
0E0003E00000
1E0007C00000
3C0007800000
38000F000000
78001F000000
F0003E000000
E0003C003C00
00007800FF80
0000F003FF80
0001F003C3C0
0001E00783C0
0003C00701C0
0007800703C0
000F80070380
001F00078F00
001E0003FE00
003C0003FE00
007C000F0F00
00F8001E0780
00F0001C0380
01E0001C0380
03C0001C0780
07C0001E0F00
0780001FFF00
0F00000FFE00
1E000007F800
ENDCHAR
STARTCHAR 2212
ENCODING 8722
SWIDTH 594 0
DWIDTH 33 0
BBX 23 5 8 15
BITMAP
7FFFFE
7FFFFE
7FFFFE
7FFFFE
FFFFFC
ENDCHAR
STARTCHAR 2215
ENCODING 8725
SWIDTH 504 0
DWIDTH 28 0
BBX 30 39 3 0
BITMAP
0000003C
0000007C
000000F8
000000F0
000001F0
000003E0
000003C0
000007C0
00000F80
00000F00
00001F00
00003E00
00003C00
00007C00
0000F800
0000F000
0001F000
0003E000
0003C000
0007C000
000F8000
000F0000
001F0000
003E0000
003C0000
007C0000
00F80000
00F00000
01F00000
03E00000
03C00000
07C00000
0F800000
0F000000
1F000000
3E000000
3C000000
7C000000
F8000000
ENDCHAR
STARTCHAR 2248
ENCODING 8776
SWIDTH 558 0
DWIDTH 31 0
BBX 23 17 7 9
BITMAP
07F80E
0FFC1E
1FFFFC
3C1FF8
380FF0
380080
000000
000000
000000
000000
000000
030038
1FE038
3FF878
7FFFF0
F07FE0
E01FC0
ENDCHAR
ENDFONT
